/* XPM */
static char *east[] = {
/* columns rows colors chars-per-pixel */
"64 64 58 1 ",
"  c black",
". c #6F533A",
"X c #795737",
"o c #7A5737",
"O c #70533A",
"+ c #70543B",
"@ c #72543A",
"# c #795738",
"$ c #775A3F",
"% c #785A3F",
"& c #785B3F",
"* c #7F5C3D",
"= c #785B40",
"- c #7B5D41",
"; c #815F3D",
": c #825F3D",
"> c #82603E",
", c #83603E",
"< c #836647",
"1 c #9C7B61",
"2 c #9D7C60",
"3 c #9F7E62",
"4 c #A07E61",
"5 c #A07F61",
"6 c #A28166",
"7 c #A58467",
"8 c #A78567",
"9 c #AB8962",
"0 c #AD8961",
"q c #A88768",
"w c #A98868",
"e c #B18D66",
"r c #B18E66",
"t c #B39067",
"y c #B49067",
"u c #B59267",
"i c #B79564",
"p c #B69368",
"a c #B9956C",
"s c #B9966C",
"d c #BA976C",
"f c #BB976D",
"g c #BC9B6A",
"h c #BE9B6A",
"j c #BD9C6A",
"k c #BF9D6A",
"l c #BE9D6B",
"z c #BC986D",
"x c #BD9A6D",
"c c #BE9B6D",
"v c #C3A070",
"b c #C3A270",
"n c #C5A270",
"m c #C6A371",
"M c #C7A570",
"N c #C7A471",
"B c #C7A571",
"V c #C8A671",
/* pixels */
".......OXXXXOOOO....##XXXXXX...............OXXXXXooXOOO.........",
".......OXXXXOO......##XXXXoXOO.............OXXXXoooXOOO.........",
"......OOXXXXO...O.++####oXoXOO++..........++XXXXoXoXOOO+........",
"...+$===::::======--**:*::::--%-$%%&$$$$%-%%::::::::%-%%====....",
"...$9tttyyyyytttyyy94114rryyyyyyttt93313rryytytyryyyyyprtyy9=...",
"...=tzzzzzzzzzzzzzzf884qzfzzzzzzzzzs6668fzzzzzzzzzzzzzzzzzzr=...",
"...=tzzzzzzzzzzzzzfd844qdzzzzzzzzzzdq666zzzzzzzzzzzzzzzzzzzp=...",
"...=tzzzzcczzzzzfffd88qwfzzzzzzczzzzq688zczczczzcczczzzczzzr=OO.",
"...$tzzzVVBBmBmVVNmmddzzBBBBBVVVBVBBjzddBBmBVVNmVmmVVmmmzzzp:##X",
"...-tdccVVVVVVVVVVVVffzfmVVVBVVVBBBBzzdzBBVVVVVVVVVVVVVmzzft:#XX",
"...&tzzcBVVVBBVVVVVVffffmBBBVVVVVBBBczzcBVVVVVVVVVVVVVVVzzzp:oXX",
"...&tzz     jhh kkkh   ij     jjjjjzyyyyhkjjkkkkhhhhVVVmzzzi:ooo",
"...&tzz VVVj<- - ,, ::> --- %-&&----&>>>:,,,,,:,---<kVVVzzzy:XXX",
"...-yzz mVVj- ..X X XXXXO.. O+++....ooooXXooooXXOOO-hmVVjzzr:#XX",
"...$yzz VVVj- ..X X XX#X... ++++....ooooXooooooX..O-hVVmfcfr:ooo",
"...=yzz    j- ++: ::   >-%- --%-----,>>,,,,,::::O..-hVmNfffr:XXX",
"...=tzz VVVk:     yphkk jjj jjjjjjjjkkkkkjjjyyy9:XX:rfzzwqq3=..O",
"...$tzz mVVk: o:y zzVVV VVV VVVVVVVVVVVVVVVVzzzy:#X:pzzfq653...O",
"...-pzz mVVk: X:r z VVV VVV VVVVVVVVVVVVVVVVcczy:XX:rfzd6663=...",
"...=yzz     : o:p zc   VVVV VVVVVVVVVVVVVVVVczzy:XX:pzzdq6q4=...",
"XXX:tzzzmVVk,oX,hVmVVVVVVVVVVVVVVVVVVVVVVVVVVVVj-O.-hBBmdddt=O..",
"XXX:yzzcmVVk,oo,hVVVVVVVVVVVVVVVVVVVVVVVVVVVVVVj-..=jBVBfdat=O..",
"XXX:tzzzmVVk,oX,kVVVVVVVVVVVVVVVVVVVVVVVVVVVVVVj-..-jBBBfffy=...",
"XXX>rddcNVVh,oX,kVVVVVVVkjjjkkkkkkkkjjjkVVVVVVVj-..-jBVBzzdt=...",
"XXX:46qqfffp:XX>kVVVVVVj<---,>,,,,,>-%-<jVVVVVVj-..-hVNNzzzp:XXX",
"XXX:3658fffy:XX>kVVVVVVj-+O+ooXooXoo+O+-jVVVVVVj%..-hVVNzzfy<XXX",
"XXX:456qzzfy:X#>kVVVVVVj%OOOXooXoXoXO++&jVVVVVVj-.O-hVVNczzp:oXo",
"XXX:46qwzcfy>X#:kVVVVVVj-O++,,,,,>,,+++-jVVVVVVj-.O-hVVVzzzp:ooo",
"..O=rafzVmVk-O.-hVVVVVVk>Xo,ijkkkkki:XX>bBMVVVBj%..-hVVNcfhy:XXX",
"OO.=rdzzmVVj-..-hVVVVVVk,oo,kMVVVVVk,XX,jVVVVVBj-..-hVVVcffr:XXX",
"...%rfffVVVj-..=hVVVVVVk>oo,kVVVVVMk,XX,jVVVVVBj%..-hVMNffar:ooo",
"...%pdffmVVz-..-hVVVVVVj,Xo,kVVVVVMh,XX,jVVVBBBh-..-hNVNfzae:XXX",
"...=dzzzBVVj-.O-jVVVVVVk:oo:kVVNzzhr:oo,kVVVffzp:o#:pzzzqq84=...",
"...=rzzcBVVj-..=jVVVVVVk:oo:kVVVzzhy,oo,kVVmcffp:o#,yzzzq451=...",
"..O-yhzzBVVj-.O-jVVVVVVj,oX:kVVVczzr,Xo,kVVVczzr:o#:yzzyq443=...",
"...=tdzzBVBd-.O-jVVVVVVj,oX:ikkhyyyr:Xo,hVVNfzzp:oo:pzcfqq84=...",
"##X>dahzBBBj-OO%jVVVVVVj-OO@,,,,::>>+OO:kVVVzcfy:oo,hVmndade=...",
"##X:yzfzBBVj-OO=jVVVVVVh-OO@#oXXXXX#OOO=hVVVcfzy:oo,kVVVfdde=...",
"XXX:yzzzBBVj-OO-jVVVVVVj-OOO##o#XX##OOO-hVNNzfcy:oo,kVVNffap=...",
"XXX:9zpdBBBj-OO:jVVVVVVc<---,,,,,>>:-=-<hVNVzcfy:oo,kVVVffde=...",
"XXX:36qqffhp:#o:kVVVVVVBckkhkkkkkkkkhhhjVVVVccfy:oo:kVVNzzfp:###",
"ooX:334qfffr:oo:kVVVVVVVVVVVVVVVVVVVVVVVVVVVfczy:oo:kVVNczft:###",
"ooo:4646fffp:oo:kVVVVVVVVVVVVVVVVVVVVVVVVVVmcffy:oo:kVVNczzp:o##",
"ooo:4q6qfzfr<oo:jVVVVVVVVVVVVVVVVVVVVVVVVmVmccfy:oX:kVVNzzzf:XXX",
"oXX:rffdmmVh:XX:dczcVVVVVVVVVVVVVVVVVVVmdfczzzcr:oo,kVVNzffp:ooo",
"oXX:rfffNVVk:XX:rzzzmVVVVVVVVVVVVVVVVVVVzfzzzzfp:oo,kVVNczfr:ooo",
"ooX:yzffVVVk:oX:yhfzmVVVVVVVVVVVVVVVVVVVzzzzzffr:oo,kVVNfzfr:ooo",
"#XX:dzffVVVk,oX:rrrphkkjkkkkkkkkkkkkkkkhprpriyp9:oo:hmmNfzdr:XXX",
"OOO=yzzzVVVj-+++>>>>>>,,,,,,,,,,,,,,,,,,::::::>>@OO-rccfqqq5=O..",
"OOO=yzzzVVVj-+++ooooooooooooooooooooooooooooXXXXOOO=pfcfq461=O..",
"OOO=rzzzVVVj=.OOooooooooXXooooo#ooooooXXooooXX##OOO=rfdd4q41=...",
"OOO=dzzcBBVz<-*%,,>,>>>>::>>::::,,,,,,::::::,,,>---<pffdqq55=...",
"O..=rdzzBVVVjjjjzjkkzzbzyyipjkkkkkkkkkkhyyyidjkkhhhhmmVmfdd9=...",
"...=pfzzmVVVVVVVVVVVVVmmfhzzVVVVVVVVVVVmzzzzBVVVVVVVBVVmfffp=...",
"...=rfzzmBBVVVVVBBBBVVBmzzzzVVVVVVVVVVVVzdzcBBVVVVVVVBVBzzfy=...",
"...=pdzzBVBBVBVVBBBVBVmbzzzkmmVmmNVVVmmmdffzBBVBVNVmVBBmzzfq=...",
"...=yzzzddzzczczjczzww88zzzzzzzzzzzzczcz86qwzzzzcczzzzzfzzfy-...",
"...=yzzzzzzzzjzzzzzzq338dzzzzzzzzzzzzzzz8666dzzzzzzfzzzfzzfy=O..",
"...$tzdzzffffhzzzzzy8448ddzzzzzzzzzzzzzz6666dzzzzzhfzzdfzffp-...",
"...-9tprptyyrrrdyyyr44329ryyytpryyyyrprr33339yytyyyyrdprppyq=...",
"....$=======,:::::::===$-%%-%-%=::::::::$$+%-%%%,,>:=======%####",
"........OOOO#XXXXXXX....++OOOO..XoooXooX..++O++OXoXXO.O.OOOO##XX",
"........OOOOXoXoXXXX........OOOOXXoooooX......OOXXXXO...O.OOXXXX",
".......OOOOOXoooXXX+........OOOOXooooooX......OOXXXXO.....OOXXXX"
};
