/* XPM */
static char *b27d4ce20dea4f25e9c5e0c58ffb6ec2uggbxiK8cpRVjMH3[] = {
/* columns rows colors chars-per-pixel */
"64 64 243 2 ",
"   c #0C0505",
".  c #0D0609",
"X  c #0D0A0B",
"o  c #060505",
"O  c #12070A",
"+  c #120B0D",
"@  c #1A0D0C",
"#  c #170703",
"$  c #0D150E",
"%  c #13110E",
"&  c #1B120C",
"*  c #0F0D11",
"=  c #140E11",
"-  c #190F12",
";  c #0F1512",
":  c #151213",
">  c #1A1415",
",  c #141A14",
"<  c #1B1A16",
"1  c #1C1519",
"2  c #1D1A1B",
"3  c #161919",
"4  c #25150D",
"5  c #241413",
"6  c #221A15",
"7  c #2B1B15",
"8  c #20161A",
"9  c #221B1D",
"0  c #2B1B1A",
"q  c #331B16",
"w  c #280B07",
"e  c #1A211B",
"r  c #23211E",
"t  c #2B211D",
"y  c #2A2419",
"u  c #36241B",
"i  c #1E1B21",
"p  c #231E21",
"a  c #291F23",
"s  c #1E2121",
"d  c #252223",
"f  c #2B2425",
"g  c #2B2A26",
"h  c #2C2529",
"j  c #2D2A2C",
"k  c #252629",
"l  c #322524",
"z  c #342A25",
"x  c #31252C",
"c  c #322C2D",
"v  c #3C2A26",
"b  c #2D312E",
"n  c #33322D",
"m  c #3A322D",
"M  c #3D3B2F",
"N  c #2D2C31",
"B  c #332D32",
"V  c #3A2D34",
"C  c #392B35",
"Z  c #353233",
"A  c #3B3434",
"S  c #3D3A36",
"D  c #3B3539",
"F  c #3D3A3B",
"G  c #363439",
"H  c #2F3336",
"J  c #521E1A",
"K  c #44261D",
"L  c #452B24",
"P  c #48332B",
"I  c #553529",
"U  c #423434",
"Y  c #423C3C",
"T  c #483B37",
"R  c #563935",
"E  c #542D26",
"W  c #683B36",
"Q  c #763930",
"!  c #3D423A",
"~  c #46423E",
"^  c #56423C",
"/  c #65423B",
"(  c #75473A",
")  c #443E42",
"_  c #4C3D41",
"`  c #503D43",
"'  c #3D4142",
"]  c #464243",
"[  c #4C4444",
"{  c #4C4649",
"}  c #4C4949",
"|  c #534C4C",
" . c #564847",
".. c #59524D",
"X. c #554E51",
"o. c #555152",
"O. c #5B5454",
"+. c #5B5559",
"@. c #5E595B",
"#. c #5B5B54",
"$. c #4E5251",
"%. c #684B47",
"&. c #754A45",
"*. c #68534B",
"=. c #78544A",
"-. c #635B5D",
";. c #655755",
":. c #765954",
">. c #5C615C",
",. c #67615C",
"<. c #76605B",
"1. c #645D62",
"2. c #6B6364",
"3. c #6C656A",
"4. c #6D696B",
"5. c #666464",
"6. c #726B6C",
"7. c #756866",
"8. c #76726C",
"9. c #746E71",
"0. c #7A6F71",
"q. c #767274",
"w. c #7B7475",
"e. c #7C7579",
"r. c #7D7A7B",
"t. c #6B716D",
"y. c #5F6561",
"u. c #84362E",
"i. c #86483A",
"p. c #874B43",
"a. c #8A5349",
"s. c #95544A",
"d. c #885A55",
"f. c #975C55",
"g. c #994F49",
"h. c #A5574E",
"j. c #A35C55",
"k. c #AA5956",
"l. c #B55C5A",
"z. c #A44C4A",
"x. c #8A645B",
"c. c #9A655A",
"v. c #9F614A",
"b. c #A76659",
"n. c #B36A5E",
"m. c #876664",
"M. c #986964",
"N. c #837B7C",
"B. c #877777",
"V. c #94766F",
"C. c #A76A65",
"Z. c #B76C65",
"A. c #A9746A",
"S. c #B8776B",
"D. c #A57A75",
"F. c #B67D74",
"G. c #C3736C",
"H. c #C67B74",
"J. c #CC7673",
"K. c #93817C",
"L. c #BA8379",
"P. c #C9867A",
"I. c #D3867E",
"U. c #887E82",
"Y. c #927F81",
"T. c #AC7E80",
"R. c #8A8384",
"E. c #8A8587",
"W. c #948B8C",
"Q. c #968889",
"!. c #978E91",
"~. c #9B9394",
"^. c #9C9497",
"/. c #97908E",
"(. c #A68A86",
"). c #B58784",
"_. c #A59B9D",
"`. c #A79897",
"'. c #B59C99",
"]. c #B2938B",
"[. c #B9A29A",
"{. c #A69EA2",
"}. c #B29FA3",
"|. c #ADA3A4",
" X c #ADA7A9",
".X c #B5ABAC",
"XX c #B7A8A7",
"oX c #B9AEB1",
"OX c #BCB2B3",
"+X c #B9B6B7",
"@X c #B1B0AC",
"#X c #CA8A82",
"$X c #D88B83",
"%X c #C49389",
"&X c #D89489",
"*X c #CA9C99",
"=X c #D99C91",
"-X c #E4948C",
";X c #E59C94",
":X c #E28D88",
">X c #C6A39B",
",X c #DAA499",
"<X c #E6A598",
"1X c #F1A198",
"2X c #C7A8A6",
"3X c #D7A9A6",
"4X c #CBB1AB",
"5X c #C3BABA",
"6X c #C6B7B7",
"7X c #D6B7B4",
"8X c #DBB7AB",
"9X c #EBB5AB",
"0X c #F8B7A7",
"qX c #EBB5B0",
"wX c #C79FA0",
"eX c #DAC1BC",
"rX c #C2C1BC",
"tX c #FDC6B9",
"yX c #F2C6B9",
"uX c #CEBEC1",
"iX c #CCC2C3",
"pX c #CBC8C7",
"aX c #D1C3C3",
"sX c #DACCCC",
"dX c #D4CAC9",
"fX c #DED1CF",
"gX c #DED2D2",
"hX c #D5D6D7",
"jX c #D4CDD4",
"kX c #EAC8C5",
"lX c #F6CBC4",
"zX c #FDD6CA",
"xX c #EBDDDC",
"cX c #E4D6D5",
"vX c #F8DBD7",
"bX c #EDCFCF",
"nX c #EAE1DE",
"mX c #FFE5DB",
"MX c #F8E8E6",
"NX c #FFF3EE",
"BX c #FFFBFA",
"VX c #EAE5E2",
"CX c #E9DDE1",
/* pixels */
"X X X X X + X X X X X : o X X X % + + + X % % X * * o : N h 1 p * * : s 2 k S ) -.N.Y.oX^.Y.^.Y.3.+.6.e.4.6.3.2.} o.9.q.r.E.q.r.",
"+ + : X + > : : : : X 3 X : * ; > : % % + , < : ; : X 3 H h i p i * X j k k c Y 1.N.U.{.U.U.^.!.3.X.9.0.w.r.4.4.+.o.1.5.4.q.3.q.",
"+ : 2 = : 9 < : 3 > : 3 = 3 3 : 9 < < & % < e e 2 3 * 2 C a 1 p * ; 3 d r c A Y -.0.w.U.e.0.Y.e.1.O.4.4.q.R.w.e.q.5.5.t.q.r.@.>.",
": > 2 : > d 2 : 2 > : 2 : 1 > 3 r 2 > : % < d d i : X 2 B a 1 p : = X 2 c ] S j X.6.N.6.U.U.^.9.;.-.4.-.2.e.w.w.r.q.q.K.U.!.3.@.",
"= > 9 > 1 d 2 : 2 > : 2 : 2 3 3 9 < < : , 2 d d 2 * X 2 Z h 9 p > % < m ~ Y j f A -.N.+.U.!.6XU.;.2.-.-.4.4.6.6.E.r.r.r.3.q.3.$.",
"> > 2 < 2 d 2 > 2 > + 2 : 1 3 : 8 < < > : 2 d d s X + d B p 1 6 < g m | o.| A c V { -.U U.{.uX!.w.4.| O.6.4.4.r.E.E.U.3.+.+.@.{ ",
"1 : 8 9 9 d < 1 2 > : 2 : 2 : : 2 2 < < : 2 h k d : X p z 9 9 c [ | ~ | ,.6.[ g Y _ _ ) 0.{.oXY.~.e.-.O.q.e.2.R.E.q.e.1.1.1.3.{ ",
"8 : 1 8 p p > 1 2 > + < : 1 3 : 9 < < : : 2 h k 9 X + f x t U ..,.<.#.;.....S S D X.` +.0.{.{.^._.Q.Q.5.q.R.O.q. Xr.t.@.3.1.1.' ",
"> 8 - < 2 f : 8 2 : : 1 : 9 : : < 8 > 1 = 9 h B 8 = . t y ~ ~ ^ ..;.;...B.8.K.t.] #.4.O.e.!.W.^._.Q.~.W.E.-.D @.@X!.@.3.r.q.) G ",
"1 1 > > 8 f = 2 1 = : 2 : 8 % 3 < 9 3 < - 2 h N d >   f ~ *. .^  . .;.~ ,.2.K.pX/...2.N.W.}.!.^.{.!.U.W.!.X.C +.!.E.r.q.U.r.) ) ",
"8 8 > 8 2 p = 1 < + = 1 : 9 : : 1 8 : 2 = i j x f =   z ..;.^ ~ *.T ~ *.,.M M |.VX8.O.`. X6X{.U..X|.E._.{.{ D +.E.e.3.e.^.9.D 1.",
"9 > > 8 8 9 : 8 < = - 1 : 8 = : < 9 > 9 : i j N p + 6 U  .^ ~ ^ ^ ^ v ;.2.T y T 5X+X8.W.aX.X{.{..XOX_..X{._ +.+.t.r.1.q.{.3.) X.",
"a - - 9 8 9 > 9 < + : 1 : 9 : > 1 9 > 2 : p x N p O V ..~ M P ^ P m u *.<...~ m 2.^.K.E.@X{.oXoXXX.X|.+X{.{ 3.X.` r.e.U.{.@.' ) ",
"a - - a 8 a 1 9 1 + - 2 > 9 : 3 1 9 > 9 1 p N x h O Y ;.P u v u v q P ..~ n y  .[ ,.^./._.@X6XOXiXXXXXiXoX+.1.` +.q.U.^.!.+.D @.",
"a = @ p 8 a 8 f > + - 2 > 9 - : 1 p 1 p - i B B a 1 _ T m u u y q ^ :.*.u y 7 U m 8. X~. XOX|.nXgX+X+XdXuX+.` _ X.q.U.U.q.@.` X.",
"f + - a 9 a 9 h > + = 2 > 8 : : 1 p > i 1 p h N 1 f Y v v I L ^ / V.K.m./ y y n n } K./.W.OXrXcXaX5XiXiXuX+.G ) X.3.3.!.q.) ) $.",
"a O = 9 9 0 9 a > = + 1 > 9 : 3 : d : p = 2 j b i > z U K I ( c.L.L.L.L.=.u u y k 1.9.0.B.6XxX6X6XgXdXoX6X1.C D Y +.e.E.@.Z } } ",
"p X : 9 9 p 9 a - + + 1 > 2 * : 3 h - 9 = 9 j N p = 9 L K W v.L.L.P.P.A.d.L z g H X.e.Y.Q.}.cXdX5XsXsX.X X-.V D ) X.5.e.} D Z c ",
"p + = 9 a 9 9 p - + O > : 2 + : 1 h : p + 8 j j p O a R / p.S.I.I.&XP.n.c.E u n N $.+.3.B.`.5X6X2XXX5X5XoX-.Y Y { +.5.4.F S g g ",
"p + : 8 a 9 8 a - O + > 3 2 X : 3 h - 9 + 8 h j p @ l %.d.A.P.I.P.P.L.S.A.E 7 m ' 1.) _ ;.(.6XXX|.!.~.uXXX{ D Y o.@.3.@.S G f z ",
"p + > 1 h 8 8 a > O O > > 2 $ : - x - 8 O 8 f l p - q %.M.P.-XI.P.P.P.P.F./ 4 y { X.Y )  .m.oX7X5X.XQ.aX^.A D { @.o.+.D D Z d d ",
"p + > > x 8 9 l - + + < > 2 + : > f - 8 O 8 f h 8 5 5 %.L.&X1X-X=X&X$XL.S.x.I u ' h ) ` ` 7.6XaXsXgX.XsX~.c A [ X.{ } d Z f f g ",
"a + 1 = x 8 8 h : O + > : 2 * : - h - 8 O 8 x h 1 - @ :.*X=X;X-X;XS.S.n.S.M.*.m Y Z { X.` B.6XaXsXcX6XaX_.Y f A ] { D d c d f j ",
"d = < + x 8 9 f : + X > > 2 * : > h - > O 6 h h 8 - # =.3X;X;X1XP.i.i.b.A.A.=.u ~ +.) { U Q.Q.rXMXsXuXaX5XO.x A ) ] p 2 Z g d d ",
"f + : : f p 1 x > O + > 2 < * : = h 1 > X 1 j d : + 7 :.3X#X$XI.Q s.Z.C.n.c.:.u n ! ! c ] w.K.5XnXMXfXgX.XE.A j F h k p D B k h ",
"p + : - a 9 8 x > O = > 1 2 * : : k 3 : X 2 b k 2 : @ *.).P.I.k.a.b.C.j.b.M.=.u e g y e U ,.Q.OXMXBXcXdXXXN.V c G k a k D C f B ",
"f + - = a 9 8 x 1 O + > 2 1 % : : k 1 = X 2 b k 3 + @ R d.a.H.h.s.c.j.j.n.c.=.4 & r 2 , A O.|.6XnXBXMXnXoXW._ 9 h i p p G B d B ",
"f + : = 0 8 8 c > O + > 1 1 X : - k 1 : X 2 b k : . 0 L ( J G.G.i.i.s.G.H.c.&.y e r , 1 f O.OXdXMXNXBXBXrX X+.p h i p 1 B k d B ",
"h + : + 9 8 8 c 8 O + > 1 > % 3 > k 8 - . 1 N g 2 + @ q f.Q J.I.b.s.Z.:XP.j.d.K 4 < < r 8 | _.gXMXNXNXNXgX+X| f j p i i B h h C ",
"h + = + 9 8 8 c 1 O + > 2 > * 1 1 x 8 8 X 9 b j 3 : # q D.S.J.J.P.H.:X1XZ.j.M.L 4 6 d f 8 [ B.eXnXNXMXcXnXXXc h B i i 1 j h d Z ",
"j + = + 9 8 > c 1 O + > 2 3 X > 1 x 8 - O 9 B h : + O q D.#X$XZ.#X&X-XJ.l.k.C.E 4 t f 8 l _ B.4XnXNXnXnXxX~.x B j p i 1 x h k G ",
"h + : + 9 8 8 x 8 . + : 2 > + 1 1 x 8 - O p B h 2 . 5 7 D.#X$XG.Z.&XJ.Z.k.k.A.R # 0 0 @ U  .Q.rXmXnXdXnX5X2.D x h p p i B k h D ",
"N - = . p i > j i O * 1 p = = 1 - C i - O p C x = > > w T.#XI.l.l.J.:XG.z.P.L.:.0 @ 8 5 a ;.(.XXCXcXcXcX|.[ v A h 9 p 2 B N B D ",
"N - = . p i = j i * * 1 p = = 1 1 C 1 1 O p C x p = . @ m.H.J.l.l.G.G.b.S.;X%XM.E %.U a x U N.`.cXxXxXxXB.X.| h h a B k D B N G ",
"B = = . p 1 - k 1 O = 1 p = = > 8 C 1 - O p C C i o i x &.C.k.u.z.J.S.k.n.L.C.x.&.}.Y.8 l [ U.6XCXMXgXB.2.B.1.U z j D A D B k C ",
"C = = . p 1 = h 1 * O - p * = > p C 1 - O p C C : 3 B D / M.k.z.l.H.Z.Z.L.n.c.a.&.T.wX+.%.1.`.5XMXNXaX`.Q.N.6X{ C j G j D j k B ",
"N - = . p 1 = h 1 . O 1 p = - > p C 1 - X 9 D x i N G x P A.Z.G.H.I.P.P.S.b.v.=.d.T.7XbX~.K.rXpXBXcX}.bXuX!.}.1.G j j g B h h Z ",
"B = = . p 1 = h i . * - p = = - a C 1 - + 9 D x h D B a v M.C.k.g.v.S.P.L.v.c.a.C.T.3XMXXX_.K.pXNXXXuXjX6X+.O.Y.U c j d G B k c ",
"B > = . 1 1 = a i . * - p = = - h C > - + 2 V V G Z d 9 0 d.A.g.g.s.Z.L.L.A.f.a.C.wXlXbXeXOX7.fXNX}.uXuXoXU 1.3.Y c j f G z g c ",
"x : = . 9 1 = a i . . 1 p = = - a C > : X 9 A c j r 2 r 5 %.M.Q p.g.S.A.c.c.M.).wX3XzXeXeX(.Q.MXMXbXuX4X{.O.3.7.) Z Z f c z h c ",
"B 1 X X 9 1 . f 9 X + > d + + = x C 1 > X 2 V f j 2 3 r 6 v d.C.Z.C.C.Z.d.A.8X>X>X>XkXqX3XwXwXkXkXxXvX{.{.B.0.6.Y B j p c h t m ",
"h p 1 = 1 > X f 8 + + > 9 X = - x C i : . p c h 9 d 2 e 5 4 R C.C.g.H.D.c.V.].4X4X7XbXvXeXqXqX7XuX2X6X'.!.Q.{.1.) j j d Z h f m ",
"V >   . p 9 . 9 p X + : d > - 1 C U 1 : o r f l 2 d 2 , r & u m.d.f.T.c.d.m.D.wXvXvXbXvX*X%X0XlX3XuX].`.Y.B..X-.S d p d m h f V ",
"D 2 X + p 1 . p 9 .   > p : + = C C 8 -   g 9 z h d 3 , r 6 7 %.&.C.D.&.&.m.T.`.bXMXmXvX2XA.&X9XlX].Q.'.(.Y.E.X.) i 1 p V x l A ",
"r.~ >   9 8 O f 8 + % 2 9 + + 8 C V 1 : % g r z m p s , < < @ 7 R m.m.W &.d.T.T.6XbXnXvX,X,X;X<XlX7X*XXXXX(.6.X.+.a i k A x f V ",
"O.6.8.A < :   9 9     & d & - > C V 2 : e g f z f e k e , , 4 4 q R =.&.( &.:.T.[.7XeX[.d.,X0XtXlXvX7X7XB._ 0.X.3.h i a G h l V ",
"S Y -.w.4.c o 9 9 : < 9 r + O + C C 1 : g r z g 2 r s s , : 9 < c m I %.W W d.T.K.2X`.=./ L.=X0XzXkX2XV.*.l p e.e.N = i C x h V ",
"Z Y ~ Y ,.8.| S A ~ O.| c   O a C C 3 : n r z t < k e , e $ : > Z A @ I J E M.T.x.].V.R L.,X<X0XzXmX4X .` C 1 1.U.G 1 p V f h C ",
"n T n n ~ #.,.} #.n z ..pX~.r & A c > k j 2 c 0 9 r e e ; $ : 2 F 1 8 5 v R 7.<.*.m.^ =.L.L.<XtXzXyXeX<.A [ : o.!.k - p C x 9 C ",
"c n n S S m ~ ~ ..#., r rXnX..n A c 1 j k j C l 0 r e $ $ , d j ' $ > 5 9 :.:.^ ;.;.%.^ V.b.v.;XzXyX>XK.A n d k { 1 p 8 x x d B ",
"A g 6 n S g n m n #.~ g S ..j #.~ U r b i c h f r y e $ ; , p p 3 3 d   l (.XX<./.K.K./ L.x.i.P.tXzXyX[.U T G i i i p 9 x h h N ",
"A y   > n m S c n e ..,.[ g < 9 U n k b s G p 0 y e e e , : - > 3 , 8 : U XX6X2XOX[.m.*.3Xc.Q n.&XzXzX>X .Y G k k i 1 p V a k j ",
"m t O O 9 f j n j 2 ~ $.o.Z c T u y g r k b g y r e , $ $ e 1 8 k X 3 9 0 `.`.XXfX4Xm.x.,Xi.s.tX<X<X%X>X:.l D k k d : 2 A p k V ",
"V f O - 9 > < j e r b S S n g ~ P y g e e k d y 9 y e $ , e 9 1 3 : 9 > @ ..6XXX6XXX_.L.>X( Q <XzXI.A.*X%.l ' j 2 s 1 > j p p N ",
"U a O @ 0 > : f f , r n f y c ~ ^ ~ S ! b b y e r r < , < e 8 - 2 : : < y + `.6X.X(.[.K.%Xv.u.v.lX&XF.].v l B b 3 i i 2 k p a N ",
"U l # O 9 2 9 c 1 X : r d 9 6 t v P ~ 8.>.$.g e r 6 , X $ 2 p 9 i 2 < r & 9 y /.;.:.].K.P.i.i.v.1X1XC.*XL < Z j s ; 3 i x a p G ",
"U l O - a 1 - k d :   r > <   7 *.M ~ 8.,.>.#.M < e e ' i p p 8 : s 3 9 % r 9 ,.X.'.(.M.D.F.L.P.:X0XT.T.l a ' H i 3 2 3 j p i G ",
"U x O - p : = d i ; X r > 4 #  .MXL.u M ! ! $.~ l o @XBX3.* - i h s 3 : r & 6 w.U.'.%.x.qX9X;X<X&X=X#X=.u C N H 3 3 3 > B p i C ",
"U l @ - a - * i d = X f & & @ (.yX>Xy 6 y , y $.& | CXr.+X$.$.i 1 2 : 2 : , r K.~.m.w V.vXtXtXtXH.S.D.K q U k H i 3 3 1 c p 1 B ",
"U v + - p > X s d : + r 5 # 6 eXyX,XL & #.>.$.y 8 E.U.i rXjXBX3.= k p 3 < , k ] 7.` w 3XmXzXtX0XF.M.=.q x x H G i 3 3 1 j d 1 B ",
"U v @ O f > * d h : + t 4 # P zX8XP.*.4 #.t...r   `.+.n jX{.3.jXi B o , k e % e T  .I vXzXtX0XI.A.=.E 7 h i G N i 1 1 - c p 2 j ",
"v C - O f 1 * d h % O t 5   ;.zX,XL.=.u 7.5.} f 8 5X| | BX' i pX X+Xt.o $ e e > g *.%.yX0X8XP.b.x.u 4 5 i k k N i - 1 5 x p 2 j ",
"v U @ O f < X d y >   u 4 # /.lX<XL.( K 8.#.T c O R.oXpXjXH i 1.+X1.+Xt.y.o d > y T / P.,XP.n.v.I 4 4 6 i N k N i 1 - 8 c p > k ",
"m m O + g > o d r > @ l 4 # 4XkX<XL.I ~ K.#.A 9 5 h W.@X!.G * 1.3.= rXhXt.$.} < y & ^ L.L.K.v.i.w 7 0 y i * i k p - 8 8 x p < j "
};
