/* XPM */
static char *_e75e9d7b7364538cc97a797332fd2faejMcfV5rXYMoXBBm[] = {
/* columns rows colors chars-per-pixel */
"64 64 240 2 ",
"   c #7C373A",
".  c #963738",
"X  c #A43937",
"o  c #B23B33",
"O  c #E61608",
"+  c #E81C13",
"@  c #E30B02",
"#  c #E82816",
"$  c #E62913",
"%  c #E73123",
"&  c #A64738",
"*  c #B54935",
"=  c #D15139",
"-  c #EA493A",
";  c #ED6A36",
":  c #9A4F50",
">  c #A94C46",
",  c #B55948",
"<  c #B4644C",
"1  c #B76E65",
"2  c #887878",
"3  c #D35D59",
"4  c #E75847",
"5  c #E55B54",
"6  c #E94742",
"7  c #C76A48",
"8  c #D4794A",
"9  c #D47652",
"0  c #C67155",
"q  c #E76856",
"w  c #F16956",
"e  c #E97757",
"r  c #EF6E53",
"t  c #D27A70",
"y  c #E56964",
"u  c #E97568",
"i  c #E97B75",
"p  c #F17B72",
"a  c #B88163",
"s  c #D88859",
"d  c #DD915D",
"f  c #F89A58",
"g  c #E69359",
"h  c #C88768",
"j  c #DC9469",
"k  c #C78B7B",
"l  c #D0906D",
"z  c #E88566",
"x  c #E59863",
"c  c #EA877A",
"v  c #E49777",
"b  c #F38E77",
"n  c #EBA667",
"m  c #F4A86A",
"M  c #F6B46D",
"N  c #E8A778",
"B  c #F2AC73",
"V  c #FDBC75",
"C  c #FABB7B",
"Z  c #F5B678",
"A  c #F2A35E",
"S  c #FDC279",
"D  c #01459F",
"F  c #004DA3",
"G  c #0054A6",
"H  c #005CAB",
"J  c #0155A9",
"K  c #0162AF",
"L  c #0A65AE",
"P  c #0064B2",
"I  c #016DB5",
"U  c #096AB4",
"Y  c #156BB3",
"T  c #0173BA",
"R  c #037ABD",
"E  c #0876BA",
"W  c #1876B9",
"Q  c #2A77B8",
"!  c #3479BA",
"~  c #797C81",
"^  c #197FC1",
"/  c #409AB8",
"(  c #5A90B4",
")  c #6D9BAD",
"_  c #6F8F9E",
"`  c #1583C3",
"'  c #2889C4",
"]  c #3A8BC3",
"[  c #3A93C9",
"{  c #25ACD4",
"}  c #33B3D6",
"|  c #01B4EE",
" . c #01B8EF",
".. c #0DB9ED",
"X. c #17BAEC",
"o. c #01B6F2",
"O. c #00B9F2",
"+. c #0CBCF4",
"@. c #01BBFB",
"#. c #01B7F9",
"$. c #13BDF2",
"%. c #1BBFF3",
"&. c #1AABE2",
"*. c #35AFE2",
"=. c #26B9E6",
"-. c #3CB7EA",
";. c #0DA6DF",
":. c #4596CA",
">. c #589AC9",
",. c #4D8DC3",
"<. c #689CCB",
"1. c #5BA4D2",
"2. c #4AACD3",
"3. c #6CABD3",
"4. c #67A7D3",
"5. c #72A9D3",
"6. c #69B4DC",
"7. c #78B5DA",
"8. c #70A0CE",
"9. c #47B5E5",
"0. c #57B8E6",
"q. c #4EA9E0",
"w. c #6DBDE5",
"e. c #66B3E1",
"r. c #76BAE3",
"t. c #03C0FB",
"y. c #09C1F6",
"u. c #1DC0F2",
"i. c #29C3F4",
"p. c #35C7F6",
"a. c #5BC1CF",
"s. c #4AC5EE",
"d. c #46CCF6",
"f. c #5CCDF4",
"g. c #55CCF4",
"h. c #53CAEF",
"j. c #69C8EC",
"k. c #78C5E8",
"l. c #63CEF3",
"z. c #6BCDF2",
"x. c #79D7F6",
"c. c #68D3F6",
"v. c #6EC7CD",
"b. c #9A948B",
"n. c #BCB58E",
"m. c #B69BA2",
"M. c #8DB3AA",
"N. c #A0BFB7",
"B. c #D49596",
"V. c #E68A85",
"C. c #EA9789",
"Z. c #F29884",
"A. c #E89996",
"S. c #F19F94",
"D. c #DAA796",
"F. c #F4A18A",
"G. c #F7BC82",
"H. c #E9A89B",
"J. c #F5A696",
"K. c #E9B899",
"L. c #EBB191",
"P. c #D6BBAA",
"I. c #ECA9A3",
"U. c #EAB6A8",
"Y. c #F4BAA7",
"T. c #ECB5B5",
"R. c #F2BEB0",
"E. c #9FC1B0",
"W. c #FDC385",
"Q. c #FAC789",
"!. c #F8CA97",
"~. c #FED397",
"^. c #EFC491",
"/. c #E8C7AD",
"(. c #F8C4A9",
"). c #FBD6A6",
"_. c #F4C9B7",
"`. c #F8D6B9",
"'. c #E7CDBA",
"]. c #FEE6B8",
"[. c #89B7DA",
"{. c #97BCDB",
"}. c #83A9CF",
"|. c #C9BBC5",
" X c #98C4DE",
".X c #AAC3D8",
"XX c #BAD4CF",
"oX c #89C8E9",
"OX c #98C7E5",
"+X c #95D4EF",
"@X c #88D7F4",
"#X c #99DDF3",
"$X c #8CCAF3",
"%X c #A4CAE2",
"&X c #A8CAE5",
"*X c #B5CBE3",
"=X c #ABD3EA",
"-X c #B4D3EB",
";X c #BAD7EB",
":X c #A8D5F4",
">X c #B5DCF4",
",X c #94E4F9",
"<X c #B6E4F8",
"1X c #B1E4F2",
"2X c #CAC7D3",
"3X c #E7C5C5",
"4X c #F7D9C5",
"5X c #F0D3CF",
"6X c #DEE0DB",
"7X c #FCE6C9",
"8X c #FDEAD3",
"9X c #F9E8DA",
"0X c #FFF2DC",
"qX c #EAE1D0",
"wX c #C4DCEC",
"eX c #C7D9E9",
"rX c #C6DEF2",
"tX c #CBE1EE",
"yX c #D8E4EC",
"uX c #CDE3F3",
"iX c #C8E7F8",
"pX c #D5E6F3",
"aX c #DAE5F3",
"sX c #DDEAF3",
"dX c #D6EDFB",
"fX c #DAEBF7",
"gX c #D6F5FD",
"hX c #E8E6E9",
"jX c #F8EBE3",
"kX c #FBF6E9",
"lX c #E2EBF4",
"zX c #E8EEF8",
"xX c #EDF1F6",
"cX c #E4F2FC",
"vX c #EDF5FC",
"bX c #E8F9FD",
"nX c #FEFBF5",
"mX c #F4FAFD",
"MX c #FEFEFE",
"NX c #F7F5F7",
/* pixels */
"O.O.O.O.O.O.O.O.O.O.O.O.O.O.O.O.O.O.O.O.O.O.O.O.O.O.O.O.O.O.O.O.O.O.O.o.O.O.O.O.O.O.O.O.O.O. .O.O.O.O.O.O.O.O.O.O.O.O.O.O.O.O.O.",
"O.O.O.O.O.O.O.O.O.O.O.O.O.O. .O.O.O.O. .O.O.O.O.O. .O.O.O.O.O.O.O.O.O.O.O.O.O.O.O.O.O.O.O.O.O.O.O.O.O.O.O.O.O.O.O. .O.O.O.O.O.O.",
"O.O.O.O.O.O.O.O.O.O.O.O.O.O.O.O.O.O.O.O.O.O.O.O.O.O.O.O.O.O.O.O.O.O.o.O.O.O.O.O.O.O.O.O.O.O.O.O.O.O.O.O.O.O.O.O.O.O.O.O.O.O.O.O.",
"O.O.O.O. .O.O.O.O.O.O.O.O.O.O.O.O.O.O.O.O.O.O.O.O.O.O.O.O.O.O.O.O.O.O.@.O.O.O.O.O.O.O.O.O.O.O.O.O.O.O.O.O.O.O.O.O.O.O.O.O.O.O.O.",
"O.O.O.O.O.O.O.O.O.O.O.O.O.O.O.O.O.O.O.O.O.O.O.O.O.O.O.O.O.O.O.O.O.O.O.O.O.O.O.O.O.O. .O.O.O.O.O.O.O.O.O. .O.O.O.O.O.O.O.O.O. .O.",
"O.O.O.O.O.O.O.O.O. .O.O.O.O.O.O.O.O.O.O.O.O.O.O.O.O.O.O.O.O.O.O.O.+.O.o.O.O.O.O.O.O.O.O.O.O.O.O.O.O.O.O.O.O.O.O.O.O.O.O.O.O.O.O.",
"O.O.O.O.O.O.O.O.O.O.O.O.O.O.O.O.O.O.O.O. .O.O.O.O.O.O.O.O.@.o.| o.o.O.o.o.O.O.O.O.O.O.O.O.O.O.O.O.O.O.O.O.O.O.O.O.O.O.O.O.O.O.O.",
"O.O.O.O.O.O.O.O.O.O.O.O.O.O.O.O.O.O.O.O.O.O.O.O.O.O.O.O.o.=.x.#X@Xz.%.@.O.O.O.O.O.O.O.O.O.O.O.O.O.O.O.O.O.O.O.O.O.O.O.O.O.O.O.O.",
"O.O.O.O.O.O.O.O.O.O.O.O.O.O.O.O. .O.O.O.O.O.O.O.O.O. . .@XMXMXMXMXkX).v.@.O.O.O.O.O.O.O.O. .O.O.O.O.O.O.O.O.O.O.O.O.O.O.O.O.O.O.",
"O.O.O.O.O.O.O.O.O.O.O.O.O.O.O.O.O.O.O.O.O.O.O.O.O.O. .@XMXnX8X7X7X).Q.S a.O.O.O.O.O.O.O.O.O.O.O. .O.O.O.O.O.O.O.O.O.O.O.O.O.O.O.",
"O.O.O.O.O.O.O.O.O.O.O.O.O.O.O.O.O.O.O.O.O.O.O.O.O.O.$.bX0X!.W.W.C W.C A n. . .O.O.O.O.O.O.O.O.O.O.O.O.O.O.O.O.O.O.O.O.O.O.O.O.O.",
"O.O.O.O.O. .O.O.O.O.O.O.O.O.O. .O.O.O.O.O.O.O.O.O.O.s.MX~.M V Z C V V g s u.O.O.O.O.O.O.O.O.O.O.O.O.O.O.O.O.O.O. .O.O.O.O.O.O.O.",
"O.O.O.O.O.O.O.O.O.O.O.O.O.O.O.O.O.O.O.O.O.O.O.O.O.| l.kX/.P.'.W.V /././.d } O.O.O.O.O.O.O.O.O.O.O.O.O.O.O.O.O.O.O.O.O.O.O.O.O.O.",
"O.O.O.O.O.O.O.O.O.O.O.O.O.O.O.O.O.O.O.O.O.O.O.O.+.#.f.0X1 : : 0 x : : h v { t. .O.O.O.O.O.O.O.O.O.O.O.O. .O.O.O.O.O.O.O.O.O. .O.",
"O.O.O.O.O.O.O.O. .O.O.O.O.O.O.O.O.O.O.O.O.O.O.O.@.{ XXK.7 b.j j M l b.j n M.;.t.O.O.O.O.O.O.O.O.O.O.O.O.O.O.O.O.O.O.O.O.O.O.O.O.",
"O.O.O.O.O.O.O.O.O.O.O.O.O.O.O.O.O.O.O.O.o.O.O.O.t._ b 4XZ ~.Z (.~.S Q.].^.; / t.O.O. .O.O.O.O.O.O.O.O.O.O.O.O.O.O.O.O.O.O.O.O.O.",
" .O.O.O.O.O.O.O.O.O.O.O.O.O.O.O.O.O.O.O.O.O.O.O.@.{ U.jX0 g 7 0 z n x ^.m h $.O. .O.O.O.O.O.O.O.O.O.O.O.O.O.O.O.O.O.O.O. .O.O.O.",
"O.O.O.O.O.O.O.O.O.O.O.O.O.O.O.O.O.O.O.O.O.O.O.O.O.O.XX0X, 0 s 9 N C x 7 f E.@.O.O.O.O.O.O.O.O.O.O.O.O.O.O.O.O.O.O.O.O.O.O.O.O.O.",
"O.O.O.O.O.O.O.O.O.O.O.O.O.O.O.O.O.O.O.O.O.O.O.O.O.O.h.nXx = 0 j s x C m A N.p.O.O.O.O.O.O.O.O.O.O.O.O.O.O.O.O.O.O.O.O.O.O.O.O.O.",
"O.O.O.O.O.O.O.O.O.O.O.O.O.O.O.O.O.O.O.O.O.O.O.O. . .=.MXK.& s v N C M g a &.O.O.O.O.O.O.O.O.O.O.O. .O.O.O.O.O.O.O.O.O.O.O.O.O.O.",
"O.O.O.O.O.O.O.O.O.O.O.O.O.O.O.O.O.O.O.O.O.O.O.O.O.O.o.<XjXa 0 Q.~.m 9 = ) t. .O.O.O.O.O.O.O.O.O.O.O.O.O.O.O. .O.O.O.O.O.O.O.O.O.",
"O.O.O.O. .O.O.O.O.O.O.O.O.O.O.O.O.O.O.O. .O.O.O.O.O.o.,X_.1 1 > , 7 , f a.O.O.O.o.O.O.O.O.O.O.O.O.O.O.O.O.O.O.O.O.O.O.O.O.O.O.O.",
"O.O.O.O.O.O.O.O.O.O.O.O.O.O.O.O.O.O.O.O.O.O.O.O. .+.| ,X(.& .   & 8 s W.2.y.+.O.O.O.O.O.O.O.O.O.O.O.O.O.O.O.O.O.O.O. .O.O.O.O.O.",
"O.O.O.O.O.O.O.O.O.O.O.O.O.O.O.O.O.O.O.O.O.O.O.O. . .X.gXD.& > . 8 7 C W.E.@. .O.O.O.O.O.O.O.O.O.O.O.O.O.O.O.O.O.O.O.O.O.O.O.O.O.",
"O. .O.O.O.O.O.O.O.O.O.O.O.O.O.O.O.O.O.O.O.O.o.o.u.x.rXcXD.. . 7 n n ~.^.8XiXg.+.o.o.O.O.O.O.O.O.O.O.O.O.O.O.O.o.O.O.O.O.O.O. .O.",
"O.O.O.O.O.O.O.O. .O.O.O.o.O.O.O.O.O.o. .o.O.i.#XxXMX-Xr.;X2X|.5XqX9XjXMXmXxXMXcXx.i.$.o.o.o.o.o.O.O.O.O.O.O.O.O.O.O.O.O.O.O.O.O.",
"O.O.O.O.O.O.O.O. .O.o.O.O.O.o.o.o.+.l.#XiXgXNXMXzXcXmXzXpXgXmXmXMXMXMXMXmXMXMXMXMXMXmXdX<Xf.O.o.O.o.O.o.O.O.O.O.O.O.O.O.O.O.O.O.",
"O.O.O.O.O.O.O.O.O.O.O.O.O.O.O.o.f.cXMXMXMXMXmXvXmXMXMXMXMXMXMXnXMXMXMXMXMXMXMXmXmXMXMXMXMXNXdXp.O.O.O.O. .O.O.O.O.O.O.O.O.O.O.O.",
"O.O.O.O.O.O.O.O.O.O.O.O.O.O.o.@XMXxXxXmXmXmXMXMXMXMXMXMXMXMXMXMXMXMXMXMXMXMXMXMXMXMXMXMXMXmXlXzXd.O.O.o.O.O.O.O.O. .t. .O.O.O.O.",
"O.O.O.O.O.O.O.O.O.o.O.O.O.o.f.NXpXcXcXvXmXMXMXMXMXMXMXMXMXMXMXMXMXMXMXMXMXMXMXMXMXMXMXMXMXMXmXaXfX$.O.o.O.O.O.O.O. . .O.O.O.O.O.",
"O.O.O.O.O.O.O.O.O.O.o.O.O.o.dXzXdXjXqX7X`.).8XMXMXMXMXMXMXMXMXMXMXMXMXMXMXMXMXMXMXMXmXMXMXMXMXvXxXx.o.+.O.O.O.O.O.O.O.O.O.O.O.O.",
"O.O.O.O. .O.O.O.O.O.O.O.o.p.MXlX3X`.~.!.!.S V 7XMXMXNXY.(.Y.jX4XY.Y.4XMXMXMXMXMXMXzXuXMXMXMXMXMXNX<Xo.O.O. .O.O.O.O.O.O.O.O.O.O.",
"O.O.O.O.O.O.O.O.O.O.O.+.o.g.MXmXP.l N L.F.C V M ).MXMXV.p u _.V.p p 4XY.Y.R.4XMXmX:X>XMXNXNXMXMXmXiX+.o.O.O.O.O.O.O.O.O.O.O.O.O.",
"O.O.O.O.O.O.O.O.O.O.O.O.o.c.MXsXdX2X1 h N !.`.8X8XNXMXT.4 q z y q r MXV.- - J.`.6X}.k G.!.).`.sXcXiX+.O.o.O.O.O.O.O.O.O.O.O.O.O.",
"O.O.O.O.O.O.O.O.O.O.O.O.o.<XxXP.MXMXR.3XnXkX0XkXMXnXkXH.- V.% q c - MX3X$ 4X7X~.V m 8 A ).).S ^.eXiXp. .O.O.O.O.O.O.O.O.O.O.O.O.",
"O.O.O.O.O.O.O.O.#.O.o.o.%.zXnXkXkX8X9X`._.!.(.7X`.Y.8Xe # v O r q O `.c O (.C.b k h N n W.Q.W.W.n 2Xf.| O.O.O.O.O.O.O.O.O.O.O.O.",
"O.O.O.O.O.O.O.O.O.O.o.O.X.vXMX/.m K.u c i c p R.T.u _.V.y Y.c U.c y (.A.q Y.A.V.mXgXmXhX`.Q.S Q.n Z f.o.+. .O.O.O.O.O.O.O.O.O.O.",
"O.O.O.O.O.O.O.O.O.O.O.O.o.1Xv * Z C.# Z.jXT.5 Z.T.w 4X5XF.b Z.`.mXI.b Z.L.9XR.F.U.Z.S.hXcXmXqX!.C M =.@.O.O.O.O.O.O.O.O.O.O.O.O.",
"O.O.O.O.O.O.O.O.O.O.O.o.@.M.o > M V.+ p MXMX5XjXI.6 _.y 5 I.5 e 5Xq c V.- J.V.- u 4 # '.dXsXmXhXW.n.@.@.O.O.O.O.O.O.O.O.O.O.O.O.",
"O.O.O.O.O.O.O.O.O.O.O. .@.2 X X h c O p MXNXR.9XI.% Y.5 4 C.4 q jXc b c % J.c % nXc + 4XbXtXyXmXqXM.@.O.O.O.o.O.O.O.O.O.O.O.O.O.",
" .O.O.O.O.O.o.O.O.O.O.o.t.~ o & s A.+ q 0XH.@ e H.+ Y.6 4 5XC.C.I.O c C.+ F.i $ kXV.$ 4XMXlXeXsXMXOX .O.O.O.o.o.O.O.O.O.O.O.O.O.",
"O.O.O.O.O.O.O.O.O. .o.| @./ * > < D.6 # # # + J.A.@ /.5 # r + 4 T.O ; q O F.i O kXi O _.bXNX;X-XxXnXl. .O.O.O.O.O.O.O.O.O.O.O.O.",
"O.O.O.O.O.O.O.o.+.d.d.g.d.s.> . & < B.i c V.m. X|.S.jXhXB.A.J.5X:XI.S.3XB.H.B.t yX3XA.6XfXxXpX=XyX=XtXy.o.O.#.o.O.O.O.O.O.O.O.O.",
"o.O.O.O.O.O.O.$.@X6.1.:.>.OX9Xv e 9 s D.) 6.0.q.$X:X[ 7.cX<Xq.6.-X>Xq.r.>Xm.0 3 ( @X<XiXcXxXnXpX7.I [.@Xy.O.O.O.O.O.O.O.O.O.O. .",
"O.O.O.O.O.O.o.g.,.R ' [ T T zXmX.X.X=X;X>X-X{.aXeX XI W nX3.P T fXOXP 1.zX:XOX.X&X>XuX-X&X%X-XNXoXR  XpXOX+Xy.O.O.O.O.O.O.O.O.O.",
"O.O.o.O.O.O.#.l.Y U fXMX4.T eX:.P E T I lX4.P ] I OX' W aX:.R T -X[.I =X%XP ^ ` T [.wXR ' ' I  XOXR :.` I ,.c.O.O.O.O.O.O.O.O.O.",
"O.O.O.O.O.o.O.j.U L lXMXMXmXMXOX5.lX3.P =X5.I [ 3.sX:.I %X' ' T 7.1.T pXwX3.wX&XT 7. XT 7.;X7.sX XK 3.;XH Q c.o.O.O.O.O.O.O.O.O.",
"O.O.O.O.O.O.O.j.Y L xXMX&X5.aX<.Y / Q P &X3.P *XMXMX7.T >.E [.' ] ] ^ MXOX' :.:.T 4.pX' E I U {.[.D [.MXK ! z.o.O.O.O.O.O.O.O.O.",
"O.O.O.O.O.O.o.z.Q H [.eXW D {.K Y aX,.G &X<.F %XMXMX%XH U K eX] P P ] MXQ G -X[.F >.rX<.*X{.G >.[.F }.vXK Q l.o.O.o.O.O.O.O.O.O.",
"O.O.O.O.O.O. .p.8.J H G H ! zXQ H ! Q F *X8.D &XMXMXlXL H Y MX8.G J }.MX>.G Q ! J <..XF L U F [.[.F }.mXG Q l. .O.O.O.O.O.O.O.O.",
"O.o.O.O.O.O.O.o.g.k.w.w.r.z.d.k.e.k.oXe.#XoX6.@Xp.i.d.r.6.k.d.z.7.r.z.i.z.r.w.+Xr.{.pX%XOX X%XNXhX*XpXcX.X;Xx.o.O.O.O.O.O.O.O.O.",
"O.O.O.O.O.O.O.O.O.O.@.y.O.O.O.O.y.t.O.y.o.O.y.O.o.o.#.O.y.O.o.O.y.@.O.O.O.y.t.-.w.9.=XlXlXzXsXiX>X@Xh.%XsXNX;Xo.O.O.O.O.O.O.O.O.",
"O.O.O.O.O.O.O.O.O.o.O.O.O.O.O.O.o.O.O.o.O. .O.O.O.O.O.O.O.o.O.O. .o.O.O.O.O.O.k.oXoXoX$Xk.9.*.&.;.9.oX=XuXyXhX%.O.O.O.O.O.O.O.O.",
"O.O.O.O.O.O.O.O.O.O.O.o.O.O.O.O.o.O.O.O.O.O.o.O.O.O.O.O.O.O.O.O.O.O.O.O.O.O.$.>XrX:X$Xe.0.*.*.9.>XMXuXOXtXyXyXs.O.O.O.O.O.O.O.O.",
"O.O.O.O.o.O.O.o. .O.O.O.O.O.O.O.O.O.O.O.O.O.O.o.O.O.O.O.O.O.O.O.O.o.O.O.O.O.p.:Xk.k.w.w.j.7.OX=XlXnXlXOX;XyXhXh.O.O. .O.O.O.O.O.",
"O.O.O.O.@.o.O.+.O.o.O.O.O.O.O.O.O.O.o.O.O.O.O.O.O.O.O.O.O.O.O.O.O.O.O.O.O.O...-.e.oX=XwXtXuXsXpXlXnXxX=XwXlXyX%.O.O.O.O.O. .O.O.",
"O.O.O.O.O.O.O. .O.O.O.O.O.O.O.O.O.O.O.O.O.O.O.O.O.O.O.O.O.O.O.O.O.O.o.O.O.O. .0.$X-XuXlXlXlXlXlXxXNXMXoXl.f.%.O.O.O.O.O.O.O.O.O.",
"O.O.O.O.O.O.O.O.O.O.O.O.O.O.O.O.O.O.O.O.O.O.O.O.O.O.O.O.O.O.O.O.O.O.O.O.O.O.o.X.0.+X>XtXyXsXpXsXlXlX#XO.| o.O.O.O.O.O.O.O.O.O.O.",
"O.O.O.O.O.O.O.O.O.O.O.O.O.O.O.O.O.O. .O.O.O.O.O.O.O.O.O.O.O.O.O.O.O.O.O.O.o.O.O.@.O.O.$.y.u.u.u.X.O.o.O.o.O.O.O.O.O.O.O.O.O.O.O.",
"O.O.O.O.O.O.O.O.O.O.O.O.O.O.O.O.O.O.O.O.O.O.O.O.O.O.O.O.O.O.O.O.O.o.o.O.O.O.O.O.O.O.O.O. . .O.O.O.O.O.O.O.O.O.O.O.O.O.O.O.O.O.O.",
"O.O.O.O.O.O.O.O.O.O.O.O.O.O.O.O.O.O.O.O.O.O.O.O.O.O.O.O.O.O.O.O.O.O.O.O.O.O.O.O.O.O.O.O.O.O.O.O.O.O.O.O.O.O.O.O.O.O.O.O.O.O.O.O.",
"O.O. .O.O.O.O.O.O.O.O. .O.O.O.O.O.O.O.O.O.O.O.O.O.O.O.O.O.O.O.O.O.O.O.O.O.o.O.O.o.O.O.O.O.O.O.O.O.O.O.O.O.O.O. .O.O.O.O.O.O.O.O.",
"O.O.O.O.O.O.O.O.O.O.O.O.O.O.O.O.O.O.O.O.O.O.O.O.O.O.O.O.O.O.O.O.O.O.O.O.O.O.O.O.O.O.@.o.O.O.o.O.O.O.O.O.O.O.O.O.O.O.O.O.O.O.O.O.",
"O.O.O.O.O.O.O.O.O.O.O.O.O.O.O.O.O.O.O.O.O.O.O. .O.O.O.O.O.O.O.O.O.O.O.O.O.O.O.O.O.O.o.O.O.O.O.O.O.O.O.O.O.O.O.O.O.O.O.O.O.O.O.O."
};
