/* XPM */
static char *north[] = {
/* columns rows colors chars-per-pixel */
"64 64 58 1 ",
"  c black",
". c #6F533A",
"X c #795737",
"o c #7A5737",
"O c #70533A",
"+ c #70543B",
"@ c #72543A",
"# c #795738",
"$ c #775A3F",
"% c #785A3F",
"& c #785B3F",
"* c #7F5C3D",
"= c #785B40",
"- c #7B5D41",
"; c #815F3D",
": c #825F3D",
"> c #82603E",
", c #83603E",
"< c #836647",
"1 c #9C7B61",
"2 c #9D7C60",
"3 c #9F7E62",
"4 c #A07E61",
"5 c #A07F61",
"6 c #A28166",
"7 c #A58467",
"8 c #A78567",
"9 c #AB8962",
"0 c #AD8961",
"q c #A88768",
"w c #A98868",
"e c #B18D66",
"r c #B18E66",
"t c #B39067",
"y c #B49067",
"u c #B59267",
"i c #B79564",
"p c #B69368",
"a c #B9956C",
"s c #B9966C",
"d c #BA976C",
"f c #BB976D",
"g c #BC9B6A",
"h c #BE9B6A",
"j c #BD9C6A",
"k c #BF9D6A",
"l c #BE9D6B",
"z c #BC986D",
"x c #BD9A6D",
"c c #BE9B6D",
"v c #C3A070",
"b c #C3A270",
"n c #C5A270",
"m c #C6A371",
"M c #C7A570",
"N c #C7A471",
"B c #C7A571",
"V c #C8A671",
/* pixels */
".......OXXXXOOOO....X#XXXXXX...............OXXXXXooXOOO.........",
".......OXXXXOO......##XXXXXX.O.............OXXXXoooXOOO.........",
"......OOXXXXO.....++####XXXXOOOO........OO++XXXXoXoXOOO+........",
"...+$===::::====-%--**:*::::--%-$%==$$$$%-%%::::::::%-%%====....",
"...$9tttyyyyytttyyy04114rryyyyyytyyw2223rryyrprpryyyyyprttt0=...",
"...=tzzzzzzzzzzzzzzf884qffzzzzzzzzzd6668fzzzzzzzzzzzzzzzzzzr=...",
"...=tzzzzzzzzzzzzzff844qdzzzzzzzzzzdq666fzzzzzzzzzzzzzzzzzzp=...",
"...=tzzzzcczzzzzfffzw6qwffzzzczczzzzq6q8zczczczfcczczzzczzzr=OO.",
"...$tzzzVVBBmBmVVNmmddzzBBBBBVVVBVBBjdddVBmVVVNmVmmVVmmmzzzy>ooX",
"...-tdccVVVVVVVVVVVVffzfmVVVBVVVBVBBzzdzVBVVVVVVVVVVVVVmzzzy>XXX",
"...&tzzcBVVVBBVVVVVVffffmBBBVVVVVVBBczzcBVVVVVVVVVVVVVVVzzzy,oXo",
"...&tzczBBVVjhhhkkkhrppijjjhhhjjjjjfyyyyhkjhkkkkhhhhVVVmzzzp>ooo",
"...&tzzzVVVj<---:,,,::>>----%-&&----%>,>::,,,,:,---<kVVVzzzy>XXX",
"...-yzzzmVVj-+..XXXXXXXXO...O+++....XXooXXooooXXOOO-hmVVkzzr>XXX",
"...$yzzzVVVj-O..XXXXXXXX....++++....oXoXXooooooX..O-hVVmfcdr:oXo",
"...=yzzzmVVj-+++::::>>>>-%----%-----,,,,,,,,::::O..-hVmNffdr:XXX",
"...=tzzzVVVk:Xo:rrpphhkkjjjjjjjjjjjjkkkkkjjjyyy0:XX:rfzzwqq5=+++",
"...$tzzzmVVk:Xo:rfzzVVVVVVVVVVVVVVVVVVVVVVVBczzy:XX:pzzdq652+..+",
"...-pzzzmVVk:Xo:rcfcVVVVVVVVVVVVVVVVVVVVVVVBcczy:XX:tzzd6662=...",
"...=y zzV Vk   :p    VV     V VVV VVVVVVVVBBczzy:XX:tzzdq6q4=...",
"XXX:t  zm V ,oX h NVV VVV VVV VVV VVVVVVVVVVVVVj-O.-hBBmfddr=+..",
"XXX:y  cm V ,XX h VVV VVV VVV VVV VVVVVVVVVVVVVj-..=hBVBfddy=+..",
"XXX>t z m V ,oX k VVV VVV VVV VVV VVVVVVVVVVVVVj-..-jBBBfffy=...",
"XXX>r d N V ,oX k    VVVk jjk     kkjjjkVVVVVVVj-..-jBVBzffe=...",
"XXo:4 8q  z :XX k V VVVj< --, ,,, ,>-&-<jVVVVVVj-..-hVVmzzzp:oo#",
"XXX:2 67  z :XX k VV VVj- OOo XoX oo+++-jVVVVVVj%..-hVVmzzfy>#XX",
"XXX:2 6qz z :## k VVV Vj% OOX oXX XXO++&jVVVVVVj-.O-hVVmczzp,oXo",
"XXX:4 qwz dp   :k VVV Vj- ++, ,:, ,,+++-jVVVVVVj-.O-jVVVzzzp:ooo",
"..O=rdfzmmVh-..-hVVVVVVk>Xo,ijkkkkki:XX>vBMVVVBj%..-hVVmzzzy:XXX",
"OO.%rdzfmVVj-..-hVVVVVVk,Xo,kVVVVVVk,XX,jVVVVVVj-..-hVVVzzzr:XXX",
"...%rfffVVVj-..=hVVVVVVk>oo,kVVVVVVk,XX,jVVVVVBj&..-hVMVzzfr:oXo",
"...%pdffmVVh-..-jVVVVVVk,Xo,kVVVVVMh,XX,jVVVBBBj-..-hmVVzzfr:XXX",
"...=pzzzBVVj-.O-jVVVVVVk:oX:kVVNfzhr:oo,kVVVffzp:o#:pzzzwwq4=...",
"...=yzzcBVVj-..=jVVVVVVk:oo:kVVVzzkr:oo,kVVmcffp:o#,yzzzq462=O..",
"...-yzzzBVVj-.O-jVVVVVVj,oX:kVVVczzr,oo,kVVVczzr:o#:yzzyq442=...",
"...-tzzzBVBd-.O-jVVVVVVj,oX:ikkhyyyr:oo,hVVmzzzp:oo:pzcfqq64=...",
"oo#>pzzzBBBj-OO%jVVVVVVj-OO@,,,,:::<@OO:jVVVzzfy:oo,hVmndade=...",
"ooX>tzzzBBVj-OO=jVVVVVVh-O+@#oXXXXX#+OO=hVVVczzr:oo,kVVVfdde=...",
"XXX>pzzzBBVj-OO-jVVVVVVj-OOO##ooXX##OOO-hVmBczzp:oo,kVVmffap=...",
"XXX:0zpdBBBj-OO:jVVVVVVh<---,,,,::::-=-<hVVBczdp:oo,kVVVffde=...",
"XXX:27qqffhp:Xo:kVVVVVVBckkhkkkkhkkkhhhhVVVVczzr:oo:kVVNzzzp:###",
"XXX:2448fffr:oo:kVVVVVVVVVVVVVVVMVVVVVVVVVVBzzcp:oo:kVVNczfr:o##",
"Xoo:4647fffp:oo:kVVVVVVVVVVVVVVVVVVVVVVVVVVmczzy:oX:kVVNczzp:o##",
"XXo:277qfzfr<oo:jVVVVVVVVVVVVVVVVVVVVVVVVmVmczdy:oX:kVVNzzzf:XXX",
"oo#:edddmmVh:XX:pczcVVVVVVVVVVVVVVVVVVVNdfkzzzcy:oo:kVVNzffp:ooo",
"o##:pdzdNVVk:XX:yzzzmVVVVVVVVVVVVVVVVVVVzzzzzzzy:oo,kVVVczfr:ooo",
"oo#:pzffVVVk,oX:pzfzmVVVVVVVVVVVVVVVVVVVzzzzzzzr:oo,kVVmzzfr:ooo",
"###>pzffVVVk,o#:rrrphkkjkkkkkkkkkkkkkkkhyyyyprp0:oo:hmmmzzdr:XXX",
"OOO=yfzzVVVj-@@.::,,>>,,,,,,,,,,,,,,,,,:::::>>>>#+O=eccfqq85=...",
"OOO=yfzzVVVj-O@.ooXoXXoooooooooooooooooooooXXooo.++=pzczq461=...",
"OOO=pfzzVVVj=@..XoooXXXoooooooXXooooooXXooXXXXooOOO=efdd4842=...",
"OOO=pzzcVVVz<--=::<,,,,,::::::::,,,,,,::::>>>>,>---<pffdqq64=...",
"...=rdzcBVVVcjjjcjjkzzvzyypykkkkkkkkkkkhyyyizjjjhhhhmmVmzzpw=...",
"...=pfzzBVVVBBVVVVVVVVBmfhzzVVVVVVVVVVVmzzzzBBVVNNVVBVVmzzzp=...",
"...=effzmBBVVVVVBBBBVVBmzzzzVVVVVVVVVVVVzdzcBBVBVVVVVBVBzzzy=...",
"...=pdfzBBBBVBVVBBBBBVBvzzzkVmVmNNVVVmmNddfzBBVBVNVmVBBmzzfq=...",
"...=yzzfddzzczczjczzwwq8zzzzzzzzffzcczcz86qwzzzzcczzzzzzzzfp=...",
"...=yzzfzfzzzczzzzzzw228dzzzzzzzzzzzzzzf8666zzzzzzzzzzzfzzfy=O..",
"...$yzdfzfffzzzzzzzy8448ddzzzzzzzzzzzzzf6666zzzzzzzzzzdfzdfy-...",
"...-9yprpyyyppeiyyyr44240ryyytpryyyyrprr33329tttyyyyypprpppq$...",
"....$=======::::::::===$-=%-%-%=::::::::=$.-*%%%,,>>=======%##XX",
"........OOOO##XXXXXX....++..OO..Xooooooo.....++OXoXXO.O.OOOO##XX",
"........OOOOXXXXXXX#........OOOOXXoooooX......OOXXXXO...OOOOXXXX",
"........OOOOXXXXXXXO........OOOOXooooooX......++XXXXO.....OOXXXX"
};
