/* XPM */
static char *d6f188c8a2104bbc8e361b65ef3b7aeel3HyTlzDBhdtF4BG[] = {
/* columns rows colors chars-per-pixel */
"64 64 248 2 ",
"   c #020101",
".  c #090300",
"X  c #01020D",
"o  c #0E0E0E",
"O  c #020704",
"+  c #1D0D00",
"@  c #150D03",
"#  c #0A1206",
"$  c #181100",
"%  c #020012",
"&  c #0B0F12",
"*  c #0B0619",
"=  c #120B17",
"-  c #370C00",
";  c #5F3602",
":  c #72471D",
">  c #6B4738",
",  c #7D4F39",
"<  c #7B5749",
"1  c #6E5146",
"2  c #9A6F3A",
"3  c #AE7838",
"4  c #875928",
"5  c #895648",
"6  c #976655",
"7  c #886755",
"8  c #AB7845",
"9  c #B17948",
"0  c #B77E57",
"q  c #A6715F",
"w  c #9A7567",
"e  c #897367",
"r  c #A87A68",
"t  c #B47B69",
"y  c #A77A6D",
"u  c #B78934",
"i  c #CB9D3B",
"p  c #C49736",
"a  c #CB9A35",
"s  c #D6A93B",
"d  c #D3A73B",
"f  c #E4B23F",
"g  c #B8864A",
"h  c #BE934A",
"j  c #B78357",
"k  c #B88D57",
"l  c #BBA05D",
"z  c #9D8579",
"x  c #A9836C",
"c  c #B98569",
"v  c #AB8373",
"b  c #AE8974",
"n  c #A9877A",
"m  c #B28C75",
"M  c #B88776",
"N  c #B8947B",
"B  c #BE9666",
"V  c #C28D49",
"C  c #CD9B43",
"Z  c #C79649",
"A  c #D09F45",
"S  c #C69455",
"D  c #CB9555",
"F  c #CBA349",
"G  c #D5A444",
"H  c #D4A945",
"J  c #DAAB45",
"K  c #D8A74A",
"L  c #D4AA4C",
"P  c #DBAB4D",
"I  c #D6A44A",
"U  c #DDB24D",
"Y  c #DDB144",
"T  c #CDA555",
"R  c #DEAD51",
"E  c #D4AA53",
"W  c #DDB153",
"Q  c #DAB55C",
"!  c #E1B34D",
"~  c #E7BA49",
"^  c #F1BF4C",
"/  c #E0AF52",
"(  c #E0AE59",
")  c #E2B253",
"_  c #E2B45A",
"`  c #E4BC5C",
"'  c #EABB54",
"]  c #C2886A",
"[  c #C7966A",
"{  c #C38A79",
"}  c #C79679",
"|  c #CBA566",
" . c #D3AC65",
".. c #D5B76A",
"X. c #CFA777",
"o. c #D8B977",
"O. c #CFB27D",
"+. c #E8BD64",
"@. c #EFC457",
"#. c #F5C95B",
"$. c #FDCE5C",
"%. c #F6C855",
"&. c #FBD55D",
"*. c #F1C14D",
"=. c #DDC27D",
"-. c #DDCA67",
";. c #E9C468",
":. c #F7C865",
">. c #EBD56A",
",. c #FFD66A",
"<. c #F7D766",
"1. c #EBD978",
"2. c #F7D378",
"3. c #F1CC73",
"4. c #968D83",
"5. c #9C958B",
"6. c #9A948A",
"7. c #9D9991",
"8. c #B78D82",
"9. c #A1998E",
"0. c #AD998C",
"q. c #BD9A85",
"w. c #BB948B",
"e. c #BD9E8B",
"r. c #B79585",
"t. c #A39C92",
"y. c #AC9893",
"u. c #BB9D91",
"i. c #B79A94",
"p. c #A08981",
"a. c #ACA59B",
"s. c #AAA399",
"d. c #B6A294",
"f. c #BCA294",
"g. c #B8A79C",
"h. c #BFA28D",
"j. c #AEABA4",
"k. c #B3ADA4",
"l. c #BCABA2",
"z. c #BBB4A9",
"x. c #B7B3AA",
"c. c #BDBAB4",
"v. c #C29C86",
"b. c #C39B8A",
"n. c #C59789",
"m. c #C49D94",
"M. c #C49D95",
"N. c #C4A28B",
"B. c #CBA58C",
"V. c #C7A58A",
"C. c #D6B887",
"Z. c #C4A495",
"A. c #CBA493",
"S. c #CBAA93",
"D. c #C4A39A",
"F. c #CAA59B",
"G. c #C4AA9A",
"H. c #CCAB9C",
"J. c #C6A996",
"K. c #D3AD9D",
"L. c #D1AA92",
"P. c #D7B69A",
"I. c #CFB291",
"U. c #CCABA3",
"Y. c #C5AAA4",
"T. c #D2ADA4",
"R. c #C4B3AB",
"E. c #CBB5A8",
"W. c #D4B3A4",
"Q. c #D3B6AB",
"!. c #D3BBAD",
"~. c #DCBCAC",
"^. c #DABAA6",
"/. c #C7BBB4",
"(. c #D7BBB2",
"). c #E0BAAD",
"_. c #DAC486",
"`. c #DCCF91",
"'. c #E4C886",
"]. c #E9D987",
"[. c #EAD395",
"{. c #F1E394",
"}. c #C7C4BB",
"|. c #D7C4B9",
" X c #D8CDAB",
".X c #F1D8AB",
"XX c #E1C7B9",
"oX c #E7D4AB",
"OX c #F6EAAE",
"+X c #CECBC4",
"@X c #D8CAC5",
"#X c #D9D1CB",
"$X c #DCDAD5",
"%X c #E7D7CD",
"&X c #E3D9D4",
"*X c #E4DAD7",
"=X c #F1DFD3",
"-X c #F5EBC7",
";X c #FEF5C7",
":X c #E9E5DA",
">X c #F3E4DA",
",X c #FFFEDB",
"<X c #FEF9D4",
"1X c #ECF1DA",
"2X c #D6DDE2",
"3X c #DEE3E7",
"4X c #DDE4E9",
"5X c #DFE9EB",
"6X c #E2E7EB",
"7X c #E3E9ED",
"8X c #EBEBEA",
"9X c #EAE6E2",
"0X c #F7ECE6",
"qX c #FEFEE4",
"wX c #FDF3EB",
"eX c #FEFDEC",
"rX c #F5F6EA",
"tX c #E6EDF3",
"yX c #EBECF5",
"uX c #F4ECF5",
"iX c #EBF1F6",
"pX c #EDF5FB",
"aX c #EEFBFE",
"sX c #EAF3F5",
"dX c #F1F2F1",
"fX c #FBF5F4",
"gX c #F5FDF4",
"hX c #F9FAF5",
"jX c #FFFEF6",
"kX c #FEFBF4",
"lX c #F4F5FE",
"zX c #FAF4FE",
"xX c #F2FAFE",
"cX c #F3FCFF",
"vX c #F5FDFF",
"bX c #F5FEFE",
"nX c #F4FCFE",
"mX c #FBFBFB",
"MX c #F9FBF8",
"NX c #FAFEF9",
"BX c #FFFFFA",
"VX c #FEFFFB",
"CX c #FDFEF9",
"ZX c #F9FEFE",
"AX c #FDFDFD",
"SX c white",
"DX c #FEFFFD",
"FX c #FCFDFD",
/* pixels */
"              & 3X7XtXiXaXxXtX2X5X5X5XpXaXvXZXZXNXNXBXBXkXBXBXBXCXSXSXBXSXBXhXhXSXBXZXSXNXNXSXBXmXSXSXmXAXSXmXdXo               ",
"            X & 3X7XyXiXaXxXiX4X4X5XsXaXvXvXSXZXZXNXNXBXBXBXBXBXhXdXdXmXBXZXSXZXSXNXBXSXBXSXBXNXmXSXSXmXAXSXmXdXo               ",
"            O & 2X7XtXiXaXcXpX5X2X5XxXvXZXvXZXZXNXbXBXBXBXBXBXBXSXBXhXNXNXBXBXNXNXhXhXBXBXNXNXdXmXSXSXmXAXAXCXdXo X             ",
"      .       & 2X6XiXiXaXcXaXiX$X7XvXZXvXcXbXZXNXNXBXNXBXBXBXBXBXBXNXBXSXBXBXSXBXNXhXBXSXBXgXhXSXSXSXmXCXSXmXyXo               ",
"            X & 2X7XiXiXpXvXvXaX2XtXcXvXZXnXvXZXNXNXBXBXBXBXBXBXdXNXBXNXhXdXNXBXBXBXNXBXSXBXkXhXmXSXSXmXCXSXCXdXo               ",
"              & 2XyXpXpXpXnXnXxX4XtXcXvXZXvXZXZXZXNXNXBXkXBXBXBXkXBXBX8X$X+X$X:XhXkXBXBXBXBXBXBXmXSXSXmXAXSXhXdXo       O       ",
"      .       & 6XyXlXpXpXcXnXcXtXtXaXvXZXvXZXNXmXNXBXBXBXBXBXBXBXkX2X+Xc.x.c.c.$X9XkXBXBXkXBXBXmXSXSXmXAXSXmXdXo               ",
"            X & 3XyXxXaXpXxXnXxXtXsXsXcXZXZXZXbXvXNXNXBXBXBXBXBXkX$Xx.7.j.x.c.c.}.$XhXBXkXBXkXBXBXSXSXmXAXSXmXyXo O             ",
"      .     O & 6XiXxXlXpXxXcXaXpXpXpXaXgXvXZXZXSXZXBXBXkXhXBXSX#Xx.7.t.a.k.k.x.}.c.}.qXjXjXeXBXCXSXSXmXSXSXCXdXo X             ",
"            X & 7XiXxXpXpXcXcXpXpXpXgXaXcXvXZXZXZXNXNXhXBXBXfXrXk.7.4.7.a.a.j.k.c.c.}.:XjXjXkXkXCXSXSXmXCXSXzX8Xo               ",
"            X & 6XiXnXxXpXxXnXaXaXpXaXcXcXvXZXNXZXSXhXhXBXBXdX+X6.4.4.7.s.s.a.a.x.z.c.}.:XjXkXkXCXAXSXmXAXSXmXdXo               ",
"              & 6XdXcXpXpXxXcXlXaXaXgXcXnXvXZXvXMXNXhXhXBXBX$Xj.6.6.7.7.9.9.9.s.a.x.z.z.#XjXkXwXCXSXSXmXAXSXCXdXo .             ",
"              & 7XiXxXxXaXxXcXaXcXcXcXcXvXvXNXbXMXbXhXhXNXgX+X7.6.7.9.5.6.6.9.t.a.z.k.a.}.,XjXeXCXSXSXmXAXSXmXyXo               ",
"            X & 7XyXxXpXpXxXcXpXvXvXvXcXvXvXvXbXvXhXhXBXNX9Xc.7.5.7.7.z z 9.t.s.a.z.z.a.R.:XjXkXkXAXSXmXAXSXmXdXo       O       ",
"            X & 6XyXxXpXpXcXcXaXvXvXvXvXZXvXZXmXZXhXgXBXBX#Xj.s.9.s.9.5.9.a.a.a.a.z.z.x.z.$XqXkXCXSXSXmXAXSXmXdXo               ",
"      .       & 7XdXxXpXpXxXcXlXZXvXZXvXZXvXnXZXZXdXCXBXgX}.a.g.a.l.g.s.a.z.l.d.l.R.E.z.R.|.0XjXkXSXSXmXAXSXmXdXo O             ",
"              & 2XzXxXiXcXcXpXcXmXmXmXvXvXZXZXZXmXzXBXkX%Xg.0.g.g.d.d.d.u.D.Y.T.U.Q.l.R.R.R.0XkXkXSXSXmXAXSXmXyXo               ",
"            X & 6XnXxXyXcXcXpXnXZXvXZXZXvXvXZXZXAXAXBXkX%Xl.d.E.G.G.D.Z.D.M.Y.M.Q.(.Y.(.E./.>XkXkXAXSXmXAXSXmXdXo               ",
"      .     O & 2XmXcXiXcXcXaXnXZXZXmXZXZXvXnXmXSXAXAX0X@Xg.0.Z.h.f.D.G.U.H.F.T.U.(.R.(./.E.>XkXCXSXSXmXAXSXAXdXo .             ",
"            X & 6XnXxXiXcXvXaXlXvXZXvXvXvXvXZXZXSXzXkX0X|.f.f.U.f.f.Z.J.H.U.T.T.F.(.Y.Q.R.Y.>XkXkXSXSXmXAXSXmX8Xo               ",
"              & 3XnXlXiXvXvXaXvXvXbXvXvXvXvXZXZXAXAXfX=X/.i.D.Q.!.P.E.J.F.F.K.U.U.).U.(.Y.l.>XjXkXAXSXmXAXSXmXdXo               ",
"      .     X & 7XmXnXiXZXnXxXvXvXZXvXvXvXvXvXZXAXkX9X/.p.e e w J.J.G.S.T.T.^.).T.).(.(.E.g.>XkXCXSXSXmXAXSXkXdXo       O       ",
"              & 6XnXnXpXvXZXxXvXbXbXvXvXvXvXvXZXzXzX*Xi.e 1 1 < N r.h.S.T.K.U.F.n.Q.U.(.E.Y.=XjXkXSXSXmXAXSXmXyXo               ",
"            X & 7XZXnXpXZXvXxXvXbXbXvXvXvXvXvXZXzXzX6X/.p.e z 8.0.h.J.H.M.w.y w w w.D.(.E.G.>XeXkXAXSXmXAXSXmXdXo O             ",
"              & 7XdXvXcXlXcXnXaXbXgXcXcXaXcXvXZXlXfX#Xl.Y.D.i.M.r.e.S.S.b.N y y < 5 y E.|.(.XXwX*XSXSXSXmXdXSXyXo X             ",
"            X & 7XpXlXaXaXnXvXcXgXaXcXaXcXcXvXZXSXSX*Xl.i.p.w w N q.e.h.e.b.m.A.n y z D.|.|.|.|.*XSXZXSXmXhXSX8Xo               ",
"            O & 7XiXnXxXaXnXcXcXcXaXaXaXcXcXvXZXuXuX@Xy.p.7 > > N N r.q.q.v.n.b.T.L.F.W.).|.W.g.$XZXmXSXmXfXSX8Xo               ",
"      .       & 7XlXxXxXaXvXvXaXcXaXaXaXcXcXvXvXAXzX$Xl.i.8.y y b N h.V.v.x w 6 y A.~.~.W.Q.!.R.$XmXMXSXZXfXSX6Xo .             ",
"            X & 7XdXnXxXaXnXvXcXaXaXaXaXaXaXcXZXAXzX@XY.Y.U.M.M.m N B.L.v.y 6 5 , y A.K.W.Q.E.g.$XAXzXSXSXzXSX9Xo               ",
"              & tXiXlXlXaXnXvXaXaXaXaXaXaXaXvXZXzX0X/.y.i.M.8.n.q.N.A.L.n.N t r r M m.K. X Xd.z 9XAXlXBXZXmXSX8Xo       O       ",
"      .       & 7XiXnXxXpXnXnXaXaXaXaXaXaXcXcXZXAXzX@Xg.D.D.M.n.V.V.L.B.B.n.b.M.K.K.W.^.).Q.f.n 0XSXhXSXSXMXSX8Xo               ",
"            X & 7XlXnXxXxXnXnXcXaXaXaXaXcXcXvXvXAXfX|.i.D.D.M.n.V.B.L.L.A.b.n.n.n.M.W.~.W.K.!.XXfXSXmXmXmXmXSX8Xo               ",
"      .     O & 6XiXxXxXcXvXZXxXvXvXvXvXcXcXlXdXSXfX|.i.f.S.n.N N.S.P.H.J.m.D.F.M.D.U.).^.S.P..XfXSXSXAXSXSXlX7X# O   O     X % ",
"              & 6XiXlXxXxXvXnXaXvXvXvXvXvXnXnXlXCXkX#Xd.f.Z.N.N.q.S.H.H.Z.i.i.M.Y.M.U.~.~.P..X>XwXBXSXzXzXAXnXiX# O O O O . % * ",
"            X & 6XdXlXcXaXcXcXpXxXgXcXvXvXZXnXmXfXfX%Xg.f.N.V.S.V.I.H.H.Y.M.Y.Y.U.F.K.).^.P..X;X<XeXBXzXlXmXlXlX# O O O .   X * ",
"              & 7XxXnXxXpXxXaXpXsXaXgXvXvXvXZXSXkXkX%Xg.u.h.N N.V.V.S.S.M.M.M.Y.T.K.K.^.P.C.`..X-X<XeXBXzXzXzXlX# O   O   . X . ",
"              & 6XiXnXxXpXaXaXiXsXpXgXcXvXZXSXSXAXCX#Xf.f.e.m b x b n 8.8.w.w.i.U.F.K.P.C.C.C._.[.OXqXeXSXSXzXyX&             X ",
"            X & 6XyXxXxXpXcXaXiXxXdXcXcXZXZXZXZXAXCX#Xd.d.q.b x r x y n 8.w.M.M.M.L.P.P.P.C.C.=.=.OXOX,XkXSXzXyX= X     .   . . ",
"              & 3XyXlXiXpXaXcXpXpXaXcXcXvXvXvXmXCXBX%XD.d.N b b x x t 8.8.w.M.M.n.L.L.L.C.o.o.=.-.1.OX;X,XkXzXyX* % X   .       ",
"      .     X & 2XyXxXpXpXcXcXpXxXgXcXcXvXvXmXzXfXkX>XR.0.N m N x x y y 8.n.n.n.A.L.C.X.X.o.o...-.>.{.{.<XqXkXuX= % X X X       ",
"              & 3XlXcXyXcXcXpXcXbXbXZXvXvXvXZXSXSXwXwX!.u.h.x q m m N } n.n.8.t M.B.X.X.|  ...;.>.>.>.].OX,XeXdX= * % X X       ",
"            X & 3XnXxXyXcXcXpXcXbXbXvXvXZXvXmXZXSXBXwX!.0.n 7 , q r r r M n.n.n.n.n.}  .|  .;.2.&.#.>.1.{.;X,XgX= % % % X       ",
"      .     O & 3XlXcXiXcXcXpXcXbXvXvXvXvXvXZXmXkXkXkX|.f.N.w 6 < 4 , 5 6 6 t t } } X.D T T +.>.#.<.<.>.].OXOX1Xo X X % X     O ",
"            X & 3XxXaXtXcXcXpXcXNXvXvXvXZXvXZXmXdXfXkX!.f.W.v.b 6 6 5 6 q y t t } [ ] D Z T L W @.<.<.<.<.].OX-X@ X X % X     O ",
"              & 3XnXxXyXcXcXiXcXvXZXvXvXvXvXZXSXCXCX0Xs.n V.q.x t t t M { n.{ ] [ ] g g F L U d ) :.,.<.<.1.{.{.@ .   X X     O ",
"      .     X & 3XlXxXyXcXcXaXcXvXvXvXvXvXZXZXmXkXkX>Xy 7 r.q.m q q t t t t t t ] j 9 h E ` U H ) :.,.,.<.1.1.`.$     X X     O ",
"              & 3XnXaXyXcXcXaXcXZXvXvXvXZXvXZXmXhXkX&Xe < 0.B.N t t t t n.n.{ ] 0 j k D I U U Y _ :.,.<.&.>.1._.$ .   X X     O ",
"            X & 3XlXxXyXxXcXpXvXZXvXvXvXvXvXvXNXjXqX%X7 > b N x r t t t { t ] t 9 g D C C i i d +.:.:.&.&.<.1.].$ .   X X     O ",
"              & 3XcXxXyXcXcXpXcXgXgXgXcXaXaXgXhXqXoXN j , - B } t t t ] ] ] 0 9 S V Z C J J ! ~ +.:.:.$.&.,.2.'.$ .   % X       ",
"            X & 3XnXcXtXcXcXpXcXhXgXgXaXaXaXgXeX;X XB 2 4 : : M ] ] ] ] 0 0 g g V Z C C d s ! ! ' :.#.%.$.,.2.'.+ .   X %     . ",
"            O & 3XnXxXyXcXcXpXcXhXgXcXaXaXaXgXeX;X.XO.2 2 j - j ] ] ] 0 9 9 g V V C C C G J ! ! ` ;.#.%.$.,.2.'.+ . O X %       ",
"      .       & 3XlXxXyXcXcXpXcXhXbXaXaXaXaXgXrX,XoX_.g S O.; ] D ] 0 9 9 9 V D V C i A J J ! ! ` :.#.%.,.,.2.'.+ .   % X       ",
"            X & 2XxXaXiXcXcXpXcXzXlXcXaXaXaXgXqX,X_._.g T o.| | D g 3 3 3 Z D D C C C C J P ! ) @.;.#.&.&.,.2.'.+ .   X X       ",
"              & 6XlXaXiXcXcXpXnXlXxXcXaXaXaXgXqX<XC...h h h ].h V 9 3 3 V D A A C C A A G P ! ! ` ;.@.%.$.<.2.'.+ .   X X O   . ",
"      .       & 6XlXxXyXcXnXpXlXlXlXpXaXaXaXgXqX<X=...F u h ..u p g u a D / A C A i A A G P ) ) _ @.@.*.%.,.3.'.+ . X X %     . ",
"            X & 3XlXxXyXcXnXpXnXpXpXaXaXaXaXgX,XoX=. .F 3 @.L F u a Z A K / K A A A A A K P / ) W ` ' *.%.$.;.o.+ .   X X       ",
"      .     X & 6XiXxXiXpXaXlXpXzXzXpXpXiXpXgX,X`.=.Q i H L L u C a A G J G K G I I G K P / / ) U U ~ ~ *.:.3.=.+ . X X X       ",
"              & 7XiXxXpXpXpXpXpXzXuXuXpXpXaXrX,X X=.T p i H L i G K G J G G G G G G K P P / ) / Q Q *.*.*.#.;.o.+ .   X X     . ",
"              & 6XiXcXpXpXpXpXpXzXzXlXpXaXaXgX,X`.=.F p p d L i / ! P J G s A A G K K P R R / / Q @.@.Y *.@.;.O.+ . X X %       ",
"            O & 6XdXxXiXpXaXpXlXuXzXlXlXaXaXrX<X_...F u p H J J / ! P J G G G G K K P P R R / / Q ` *.*.*.@.;...+ .   X X     . ",
"              & 7XiXlXpXpXpXaXpXuXzXzXpXaXvX1X1X_...h u a d P Y R P K I G G K K P P R P R / ! W Q ` *.U ^ #.;.o.+ .   X X       ",
"            X & 7XyXxXiXiXpXpXpXuXzXzXpXaXgX1X XC...F p a J P R K K K K K K K R P P P / / P ) U L W ~ f ~ @.;.O.+ .   X % O     ",
"            X & 6XyXxXpXpXpXlXiXdXzXnXsXaXgX1X Xh...H p a J R / K R R R R R R K P / R R R ) U Q L U Y s f ~ ..| + . X X %     . ",
"      .     X & 7XiXpXpXpXaXpXlXuXzXzXtXsXgX1X X=.-.L d a J R / / ( ( ( ( ( R P R R / / P / Q U F L f s s Y L l + .   X X     . "
};
