/* XPM */
static char *south[] = {
/* columns rows colors chars-per-pixel */
"64 64 58 1 ",
"  c black",
". c #6F533A",
"X c #795737",
"o c #7A5737",
"O c #70533A",
"+ c #70543B",
"@ c #72543A",
"# c #795738",
"$ c #775A3F",
"% c #785A3F",
"& c #785B3F",
"* c #7F5C3D",
"= c #785B40",
"- c #7B5D41",
"; c #815F3D",
": c #825F3D",
"> c #82603E",
", c #83603E",
"< c #836647",
"1 c #9C7B61",
"2 c #9D7C60",
"3 c #9F7E62",
"4 c #A07E61",
"5 c #A07F61",
"6 c #A28166",
"7 c #A58467",
"8 c #A78567",
"9 c #AB8962",
"0 c #AD8961",
"q c #A88768",
"w c #A98868",
"e c #B18D66",
"r c #B18E66",
"t c #B39067",
"y c #B49067",
"u c #B59267",
"i c #B79564",
"p c #B69368",
"a c #B9956C",
"s c #B9966C",
"d c #BA976C",
"f c #BB976D",
"g c #BC9B6A",
"h c #BE9B6A",
"j c #BD9C6A",
"k c #BF9D6A",
"l c #BE9D6B",
"z c #BC986D",
"x c #BD9A6D",
"c c #BE9B6D",
"v c #C3A070",
"b c #C3A270",
"n c #C5A270",
"m c #C6A371",
"M c #C7A570",
"N c #C7A471",
"B c #C7A571",
"V c #C8A671",
/* pixels */
".......OXXXXOOOO....##XXXXXXO..............OXXXXXooXOOO.........",
".......OXXXXOO......##X#XXoXOO.............OXXXXoooXOOO.........",
"......OOXXXXO...O.++####oXoXOOOO........OO++XXXXoXoXOOO+........",
"...+$===::::======--**:*::::--%-$%==$$$$%-%%::::::::%-%%====....",
"...$9tttyyyyytttpty94224rryyyyyytty93313rryyrprpryyyyyprtyy9=...",
"...=tzzzzzzzzzzzzzff8848ffzzzzzzzzzd6666fzzzzzzzzzzzzzzzzzzr=...",
"...=tzzzzzzzzzzzzzdd8468dfzzzzzzzzzdq666fzzzzzzzzzzzzzzzzzzp=...",
"...=tzzzzcczzzzzfddz888wffzzzczczzzzq6w8zczczczfcczczzzczzzr=OO.",
"...$tzzzVVBBmBmVVNmmddzzBBBBBVVVBVBBjzddBBmBVVNmVmmVVmmmzzzy,ooo",
"...-tdccVVVVVVVVVVVVffzfBVVBBVVVBVBmzzdzBBVVVVVVVVVVVVVmzzzy>ooo",
"...&tzzcBVVVBBVVVVVVffffmBBBVVVVVVBBczzcBVVVVVVVVVVVVVVVzzzy>ooo",
"...&tzczBBVVjhhhkkkhrppijhjhhhjjjjjzyyyyhkjjkkkkhhhhVVVmzzzu>ooo",
"...&tzzzVVVj<---:,,,::>>----%-&&----%>>>:,,,,,:,---<kVVVzfht>XXX",
"...-yzzzmVVj-+..XXXoXXXX....O+++....ooooXXooooXXOOO-hmVVcfdr>oXX",
"...$yzzzVVVj-O..XXXXXXXX....++++....ooooXooooooX...-hVVmzcdr>ooo",
"...=yzzzmVVj-+++::::>>>>-$----%-----,>>,,,,,::::O..-hVmmdzdr;XXX",
"...=tzzzVVVk:Xo:rrpphhkkjjjjjjjjjjjjkkkkkjjhyyy9:XX:rfzzw8q3=..+",
"...$tzzzmVVk:Xo:rfzzVVVVVVVVVVVVVVVVVVVVVVBBczzy:#X:pzzf8661...+",
"...-pzzzmVVk:oo:rzzcVVVVVVVVVVVVVVVVVVVVVVVBcczy:XX:rfzd8663=...",
"...=tzzzVVVk:Xo:pczcNVVVVVVVVVVVVVVVVVVVVVVVczzy:XX:pzzd8865=...",
"XXX:tzzzmVVk,oX,hVNVVVVVVVVVVVVVVVVVVVVVVVVVVVVj-O.-hBBmdddr-...",
"XXX:yzzcmVVk,oX,hVVVVVVVVVVVVVVVVVVVVVVVVVVVVVVj-..=jBVBfddt$...",
"XXX:tzzzmVVk,oX,kVVVVVVVVVVVVVVVVVVVVVVVVVVVVVVj-..-jBBBzzzy=...",
"XXX>rddcNVV   X,k   VV Vkj j     k kjj kVVVVVVVj-..-jBVBzzfr=...",
"XXX:568wfz p:X > VVV V j<- -,> ,,, >-& <jVVVVVVj-.O-hVVmzzzy>ooo",
"XXX:3666ff y:XX> VVV V j-+ Ooo Xoo o++ -jVVVVVVj%..-jVVmzzzr>ooo",
"XXX:556qzz p:X#> VVV V j%O OXo Xoo oO+ &jVVVVVVj-.O-jVVmzzzd>ooo",
"XXX:568wzcf   X: VVV V j-O +>, ,>>     -jVVVVVVj-.O-jVVVzzzp>ooo",
"..O=rafzBmVh-. - VVV V k>X ,ij kkk i:X >vMMVVVBj%..-hVVmzzdt*XXo",
"OO.=rdzzmVVj-. - VVV V k,o ,kV VVV k,X ,jVVVVVVj-..-jVVVczzt>ooo",
"...%rfffVV j-. = VVV V k>X ,kV VVV k,X ,jVVVVVBj&..-hBMBzzzt>ooo",
"...%pfffmVV   .-j   VVV   o,kV VVV h,X ,jVVVBBBj-..-hmBBzzd0>XXX",
"...=dzzzBVVj-.O-jVVVVVVk:oo:kVVNfzhr:oo,kVVVffzp:o#:ifzzqq84=OO.",
"...=rzzcBVVj-..=jVVVVVVk:oo:kVVVzzkr:oo,kVVNcffp:o#,rzzzq551=+..",
"..+-yhzzBVVj-.O-jVVVVVVk,oX:kVVVczzr<oo,hVVVczzr:o#:rzzyq553=...",
"...=tdzzBVBd-.O-jVVVVVVj,oX:ikkhyyyr:oo,hVVNfzzp:oo:dzcfq884=...",
"#XX:dhdzBBBj-OO%jVVVVVVj-OO+,,,,:;;<OOO:kVVVzcfy:oo,hVmnadae=...",
"###:yzffBBVj-OO=jVVVVVVh-OO+XoXXXXX#OOO%hVVVcfcr:oo,kVVVfffe=...",
"XXX:yzzzBBVj-OO-jVVVVVVj-OOO##o#XX##OOO*hVNNzfzp:oo,kVVNffap=...",
"XXX:9zpdBBBj-OO:jVVVVVVj<---,,,,::::-==<hVNVzcfy:oo,kVVVzfae=...",
"XXX:368qffhp:oo:kVVVVVVNckkhkkkkhkkkhhhhVVVVczfy:oo:kVVNzzfp:###",
"ooX:3358fffr:oo:kVVVVVVVVVVVVVVVVVVVVVVVVVVVfccy:oo:kVVNczft:###",
"ooo:5656fffp:oo:kVVVVVVVVVVVVVVVVVVVVVVVVVVncffy:oo:kVVNczzp:X##",
"ooo:56qqzzfr<oo:jVVVVVVVVVVVVVVVVVVVVVVVVmVmccfy:oX:kVVNzzzf:XXX",
"oo#:rffdmNVh:oX:pcfcVVVVVVVVVVVVVVVVVVVNffkzzzcr:oo,kVVNzffp:ooo",
"ooo:yfffNVVh:oX:rzzcNVVVVVVVVVVVVVVVVVVVzfzzzzfp:oo,kVVNczfr:ooo",
"oo#:pfffVVVk,oX:pfffmVVVVVVVVVVVVVVVVVVVzzzzzffr:oo,kVVmfzfr:ooo",
"###:pfffVVVk,o#:rrrphkkkkkkkkkkkkkkkkkkhyyyyitp9:oo:hmmNzzdr:XXX",
"OOO=yzzzVVVj-+++>>>>>>,,,,,,,,,,,,,,,,,:::;>:>>>@OO-rccfqqq4=+..",
"OOO=yzzzVVVj-+++oooooooooooooooooooooooooooo@oooOOO=pfcfq553=+..",
"OOO=rzzzBVVj&.+OooooooooXXoooo##ooooooXXooooooooOOO=rfdd5653=...",
"OOO=dzzcBBVz<-*%,,>,>>>>:>>>::::,,,,,,::::>,,,,>---<pffdqq65=...",
"O..=rdzzBVVVjjjjzjkkzznfyyiphkkkkkkkkkkhyryidjkkhhhhmmVmfdd9=...",
"...=pzzzmVVVBVVVVVVVVVmNfhzzVVVVVVVVVVVmhfzzBVVVVVVVBVVmfffp=...",
"...=rfzzmBVVVVVVBBBBVVmmzzzzVVVVVVVVVVVVzzzcBBVVVVVVVBVBfffy=...",
"...=pdzzBVBBVBVVBBBVBVmnzzzkmmVmNNVVVmmndzfzBBVBVNVmVBBmzzf8=...",
"...=yzzzddzzczczjczzww88zzzzzzzzffzcczcz86qwzzzzcczzzzzfzzfy-OOO",
"...=yzzzzzzfzkzzzzzz8358dzzzzzzzzzzzzzzf8666dzzzzzzfzzzfzzfy=O..",
"...$tzdzzfffzzzzzzzy8556ddzzzzzzzzzzzzzf6666dzzzzzhfzzdfzffp-...",
"...-9tprptyyyyrpyyyr55339ryyytpryyyyrprr33339yytyyyyrdprppyq=...",
"....$%==-%&%>>>:::::===$-=%-%-%=::::::::$$+%-%%%,,>:=======%###X",
"........OO+OooXXXXXX....O+OOOOO.XooooooX..++O++OXoXXO.O.OOOO##XX",
"........OOOOXoXXXXXX........OOOOXXoooooX......OOXXXXO...O.OOXXXX",
"..........OOXoXXXXX+........OOOOXooooooX......OOXXXXO.....OOXXXX"
};
