/* XPM */
static char *_ed567155bb1422add1e2749d7f37abby01YcF199jQghWXu[] = {
/* columns rows colors chars-per-pixel */
"64 64 256 2 ",
"   c #0B0201",
".  c #090406",
"X  c #140302",
"o  c #1B0302",
"O  c #1B0A04",
"+  c #1D0C0B",
"@  c #160A0A",
"#  c #1C1309",
"$  c #1D1413",
"%  c #181717",
"&  c #180D13",
"*  c #230E0A",
"=  c #270A04",
"-  c #2B1304",
";  c #24130D",
":  c #2B150D",
">  c #271809",
",  c #33140B",
"<  c #331B0C",
"1  c #361706",
"2  c #221413",
"3  c #2D1A13",
"4  c #2C1D1B",
"5  c #261916",
"6  c #331C14",
"7  c #3D1B13",
"8  c #351B17",
"9  c #2F0E0B",
"0  c #38220B",
"q  c #2D241A",
"w  c #282217",
"e  c #332214",
"r  c #35231B",
"t  c #3A241C",
"y  c #342A1C",
"u  c #3B2B1D",
"i  c #3B2814",
"p  c #36321D",
"a  c #2C341B",
"s  c #291E22",
"d  c #2B2725",
"f  c #322423",
"g  c #3B2622",
"h  c #342C22",
"j  c #3C2C23",
"k  c #382A2A",
"l  c #3D3224",
"z  c #3B332B",
"x  c #3B3826",
"c  c #393734",
"v  c #2E3131",
"b  c #1C2023",
"n  c #431D15",
"m  c #461B0D",
"M  c #44260D",
"N  c #4A241A",
"B  c #4C2C1A",
"V  c #452619",
"C  c #562919",
"Z  c #48331B",
"A  c #55341D",
"S  c #47300E",
"D  c #662C19",
"F  c #6C2F1F",
"G  c #432C24",
"H  c #4B2C24",
"J  c #452926",
"K  c #532C23",
"L  c #572C23",
"P  c #433324",
"I  c #4B3424",
"U  c #4C3A26",
"Y  c #44332B",
"T  c #4B332C",
"R  c #443A2B",
"E  c #4B3B2B",
"W  c #443A26",
"Q  c #543424",
"!  c #54342A",
"~  c #543C2B",
"^  c #5B3D2B",
"/  c #593627",
"(  c #4B3B33",
")  c #463935",
"_  c #5C3C33",
"`  c #563B35",
"'  c #673828",
"]  c #743B2B",
"[  c #673B34",
"{  c #6C352C",
"}  c #3A422F",
"|  c #48422D",
" . c #5C422C",
".. c #56432A",
"X. c #4A4335",
"o. c #5C4433",
"O. c #53433A",
"+. c #5C4C3B",
"@. c #574737",
"#. c #51543B",
"$. c #65442C",
"%. c #634935",
"&. c #644A39",
"*. c #684736",
"=. c #7C4B3B",
"-. c #774637",
";. c #695439",
":. c #76553D",
">. c #7B422D",
",. c #6B663F",
"<. c #483D41",
"1. c #594B44",
"2. c #5B5544",
"3. c #514C4A",
"4. c #654B45",
"5. c #764D46",
"6. c #65534B",
"7. c #6A534C",
"8. c #675848",
"9. c #785648",
"0. c #6D5B53",
"q. c #685952",
"w. c #785C55",
"e. c #5D634C",
"r. c #79654B",
"t. c #6C6455",
"y. c #776759",
"u. c #726F51",
"i. c #7A6A63",
"p. c #7B7768",
"a. c #74726C",
"s. c #844C3B",
"d. c #854939",
"f. c #88513D",
"g. c #904C36",
"h. c #8A4C42",
"j. c #835343",
"k. c #8B5443",
"l. c #895A4B",
"z. c #935A4A",
"x. c #855C53",
"c. c #95594F",
"v. c #A45B4C",
"b. c #88664A",
"n. c #95634D",
"m. c #8B6354",
"M. c #886759",
"N. c #936354",
"B. c #97695A",
"V. c #8A7756",
"C. c #957759",
"Z. c #90734D",
"A. c #A46A58",
"S. c #A8715D",
"D. c #B36A55",
"F. c #886C63",
"G. c #956B63",
"H. c #877868",
"J. c #987669",
"K. c #9A7D72",
"L. c #83787C",
"P. c #A87867",
"I. c #B67B69",
"U. c #A47C71",
"Y. c #AD7569",
"T. c #C97968",
"R. c #CB7F6F",
"E. c #C0745D",
"W. c #7F836E",
"Q. c #8B8876",
"!. c #968A79",
"~. c #93907C",
"^. c #948C6E",
"/. c #A8846A",
"(. c #B6846C",
"). c #A88678",
"_. c #B48572",
"`. c #BB8574",
"'. c #B98A77",
"]. c #AC9578",
"[. c #B99778",
"{. c #A9956E",
"}. c #B0A378",
"|. c #96875D",
" X c #C68977",
".X c #D78976",
"XX c #C5957A",
"oX c #D4957D",
"OX c #C3866C",
"+X c #E3947D",
"@X c #E28E77",
"#X c #C3A47F",
"$X c #949583",
"%X c #9A9C8C",
"&X c #969886",
"*X c #948E83",
"=X c #A69788",
"-X c #B89689",
";X c #B29189",
":X c #9FA191",
">X c #9DA08F",
",X c #A6A18E",
"<X c #BBA488",
"1X c #A2A394",
"2X c #ABAC9B",
"3X c #A7A799",
"4X c #AEB09F",
"5X c #B4AA9A",
"6X c #AEB1A4",
"7X c #B5B6A8",
"8X c #B4B3A7",
"9X c #C89784",
"0X c #D89C87",
"qX c #C8978B",
"wX c #E99B85",
"eX c #C8A788",
"rX c #D8A48C",
"tX c #C8A798",
"yX c #DBA797",
"uX c #D7B69A",
"iX c #CDB594",
"pX c #E6A68D",
"aX c #E7A995",
"sX c #F8AE91",
"dX c #E9B59A",
"fX c #F8B598",
"gX c #FAAB8C",
"hX c #CBB8A6",
"jX c #D7B8A5",
"kX c #CFB7AD",
"lX c #E8B4A3",
"zX c #F6BBA5",
"xX c #F6BDB2",
"cX c #D8C7B8",
"vX c #D1C3B2",
"bX c #E5C8B7",
"nX c #FCC6B2",
"mX c #F0C9AE",
"MX c #D3C19D",
"NX c #DCDCCC",
"BX c #DAD6C9",
"VX c #DCDCD1",
"CX c #D7D9D1",
"ZX c #DFCDC3",
"AX c #EBDBCC",
"SX c #E6D7C7",
"DX c #F4D8CB",
"FX c #EADDD2",
"GX c #E4DAD3",
"HX c #F2D7CC",
"JX c #DDE0CD",
"KX c #DEE1D1",
"LX c #E5E4CC",
"PX c #F9E2D7",
"IX c #F1E4D7",
"UX c #F8E9E4",
/* pixels */
"7 w.).qXtXZXHXHXZXHXHXHXDXDXDXHXIXLXSXFXFXFXGXFXFXGXGXUXIX%X1.) c v v } } x h X.j E U hXUXSXLXDXLXLXLXJXJXJXJXJXKXKXGXKXGXGXGXFX",
"N x.).;X;XqXtXtXPXPXPXHXHXZXDXDXSXSXSXLXFXFXFXFXFXFXUXkXy.` ` f v <.c d v z j w I +.+.<XcXbXAXLXLXLXJXJXJXJXJXJXVXJXVXVXGXVXGXVX",
"L M.U.U.J.J.K.U.G.).tXZXPXPXDXDXDXAXAXFXIXAXFXFXPXGX2X6.k G J k c d w h z e u 4.cXbXcXbXvXMX,X,XLXJXJXJXJXJXJXJXKXNXVXVXVXGXVXVX",
"[ M.J.B.m.m.m.m.B.M.F.N.P.;XjXmXDXPXDXAXSXAXAXFXUX5XO.s ` <.J ( h x j e V &.F.].jXuXvXjXmXMX<XMXJXJXJXJXJXKXKXJXVXKXVXCXCXCXCXCX",
"l.B.B.x.l.l.j.9.x.m.m.m.l.m.m.M.).-XuXbXHXUXPXHXkX3.g <.` J T J V Q Q ^ 9.G.'.qXbXlXbXuXjXmXuXcXSXJXJXJXJXJXJXJXVXVXVXVXVXCXCXCX",
"N.B.l.j.j.5.*.$.] $.:.9.9.l.l.m.M.N.x.M.K.-XkXkX4.J s J T J g H / L $.B.).P.N.U.lXlXlXU.XXuXuXjXSXBXJXJXJXJXJXJXVXVXVXVXVXCXCXCX",
"c.N.l.j.j.=.' ' A ' D ' *.-.9.k.5.j.x.G.M.x.4.J 2 J 8 8 T H J [ >.A.(.S.v.z.z.k.lXlXlX'.0XlXmXuXcXJXBXJXJXLXBXJXVXVXCXVXCXCXCXCX",
"l.N.l.l.l.=.>.' ' ' D C C C D ' =.j.l.5.5.5.` 8 8 8 J J 8 J 4.[ S.oXpX.Xg.D d.`.aXlXzXaXnXdXdXuXSXBXBXBXBXBXcXJXBXBXCXCXCXCXCXCX",
"z.z.n.n.b.f.d.-.] ' ] ' F ' D C m C ' ' [ ` N * 9 7 g 9 J [ 5.U.pXwX+X.XD.c.v.R.xXaXR.R.oXrXpXrXSXvXSXSXcXIXBXGXGXZXVXBX7X*X6X3X",
"b.z.l.l.k.j.f.k.f.s.-.-.>.>.] ' ' C m C N 9 , 8 J 9 9 n [ c.G.R..XwX@XT.R.R..XR.wXqXY.c.g.n.(.rXbXAXAXcXAXcXhXFXBXBXBXBX*Xe.a.a.",
"k.z.l.k.f.k.k.k.k.f.s.d.=.d.>.>.-.' L A n = = 7 8 9 n [ h.B.9XwX@X@X.XT.T.R.R.R.aXyXyX.XXXI.I.(.tXcXSXbXcXH.M.K.-XZXkX5Xa.a.a.W.",
"k.z.n.z.k.k.f.f.k.f.f.f.f.f.s.d.>.*./ 7 9 9 9 = 9 n L 5.h.c.wXR..XT.T..XT.v.v.Y.D.Y.R. XoXoX.X9XuXjXbXPXtX9.9.4.K.=XL.0.1.e.a.e.",
"k.n.n.b.k.k.l.k.k.s.d.d.d.d.d.d.=.$.V = = 9 8 9 8 ! { 5.g.E.@XE.T.D.T.R.T.h.h.Y.R.qXqXR.qX.XoXrXeX-X).eXG.-.9.5.tXK.9.0.i.+.t.Q.",
"=.f.f.=.>.d.f.k.z.s.=.>.d.d.d.=.:.I : 9 = & 9 8 [ 5.[ { F v.@X@X@XT.v.v.g.h.c.v.h.c.c.c.R.qXoXoX[.qXB.M.N.x.j.J.'.M.7.7.t.E t.p.",
"-.s.=.] ' ] ] ] h.h.h.k.h.d.d.-.M < = - 2 9 k <.w.G.Y.h.F g.D.@X+X0XD.{ F d.h.{ c.c.c.c.Y.9X.X`.(.-XP.=.j.l.=.l.G.G.M.M.9.7.i.8.",
"s.l.j.>.F D D C D ] >.d.g.d.] C - 1 1 9 8 _ U.;XqXyXxX0XT.D.g.v.T..XI.h.{ d.{ N [ G.U.Y. XqX.X XXX_.[.-.' -.j.-.5.9.l.!.F.^.^.u.",
"s.s.f.g.f.>.>.>.D D D g.g.Z.A.n.XX#XXXeXdXmXnXzXxXxXxX0XaXaXpXI.h.x.P.M.*.J = = ` o._ *.C.9XqXXXXX(.XXb.A ' [ *.*.[ *.*.4.9.M.V.",
"A.S.D./.(.OXOXOXoXoXoX#XpXfXnXnXdXfXdXdXdXdXdXaXfX0XpX0X0XI.c.lX[ ! ` J 8 3 O O ; e 7 7 *.J.-XqX[.XX[.P.A A N Q _ o.*.&.*.;.:.9.",
"pXgXpXfXfXmXfXfXdXfXnXnXmXfXdXuX#X#X#X[.[.XX9X9X0XqX0XY.Y.yXc.N._ 9 = X X * O * O t t < N -.B.XXOX#XXX[.$.C 1 V 7 n J Q ^ $.%.;.",
"fXfXsXfXfXfXfXfXzXsXpXrXpXrXeX#XiX{.C.B.J.U.G.l.C 9 l.;XB.G.G.).J o X o + ; + 2 6 ( o.H N N *.n.(.XXXXeXm.K C H 7 8 < M B / $.$.",
"gXgXgXgXfXfX+XdXaXpXrXrXeX9X_.U.9.O.t 7 K ! 7 = , 5.;XG.K ! y.` 8 X o 2 + + X ; g ` O.! K N C ' /.[.XXeX/.^ / ^ ! ! I Q Z Z A I ",
"sXsXgXgXgXgXgX#X X9X-X_.J.9./ V r 3 : 3 8 6 6 , = ` g o 6 * g O 2   + 2 @ @ + 3 ) ` _ ! ! L L { (.(.XX_.'./ ^ Q ^ ! ^ o.$.^ Q A ",
"+XgX+X+XoXoXXXOX9XU.x.[ N 7 , 2 4 q f f 4 2 * 2 O 4 X . @   . % w . $ + & 5 s Y ` ` ` ! / L L *. X(.XX(.).:.C K N I Q o.*.;.%.%.",
"@X.XOX.X XXX'.'.x.^ : o O - 2 & % 5 d f d $ + + # . . &   . . % % . & & 5 k ) 1.T T H K L K L -.XX'.XX/./.l.B Q ^ ^ ^ o.%.%.%.%.",
"OXR.I.I.Y.U.x.! 9 o * X s & 2 @ k & s % #   5 d f ) w w d % % % b b . % 4 $ Y ) ( J n K K K N 5.'.XX[._.'.l.m V Q I ^ %.%.%.&.%.",
"A.D.Y.J.G.5.J * & & 2 & @ $ ) q.3.s @ @ $ d z z @ z c c c d b % d v . $ . X ; g V ` ! K H ! N -. X XXX_.'.b.B A  ./ o.%.o.%.%.%.",
"B.G.N.5.` J 9 + & & @ s ) 3.c $   + @ ) 2.t.| y # x c X.} c v & b 3.b % X 4 = = 7 ! Q K n / C -.'.'.XX(.).m.A A ^  . .o.o.+.+.o.",
"[ [ J 8 9 @ & & . s c <.<.k f 3 t @.+.0.M.H.;...P y h d d v c % & v b $ & : = 8 *._ N K L L N j.`.`.'._.(.B.' A Q $.o. .+.&.%.o.",
"9 = o o @ + & & & s ) s f = P ~ H.^.|.r.|.C.Z.r.+.S p u y d d d b & k 2 2 X 7 x.J.9.C C C / N 9. X`.'.`.'./.*.B Q  . ...%.+.o.%.",
"g 8 * * * s s & c k f o 9 ` -XbX<X9X[.{.<X].{.S.,.+.;.#.R y $ d b v a.f ; 8 5.;XU.B.' V m A B :.'.`.`.'._.(.:.A ..$. .~ o. . .7.",
"4.` g & @ + 2 2 & + = 1.G.eX'.J.uXuXuXiXiX#X}.|.:.;.,.%.@.R ; 5 . v L.f o 4.F.U.P.).N.$.M B B x.'.I.`._././.f./  . .Z I o.o.+.M.",
"5.4.T 9 o & 5 2 F.*XK.tXG.K.:.9.j.C.#XmXrX#X|.Z.$.A S 0 E @.q 5 s & 3.s = w.G.;X-XeX9XP.' m M B._.(. X_././.b.$. ...V Z +.@.8.!.",
"{ =.L 7 7.=X;X5XkX=XvX].;.Z Z < = Z $.[.#X}.|.;.S - X ; y h l c . d c 4 6 4.U._.9X'. X9X'.>.C A.`.(.(.(././.j. . ...~ ..U @.i.=X",
"h.F -.n w.GXcXZX5X).SXJ.i &.;.V ^ 1 = ;.}.{.;.0 O u T 5 X O q k b s q 2 : _ G.P.I.9X9X XXXI.z.I.(.I.(./.P.P.9.$. .$.@...E +.Q.,X",
"h.{ { n f 7.y.1.0.hXSX9.7 $.r.F.M.Z 1 ..}.Z.0 # U y.H.O.; 3 ) X.c % $ ; 3 ! 9.G.U.9X9XI.9X9XD.I.(.I.(.P.P.P.:.^ ^ o.o.@.@.t.^.5X",
"] d.L n 9 & = O ~ hX|.$.9.%.9.*. .- 1 ;.iX}.S > i E T w 5 ) 2.q.<.s $ 4 e H *.l.Y._. X X9XOXN.S.I.S./.S.P.C.-.^ .. ...| +.H.,X4X",
"h.L { 7 V r o +.y.iXV.b.Z.:.l.V M V ..{.mXiX..i 0 y j y ) q.t.q.} w $ f g t ! *.c.G.'.9X9XI.c.Y.S.S.Y.S.P.B.*.' ^ ~ U | t.~.5X7X",
"{ { n 9 6 ; u !.).uX/.Z.Z.b.b.V././.^.eXMX}...U 0 +.y.2.X.O.E q v % # f g t H / -.x.I._. X`.A.A.S.S.Y.A.P.B.$. . .U U +.p.,X7X7X",
"L [ 1 n e - i.4XiXiXr.b././.b.'.eXV.%.C.iX{.;.i i 4.F.i.6.O.W p a % $ y g u B N ' -.N.P.Y.I.A.c.A.S.S.B.P.N./ ^ ^ U ( t.^.2XhX7X",
"{ m n 7 - U u.}.MXeXZ.dXeXZ././.9.A A Z.}.Z.;.i Z P 1.q.2.R l | x d w q y P J 7 N n [ c.Y.U.B.c.A.S.B.N.P.m./ ^ ~ T #.u.~.4X7XvX",
"C K 7 V ; @.^.^.}.}.Z.Z.OXZ.' M - V.C.{.[.r.;.S T E y ( ( R @.@.X.h w q l j t 7 H 7 , L 5.c.N.l.n.N.n.J.J.l.^  .~ E 4.Q.2X8X7XvX",
"! L 9 7 - | u.r.{.}.}.{.Z.D 1 = ;./.C.<XiX^.V.;.@.G 8 f R ( l e x h q h h g t t V n m 1 m C =.x.B.B.B.B.m.*.Q ~ E @.t.*X5X8X7X7X",
"L L 9 8 > | r.;.{.}.}.Z.$.M S ;.0 M A C.].V.;.P J * 9 2 l 1.R p w y y y g g J 8 8 7 7 9 = = N ' -.9.j.:.*._ U ~ E 2.H.>X7X7X7X7X",
"L N J t # ,.|.W.|.}.|.$.S S $.9. .- O - 1 0 < e 3 3 k 4 r R j l 3 y u r e t g 8 8 8 , , , , , 1 1 A ^ / Q ~ ~ O.E t.$X3X7X7X7X7X",
"[ N Z >   u.hX}.|.}.|.S - ~ x.J.M.~ Q M = - - > * J k k q 3 l u e y t 3 e t g 4 g 8 9 * : 8 , - = V A Z ~ ..E E 1.a.%X6X7X7X7X7X",
"[ 7 < - > |.2XW.{.}.W.0 - ` F.*XV.b.r.;.Z A ..E s Y f k h 5 W p u t 6 3 6 r 4 8 s 9 2 9 : : < > < Z ~ E ~ | W R t.a.:X6X7X7X7X7X",
"H 7 - # S W.W.,.u.|.V.;...P Y T M.J.].eX].J.y.O.( T f s 4 ; 3 3 V e 6 6 r 8 8 4 * 2 3 8 , 3 : > y Z U U E E | X.p.$X3X6X6X6X7X7X",
"L K > # #.W.,.|.,.,.,.r.r...g g < 0 0 U ..P Z 6 f o 2 @ O 5 2 P i 6 7 t t 3 4 8 8 2 * ; : 3 < < Z U U U W W | 1.Q.&X6X7X7X6X6X6X",
"U.x.' ! ,.e.#.#.e.u.u.e.t.0.8.4...;... .....;.E W l y y r y r q t t 6 6 6 8 6 6 6 ; ; : 6 : 6 r P ~ E E ( u W p.$X>X4X6X4X2X3X1X",
"qXtX).7...U p W e.e.2.,.r.8.&. .%.r.H.].].^.u.#.u y w q h z z g t t e 6 6 6 : 6 : : : 6 : : 6 u V U T P U x #.H.&X1X4X4X4X3X3X1X",
"tXtXB.U | | a } e.e.e.2.@.P < < 0 i 0 i p e a > a w 3 w j z j y t 8 6 6 6 6 : : : , : 6 6 6 r V V H U P P @.t.!.,X2X6X4X2X2X1X:X",
"yX).%.e W x a #.a #.#.} p w > > 0 > # > # # # # > > # ; y z j g r t r 8 6 3 : - - 3 6 6 : 6 t G P I U G l 1.H.$X3X4X4X4X:X:X3X:X",
"-X=X9.W x a a #.a } x a a x y > > 5 e w > > > w q w > 5 y l P g t t e t t 6 : : : : 6 6 6 6 t V T I P u W q.!.&X2X6X6X2X:X:X:X:X",
"U.).J.4.| U } | #.e.#.a y x e # > q x h a x c X.| x h y y u u r t t 8 6 6 6 6 : : 6 6 6 6 t G G G P P u @.i.$X>X3X4X2X:X:X:X3X:X",
").).!.M.;.@.| w #.#.X.x W x u j # f 3.X.) 3.X.X.X.R z j y r e 6 t t e 6 6 6 6 3 6 r 8 6 t G Y V i Z y P 8.Q.~.=X:X3X:X:X:X:X:X:X",
"K.B.K.!.y.6.2.X.#.x y x O.( i q ; d c q d X.c z q q q y y t t G t 6 6 6 : 6 6 , t t r 6 t G T j 6 P u Y u.~.Q.$X>X1X:X>X>X:X2X:X",
"x.G.U.;XK.H.F.i.8.2.1.o.` ( g 6 2 & 5 s f k z h z y w r y u e 6 6 6 6 6 : : < 6 t 8 e t G G G G E i p +.Q.~.W.&X~.%X&X>X>X>X>X>X",
"x.G.U.U.).J.F.F.y.w.0.7.7.4.` Y <.s & & @ 2 w q z l y w < 6 u G 8 6 6 6 , 3 6 6 t 6 6 V G G G G P y P t.Q.Q.Q.$X&X&X&X>X>X>X1X1X",
"5.5.5.x.x.G.K.U.J.F.F.i.F.w.0.7.6.3.<.) z z z c z X.O.( j e e t t e 8 6 6 3 6 6 e 8 e G G G G G u u @.p.Q.Q.Q.$X~.~.&X&X&X>X>X>X",
"G.G.x.x.w.x.M.F.J.F.F.w.w.w.w.0.0.0.w.i.i.0.q.q.q.y.y.y.8.O.g e t 6 6 6 : 6 6 6 8 8 t G T G T G u p 8.Q.Q.Q.$X$X&X&X&X>X>X>X>X>X",
"G.G.G.K.J.G.M.x.x.w.w.0.0.0.0.7.4.7.w.0.0.0.t.y.a.i.y.y.0.4.E t t e 6 6 6 6 6 6 6 6 t J G J J u u | p.^.Q.Q.$XW.$X$X$X&X&X%X%X%X",
"w.5.w.w.F.x.x.w.7.9.7.7.7.7.6.7.4.4.7.7.q.q.0.0.y.0.t.i.i.t.O.G t t 6 6 6 6 6 t 6 t G Y G T P j P +.H.~.W.$X$X$XQ.$X$X&X%X%X%X%X",
"x.5.4.[ _ ` ` [ &.4.4.6.4.1.1.1.4.4.7.w.0.7.6.6.0.y.i.F.F.0.O.G t 8 6 6 6 6 6 6 t J G Y G T G G X.u.Q.Q.W.$X$XQ.&X%X>X>X:X:X:X:X",
"L.F.w.4.*._ ` ` J T ` O.X.) ) ( O._ _ o._ +.4.2.6.6.6.1.( u 3 - 6 6 : : : : 6 : 6 t G V t t u r O.u.H.p.W.W.a.W.W.W.W.W.*XW.*X*X"
};
