/* XPM */
static char *_2d38e17f22841e6e9ce946f89454402VVOPKOoeeWc0qrhn[] = {
/* columns rows colors chars-per-pixel */
"64 64 245 2 ",
"   c #1C0902",
".  c #1F120C",
"X  c #1E1512",
"o  c #230D04",
"O  c #240D07",
"+  c #251105",
"@  c #24140D",
"#  c #2B140C",
"$  c #2D1A0D",
"%  c #28170A",
"&  c #331B0D",
"*  c #351909",
"=  c #231613",
"-  c #2B1611",
";  c #251A14",
":  c #2C1C14",
">  c #261B19",
",  c #2B1D1B",
"<  c #321D14",
"1  c #321E1A",
"2  c #371C14",
"3  c #36240C",
"4  c #2E2116",
"5  c #26231D",
"6  c #2C221D",
"7  c #28271D",
"8  c #342215",
"9  c #3A2315",
"0  c #34231C",
"q  c #3B251B",
"w  c #34291E",
"e  c #3C2A1D",
"r  c #372B14",
"t  c #37331A",
"y  c #2F1F21",
"u  c #2E2321",
"i  c #2E2A23",
"p  c #332523",
"a  c #3C2622",
"s  c #342A24",
"d  c #3C2B23",
"f  c #362C29",
"g  c #3A2D2B",
"h  c #372728",
"j  c #3B3126",
"k  c #35312A",
"l  c #3B322D",
"z  c #3A3629",
"x  c #3D3431",
"c  c #3E3933",
"v  c #3F3B38",
"b  c #3E2E31",
"n  c #432B1C",
"m  c #4A2D1D",
"M  c #42271A",
"N  c #4A311D",
"B  c #44341C",
"V  c #55361C",
"C  c #422209",
"Z  c #422D24",
"A  c #422F28",
"S  c #492D24",
"D  c #443225",
"F  c #4B3425",
"G  c #44332B",
"H  c #4A352B",
"J  c #443A2D",
"K  c #4C3A2C",
"L  c #473A25",
"P  c #533B25",
"I  c #51352A",
"U  c #533C2C",
"Y  c #5A3E2B",
"T  c #553924",
"R  c #423533",
"E  c #4B3730",
"W  c #443A34",
"Q  c #4C3B33",
"!  c #453C39",
"~  c #4B3D39",
"^  c #523E34",
"/  c #563D34",
"(  c #633E24",
")  c #47452B",
"_  c #56402C",
"`  c #5B422C",
"'  c #58472D",
"]  c #4B4234",
"[  c #4C433C",
"{  c #494737",
"}  c #534234",
"|  c #5B4434",
" . c #5C4A34",
".. c #55433B",
"X. c #5A453A",
"o. c #5C4A3C",
"O. c #554B3A",
"+. c #57553A",
"@. c #4B503A",
"#. c #65482D",
"$. c #624633",
"%. c #634B34",
"&. c #6B4C34",
"*. c #634B3C",
"=. c #6A4E3B",
"-. c #664738",
";. c #6C533D",
":. c #675439",
">. c #73553B",
",. c #74593D",
"<. c #7B5A3D",
"1. c #745337",
"2. c #714B2F",
"3. c #7E603E",
"4. c #4B4742",
"5. c #524643",
"6. c #544B44",
"7. c #5C4C43",
"8. c #584943",
"9. c #5C5344",
"0. c #5B5749",
"q. c #5D5752",
"w. c #614D44",
"e. c #6C4F42",
"r. c #655244",
"t. c #6B5343",
"y. c #64544B",
"u. c #6B564A",
"i. c #6C5A4C",
"p. c #655B48",
"a. c #725643",
"s. c #755B44",
"d. c #7B5D43",
"f. c #735C4C",
"g. c #7B5D4A",
"h. c #715549",
"j. c #655C52",
"k. c #6C5C51",
"l. c #645C58",
"z. c #735E52",
"x. c #68644B",
"c. c #75624D",
"v. c #7C644C",
"b. c #7A6549",
"n. c #6B6554",
"m. c #756253",
"M. c #7B6454",
"N. c #7C695B",
"B. c #766858",
"V. c #7B745C",
"C. c #797465",
"Z. c #796D64",
"A. c #87643E",
"S. c #846145",
"D. c #83654B",
"F. c #84694D",
"G. c #8B6A4D",
"H. c #8A6748",
"J. c #926B4D",
"K. c #826652",
"L. c #846B53",
"P. c #8B6E53",
"I. c #836D5B",
"U. c #8B6E5A",
"Y. c #926E53",
"T. c #8D7254",
"R. c #8C735C",
"E. c #88765C",
"W. c #947253",
"Q. c #93745B",
"!. c #94795D",
"~. c #9B7B5C",
"^. c #9B7656",
"/. c #95734B",
"(. c #A27C5A",
"). c #856F62",
"_. c #8C7463",
"`. c #8D7A63",
"'. c #887768",
"]. c #947C63",
"[. c #9B7C63",
"{. c #937D6C",
"}. c #977A66",
"|. c #937E72",
" X c #926D52",
".X c #7E826A",
"XX c #A8855D",
"oX c #9E8164",
"OX c #9C836B",
"+X c #96846C",
"@X c #8C8773",
"#X c #9A8975",
"$X c #928B73",
"%X c #A48364",
"&X c #A4856B",
"*X c #AB8B6C",
"=X c #A88868",
"-X c #B28C6A",
";X c #B4936E",
":X c #A38A73",
">X c #AB8D72",
",X c #A48B78",
"<X c #AD9275",
"1X c #AC957C",
"2X c #A6937B",
"3X c #B49374",
"4X c #B99473",
"5X c #B3947A",
"6X c #BA9A7A",
"7X c #B18F71",
"8X c #BBA07D",
"9X c #C29C7B",
"0X c #C6A47D",
"qX c #9D9582",
"wX c #A99785",
"eX c #B49B84",
"rX c #BB9D81",
"tX c #B69C8B",
"yX c #A48E83",
"uX c #BDA385",
"iX c #B9A48B",
"pX c #B8A996",
"aX c #ACA58D",
"sX c #C29E81",
"dX c #C5AA8D",
"fX c #CBAB8C",
"gX c #C6A687",
"hX c #C7AC92",
"jX c #CDB394",
"kX c #C7B39A",
"lX c #D5BA9B",
"zX c #D6B799",
"xX c #D1AE8C",
"cX c #C9B8A5",
"vX c #D7BDA3",
"bX c #E5BEA1",
"nX c #E4C29A",
"mX c #D9C4AA",
"MX c #D9C9B6",
"NX c #DED1BC",
"BX c #CEC2AC",
"VX c #E5C8A9",
"CX c #EECFB4",
"ZX c #E7DAC6",
"AX c #F6E9D2",
/* pixels */
"kXaX#X@XpXAXmXV.S.,.[.fXU.K.X.{.{.:._ :.,.S.%X>X6X&XuXzX8XVXlX8X8XoXlXlX=X,.oXoXF.,. .P L | E X.S q 0 Z K 9.8.O.y.! 6 6 w s 6 6 ",
"E.' x.E.kXAXkX%.T.1.~.jXU.T n / i. .P P T #.d.G.b.G.<XjXlXCX0X8X8XXXjXjX<X#.T.b.#.' _ P D H G E a q 1 0 d Q ] 8.9.J 4 p f G s ; ",
"+.+X#X$XBXZXwX:.F.:.S.P.&.S n H K X.o.Y P P _ V T :.L.*XmXnXoXXX8XXXXXXXoX,.b.b.%. .L U U d d 1 1 0 1 < : a a l l s w s l [ f p ",
"p.V.O.E.BXNXiX_ ,.,.d.` T T 9 q e e e m n F ` N _ _ _ v.jXjXXX8X8XXXXXoXF.T.G.V._.c.K L a w w = - < - @ 0 w , 0 6 > u s W 5.l f ",
":.+.'.$XZXNXpX:.%.;.#.n 2 & & : q , O O % $ B K ' e r ' R.<XuXjXnXXX=X-XA.,.b.B.r.o.L s ; = . = = - = O , a w p p 5 u f ~ 5.x f ",
"2XwXqXwXNXBXpX;.N -.Y * M *.X.u.~ w.E 1 : @ : w j D r B %.!.8X;X0X-XXXfXoX3.:.P r 8 : @   = ; , a 0 , O ; , p f l f f s ! ! b x ",
"qX@X@XpXNXBX$X*.T F M m |.tXz.X.H ^ Q Z - @ ; @ 4 j t e ) oX8X%X/.XXXX9X!.>.| q $ - : 4 ; 4 @ = A h d : : - , 6 s s f f W l f x ",
"0.wXNXZXMXcX'.u.N 2 S M._.K q 9 q o 2 w.K , 6 . X . J L * T.lX=X/.XX=X*XF.-.I 9 2 : @ : @ @ @ @ : - p 0 , , ; > 5 u u i ] k i i ",
"J pXZXZXMXpX,Xt.e * / h.9   w.{.e.2 Z cXcXA - s ; ; : w 3 ;.uXoX/.;X;XXX-.S 2 2 2 - - < 5./ O / pXk.4 = 8 > w : = : 7 6 j k 7 ; ",
"0.'.cXNXcXcX{.N * & 9 M } ^ #XtXe.m * 2XNXz.W ~ s ; : $ % $.].W.XXXXoX,.V 2 # O - - 1 e.yXK.q / aXqX7.e : : , s ; = 7 4 w k t z ",
"BXaXBXZXvX,X%.P K 9 F N._.S ).ZXtX}.U.,XyX|.u., w 4 : + * ;.T.oX;XoXoX3.I + - - - - E z.wXyXU._.pXwX9.;   @ : 6 j 4 = @ s [ ) { ",
"MXAXBXMXiX=.N t.-.n K ).h./ / }.VXtX,X).w.X.0 O p w q $ 3 g.U.<XoX<X5Xb.M O < 0 - 2 a a h.,XyXcXwXy.4 $ 0 ; 0 w s j j c @.0.@.{ ",
"qXNXaXpX:XY ` a.-.X.n n w.-.f.2 m ( S m D F D 4 d G D D e b.!.6X8XjX1Xb.t 3 # 1 1 1 d D q M F H h 4 G ~ G : 4 s s G s [ O.O.@.[ ",
"aXMX2XE.;.V &.b.$.g.z.H I -.e.=.$.M m F F 2 e $ 0 z D B N +X<XdX8X8X8X+X3 $ 0 : 1 a a A Z Z q e G ..J a w w ; : G [ l n.C.j.0.{ ",
"pXZXiXb.>.;.d.>.| I.{.| I I a.g.h.I I 9 M 9 - d 0 t e 8 ' +X1XgXVX8XdX8XP 8 4 : a 1 R G g Q K j d d 8 j H l a ~ 5.y.] B.V.j.x.q.",
"cXMX1Xb.d.a.S.d._.K.f.e.;.m I U m I S S M H 9 8 D % 3 $ b.:X<XjXlXlX8X+X_ D r a 1 h q p g e H a $ ; q 0 a A Q ~ y.j.W 0.j.n.n.0.",
"mXmX8X!.b.2.d.b.$.=.R.U._.I.K.a.N ` t.F I m Z F I n r _ Q.=X5XVXhXVXmXE.F P } G a 0 : p @ : A Z s w : d d H Q ..7.n.n.k.p.q.@.Q ",
"CXjX1X<Xb.P.Y.2.>.[.<X&X_.;.-. .`  .t.T F M | Y T ` #.P.<XuXdXmXmXlXjX].' } o.E 0 0 0 w 0 s ../ o.o.G H G G F o.r.k.m.9.W ] { z ",
"mX8X8X>XG.Y.[.S.>X[.F.K.v.-.` ` ` P %.&.K.h.g.a.U.K.K.!.eXjXhXjXlXiXuX:X` } r...d 0 g 0 d D 5.8.} o.K Q H q q ^ w.y.w.Q j J ..9.",
"jXdX8XoXY.^.5X~.&XD.#.&.&.&X;.D.<XU.K.R.{.K.U.}.&X!.&XOXuXjXuXhXjX5X1XeXY B r.r.E e d 0 G E / 8.w.r.u.z.o.U e G | } H g Q w 5 w ",
"vXzX4X XY.[.7XS.#.#.2.,.!.<X$.Q.sXe.S.}.}.}.,X}.Q.&X&X~.5XvXlXfXCX8XOXiX| e X.r.~ A D a Q y.k.N.m.f.z.z.h.*.Z S X.H g G [ W d > ",
"zXzX9X XY.2.2.V V <.^.oX&XT.T P. X( H.[.[.rXeXQ.:X[.[.P.[.bXhXvXVXdXOX2X:.m / K g Z p 0 a y.z.'.u.r.*.| z.w.S S 7.7.H A [ ~ W p ",
"sXzXsXJ.A.V ( H.2.*X3X*X&.d.2.P.S.=.[.}.sXzX[.Q.Y.F.>.[.Q.~.gXhX3XdXOXoX;.H U d A d Z A E y.z.).I.z.h.t.z.u.w./ Q u...Q 8.5.W g ",
"sXsX(.S.( J.9X9XG.4XrXQ.b.S.T.&XY.J.bX[.yXhXsX[.V V &.1.<.Q.gX[.T.uXR.F.;.I U A A a d Q 5.w.k.N.'.z.M.z.h.*.M.E G 8.~ 4.~ ! c f ",
"vX7X2.^.^.-X-XsX4XsX(.[.[.=X*X%XY.3XbX5XsX>XU.}.m O ( 2.<.=XdX>XgX&XoX:Xa._ o.0 a 1 q G E ^ ^ Z.m.*.m.#X'.r.r.G e H W W s > > i ",
"CX[.J.(.(.sXsX4XxXbX^. X<.b.P.b.K.5X5XU.}.U.S.e.( C ( 2.S.G.fX&XoXuXT.U.a.| X.Z A g a G ^ G / r.u.m.u.u.B.B.r.9.W f l f X 5 5 5 ",
"fX^.H.(.J.(.xXbXzXbX[.H.&X,.T.&X[.}.U.K.a.( / ( V * ( 2.1.%XgX~.oX%X#.;.a.I X.X.A A G Z Q q Z ^ p.7.7.j.y.j.y.Q z 4 c ! k 4.v v ",
"sX(.H.Y. X(.sXCXzXzX[.}.&X:Xg.eX,XD.=.e.Y M C m V V =.1.,.5X%XoXdXT.b.:.%.U *.Q R E / A ~ A : H k.8.G 8.y.] [ z 6 7 [ n.q.4.v l.",
"sX[.~./.^.-X(.xXsXsXK.}.( K.-.-.$.` Y M * # * h.Y.K.D.>.F.T.J.<XjX:.Q.R.=.U K 7.a g E g A E q < Q j...5.7.l W ] 0.v v q.4.k i 4.",
"-X=X^.^.J.J.Y.(.[.5X X|. Xe.K.Y Y *.P 2 o 2 e.tXsX}.D.S.H.[.8XzX%X,.d.].t._ ^ o.A A ^ ..0 ..7.@ w 8.B.j.! 8.5.[ 6.4.4.q.v k q.C.",
"5X*XJ.G.^.J.S.^.S.[.H.S._.K.Y Y D e + + o / _.tXtXg.s.d.S.dXVXzX~.&.:.5XM.U Z ^ G E ~ 7.0 ..k.@ . g R R l 0.z i q.6.4.4.x x 4.q.",
"xX%X*XJ.-XxXS.Y. X[.Q.e.K.e.M M + < o $ 2 ).}.wXtXK.P.<.=XlXVXgX<.3 ].eXa.c.H | ..~ ^ / G y.y.< = , h ! ! ! i u q.l.4.v v x 5 5 ",
"9XJ.(.^.(.9X^.(.7X}.U.| } P 8 e O - a S M _.|.}.,.>.oXT.jXVXVXzX/.%.,.+XL.v.*.O.w...8.E w.z.Q 0 , > , g R ! 6.~ h f l x [ x k i ",
"-XH.9X9X(.9X4X4X7Xg.g.e.-.K & $ y a A S M h.).,Xs.:.+X[.8XVXjXlXdXoXoX2X#XI.r.r.y./ y.y.k.w.a - , : > u l R ! ! x f l 6 7 k k ] ",
"[.A.sXxXsX9X XJ.Q.-.=.*./ Z # $ H 0 E / S / S.}.eXf.OX1XkXjX<XgXjXT.+X&X`.M.r.} 8.w.w.8.A y # - , 6 > 6 g R x ! R f l f 7 s k 6.",
"%XJ.xXsX-X(.S.1.=.-./ S q $ % r ^ e w.h.S M I / ).| | b.:XwXiXvXvXoXE.+Xt.X.^ H Q ..Q h , 1 1 1 6 6 6 , p G g 5.5.l s s s 7 c ] ",
"^.W.6XxX(.(.^.e.-.h.I 2 < $ Z K K K f.*.S 2 2 - * M 9 X.| f._.{.OXR.R.{.m.U H A 7.~ 1 1 : : - = 6 p 6 > , h h 8.l.l.[ f d z 9.[ ",
"/.XX4X4X(.S. XS.-./ M 2 < q o.X.e } m.} I M - - - - < S F D | =.X.Y H | | Z / W a 1 - , 1 , , 4 6 s u 5 , p g 5.[ ..6.c z W { ] ",
"A.-XxX-X^.S.( h.I M 1 - 9 D r.r.P } m.| I S 2 - 1 - < O g D H H | F S U 7.^ 8.d = 1 h p h p , , p f u h , p h ~ Z.q.j 4 5 w 6 w ",
"/.-X;X(.^.S.( e.I S a 1 G ^ +.c.p.P t.-.M a I 2 1 1 # @ - < q d Z K q M H A a , , 1 p , p p p p h g s x > , p d 8.8.7 s 4 i w w ",
"XX0X4XXX/.S.$.Y S a 1 1 A X.V.a.;.' h.t.U S S S Z 1 a # O < < 1 9 & & 0 < < 1 1 y 1 y h y p g u f f h p y > y g p b R j G ! z g ",
"4X0X9X(.A.1.-.S 2 Z 1 a Q X.i.s.;.,.:XU.Y / / I S H y y 1 O - < # & $ # - 0 1 : p : y y , b h u b x h p h p p h h g R R ! ] G J ",
"xXnX9X/.<.&.V U 9 a 0 j ^ r.u.M.c.b.:XOX( e.I / X.H < e Z < 1 - < $ - 9 0 < - p 1 1 y p u p R b f x h p x R g y h h R G Q ~ J W ",
"zXCX0X/.<.&.C I q 0 1 a Q r.t.M.E.E.[.].U.K.Y e.F Y w.} A < < 9 $ $ : $ < < 0 < , y y 1 h y ! c p R b p g R h y y a g s g ] ! J ",
"%X4XgX/.1.&.` n 8 < : G H | f.s.I.&X:Xa.U.K.S.=.#.;.*.F  .U e F 9 $ < 9 9 0 A 1 1 : , , y h x p g [ x y y p b h y p h h l R R W ",
"3X%X9X~.<.#._ r $ w : } ..^ _.f.U.5X&XS.S.U.}.( v.D.%.| _ D U } U e e } K q H G 1 a a y h g R h g ! R b p p b b y y p h R R b A ",
"fX4XXX!.F.#.N N 8 8 0 X.w.| _.g.[.:XQ.~.d.^.[.1.T.T.b.+X%._ t._ :. .D  .} Z ^ ^ A ~ p R R h [ x u b R R g h b h y , y p h g h R ",
">X[.<.b.T.#.N B e + < ^ 7.t.t.*.U.g.e.g.S.S.Q.2.b.W.F.eXv.E.+Xb.{.x.3 *.h.L K X.u.E : A ~ R g c u y b x g h h y y y y y p g g ! ",
"uX#X' d.b.%.r e _ r 4 Q O...U _ U Y -.I.}.K.>Xa.F.&XR.T.v.&XL.#XE.V B I.#X .n u.u.e g j E W w W b p h p h y , u y y > > i p f b ",
"+X:.r L.!.' ' :.B.B.} Q K } D o.9 *.f.-.e.U.dXeX[.rX&XL.F.:XL.:XT.:.F.E.+X*.O.I ] K o.Q g G p f h > > y y , , p 5 y > > i i f v ",
"b.+.B 2X+Xx.b.x.} O.7.] e O.e e S I -.P =.h.K.}.K.:X2XeXcXmXeXcXkX+X].`.,Xr.8./ } o.y...s w p h y = = , y > > y > , > X u f x v ",
"+X' :.aXB.+Xc.E.] ] K d r e 8 $ % & Z e S M * m m | =.M.#X|.I.{.eXE.m._.|.^ A w...Q Q j : : , = > - > = = > > > , , > X y f x ! ",
"x.t .XXX) oX+X$X] L Q k.Q 8 K e 9 2 8 < + * + & # 8 & 2 e 0 Z Z B m D E A a 1 A g 0 0 : = - , O = = > X X > > > u y 5 X u p b x ",
"t 3 .Xx.' B x.$X9.i.n.Z.k.} 9 } X.Z 2 n 2 + & # # $ + + + o -   o % O o # - 1 1 # @ @ : - p g x y y > > X X X > 5 X > > u i f f ",
"x.+..X+.x.x.x.:.O.] k.n.y.r.$ K X...w.k.} m *.^ F e & 9 - # $ < 2 % # # < O @ - - @ : 0 1 1 g R b u y y y > X y y X > u h i b x ",
"+.) 2Xx.) $Xx.+Xp.] 8.n.m.p.H o./ o.u.).y.U M.z.h.r.*...K K ^ m.h.F I -.^ H ^ E d E ..H A ~ b p p u u u u i u > u > y y u u f v ",
"+.+.x.$X) t :.C.@X@Xy.p.'.Q ^ z.^ / k.y./ S r.N.m._.I.M.i.v.#X#XM.M.M.+X{.).@Xz.i.k.k.y...~ R , u u i f i v v v x i u 5 f f f x ",
".X.X@.2XaXt ) ) _.@Xn.O.l.7.N.u./ G u.h.S H z.I.E.yXE.+XE.`.:XR.+X+XE.$X+XZ.).w.r.o.O...Q R g y h f b f f x k k k k k u y u y i ",
"x..X@.n.$Xx.t r O.) j.8...X.|.y.H H m.u.G ^ N.'.'.#XE.2XwX<X1XOX!.+XE.+X`.m.f.X.o.} ] H a p p p i f x k f x 5 k v v v k k f u y ",
"+.@.) t +.x.t +.p.J @XB.7.7.u.A Z H w.^ K H X.c.u.M.I.c.`.1XpXeXb.E.E.+XI.n.c.*.F L K D 1 , 1 , y y y u i x k c v k b x x i > > ",
"@.) @.t t @.L V.n.B.'.] J y.} d G Z G d r.K ^ p.} } p.} | V.+X].' :.:.*. .} _ L d e w w p 1 : > f f i p i k c c k i k i i 5 5 f ",
"@..X.X@.x.n.+.x.n.B.@.4 w E G q e w e 4 H d Q ] K L K | D K K K J D e d d d w e t 8 4 w p : = > p R b c k k c i i i i i i k v v ",
"@..X.X) x.V.c.z ) J w j d 0 d $ : w w 4 4 ; a 4 e G w d < e d 8 w - : 9 0 8 8 w 8 4 0 8 q , = , . w u s k k k i 7 7 5 5 i z v v ",
"@.+.0.) ) +.+.t L z 6 j w 8 e : % 0 $ 6 w $ 4 4 6 w > : : > # : : # , 1 : 1 0 : : 4 4 4 a g , . , s ; X 7 k 7 i 7 7 i i i u u i "
};
