/* XPM */
static char *a839f04498a34fa0a276734cc517a82aE6vqzxukpgqELsM5[] = {
/* columns rows colors chars-per-pixel */
"64 64 251 2 ",
"   c #040303",
".  c #0A0302",
"X  c #0B0B04",
"o  c #04050A",
"O  c #0B0B0C",
"+  c #070909",
"@  c #140201",
"#  c #1A0000",
"$  c #120A04",
"%  c #120D0D",
"&  c #1B0B05",
"*  c #0C130A",
"=  c #14120D",
"-  c #191809",
";  c #0C0D11",
":  c #050A14",
">  c #120E12",
",  c #130F18",
"<  c #0D1213",
"1  c #0A1217",
"2  c #141413",
"3  c #191615",
"4  c #151A14",
"5  c #1B1A15",
"6  c #13141A",
"7  c #1A1719",
"8  c #15191A",
"9  c #1B1B1B",
"0  c #270903",
"q  c #241806",
"w  c #371702",
"e  c #221D1C",
"r  c #261B16",
"t  c #35120A",
"y  c #1D221C",
"u  c #192416",
"i  c #1D2001",
"p  c #28220A",
"a  c #332406",
"s  c #23221E",
"d  c #292817",
"f  c #332B15",
"g  c #363218",
"h  c #2B3511",
"j  c #1A1D23",
"k  c #221E22",
"l  c #321E20",
"z  c #1E2324",
"x  c #1E2730",
"c  c #242423",
"v  c #2B2B25",
"b  c #2C2C2B",
"n  c #272726",
"m  c #352B28",
"M  c #363729",
"N  c #343533",
"B  c #3A3A3A",
"V  c #373836",
"C  c #2E332C",
"Z  c #4B1B0B",
"A  c #45260B",
"S  c #592918",
"D  c #4E3116",
"F  c #633519",
"G  c #46382A",
"H  c #5A3A27",
"J  c #463A34",
"K  c #50312B",
"L  c #6B3A2C",
"P  c #3C4336",
"I  c #3B4329",
"U  c #46462A",
"Y  c #564729",
"T  c #464636",
"R  c #55573A",
"E  c #515430",
"W  c #694B37",
"Q  c #655639",
"!  c #7A583B",
"~  c #6C482D",
"^  c #5B6335",
"/  c #6B6B38",
"(  c #4C4A19",
")  c #363B41",
"_  c #4A3B43",
"`  c #3C4249",
"'  c #474845",
"]  c #564B45",
"[  c #565749",
"{  c #565756",
"}  c #4B5051",
"|  c #685848",
" . c #765846",
".. c #6E5B54",
"X. c #5D6352",
"o. c #796448",
"O. c #666459",
"+. c #7B6858",
"@. c #6F724A",
"#. c #5C6166",
"$. c #696A68",
"%. c #6D716B",
"&. c #767568",
"*. c #797977",
"=. c #6F6B6E",
"-. c #5E5B60",
";. c #865338",
":. c #885C45",
">. c #886449",
",. c #8C6A56",
"<. c #986D55",
"1. c #8A7555",
"2. c #99765B",
"3. c #966A49",
"4. c #A4775A",
"5. c #A9715A",
"6. c #887669",
"7. c #967967",
"8. c #857974",
"9. c #8A716A",
"0. c #A57B63",
"q. c #B2796E",
"w. c #7B823F",
"e. c #7E884F",
"r. c #7C836E",
"t. c #8B9058",
"y. c #A9845B",
"u. c #99866A",
"i. c #999866",
"p. c #86887C",
"a. c #9B8679",
"s. c #878B66",
"d. c #A98869",
"f. c #B58868",
"g. c #BA926C",
"h. c #A78A77",
"j. c #B48B76",
"k. c #AB9578",
"l. c #B69679",
"z. c #A8976E",
"x. c #9DA468",
"c. c #ABAF74",
"v. c #C39876",
"b. c #C8A27B",
"n. c #797981",
"m. c #878886",
"M. c #98968A",
"N. c #979897",
"B. c #908E8B",
"V. c #AB9786",
"C. c #B69886",
"Z. c #AB9A95",
"A. c #B79D96",
"S. c #AC8A82",
"D. c #9CA595",
"F. c #BAA68A",
"G. c #A9A499",
"H. c #B7A599",
"J. c #AEAE89",
"K. c #A49BA5",
"L. c #9EA1A5",
"P. c #9EA7B0",
"I. c #A9A8A6",
"U. c #BAABA3",
"Y. c #B5AAA7",
"T. c #B9B3AA",
"R. c #B5AEB3",
"E. c #BCB3B3",
"W. c #BBBABB",
"Q. c #B6B4B6",
"!. c #A9AFB2",
"~. c #9498A5",
"^. c #C49988",
"/. c #CE9388",
"(. c #C5A588",
"). c #C6A897",
"_. c #D6B398",
"`. c #D0AD93",
"'. c #C6B6AA",
"]. c #D9B9A8",
"[. c #C3BBB3",
"{. c #C4BCBC",
"}. c #C8BAB5",
"|. c #CCB1AB",
" X c #E7B9AA",
".X c #BAC285",
"XX c #BFC3B4",
"oX c #CACB94",
"OX c #C9C3BB",
"+X c #D5C3BA",
"@X c #D8D1AC",
"#X c #E4CAB1",
"$X c #DEE2AE",
"%X c #BCBCC3",
"&X c #B8B9C7",
"*X c #B8BDD4",
"=X c #C4BCC4",
"-X c #C1BFD4",
";X c #BEC3CB",
":X c #BCC4D6",
">X c #BBCCE3",
",X c #BCD0E7",
"<X c #CBC4C4",
"1X c #C4C3CC",
"2X c #CCCBCC",
"3X c #C7C6C5",
"4X c #D4CAC6",
"5X c #D5D5C8",
"6X c #C4CBDD",
"7X c #CBCDDC",
"8X c #C7C7D6",
"9X c #D7D5D9",
"0X c #CFD0D4",
"qX c #E4D7D9",
"wX c #E4CFCB",
"eX c #CBCDE3",
"rX c #C6CBE6",
"tX c #CCD3E5",
"yX c #C4D2EB",
"uX c #CCD3EB",
"iX c #CDDAED",
"pX c #C6D2E4",
"aX c #D3D5E4",
"sX c #D5D9E5",
"dX c #DBDBE4",
"fX c #D2D5EC",
"gX c #D3DCED",
"hX c #DADCEB",
"jX c #DBD4E5",
"kX c #CAD5F2",
"lX c #CDDBF3",
"zX c #C8D8F4",
"xX c #D3DDF2",
"cX c #D7DCF7",
"vX c #D2CBE9",
"bX c #E1DAE9",
"nX c #D5E2EC",
"mX c #DAE3ED",
"MX c #D7E2E6",
"NX c #CEE0F8",
"BX c #D5E1F3",
"VX c #DBE3F4",
"CX c #D4E3FC",
"ZX c #DBE3FB",
"AX c #DDE9F4",
"SX c #E7E7E7",
"DX c #E4E8F7",
"FX c #FEFEFC",
"GX c #F8FBF4",
"HX c #F2F5F1",
"JX c #E8E4DB",
/* pixels */
"d.d.h.d.d.u.h.h.V.l.V.V.k.V.k.V.V.V.k.l.l.4.;.;.3.;.:.d.^.^.:.<././.q.5./.v.v.`._.;.A j.! z.l.! u.C.l.V.F.k.k.l.j.S.S.v.C.k.k.z.",
"h.h.h.h.a.h.h.k.C.C.F.C.V.V.V.V.V.J.V.l.v.4.;.;.;.3.<.d.).).C.C././. Xq.;.q.v.v.g.A w v.2.0.f.D >.l.F.F.F.V.J.V.C.C.C.^.^.j.k.z.",
"h.k.V.k.k.h.S.V.H.H.H.H.F.G.G.H.G.H.H.F.l.g.3.>.<.3.<.l._.^.].)./.q.q.v.! ;.b.v.,.0 w h.j.2.2.F W V.|.H.H.U.U.A.A.A.A.A.C.H.V.V.",
"V.V.C.A.Z.V.A.H.H.U.U.U.Y.H.U.Y.Y.T.U.H.(.l.f.y.f.2.<.A._.l.].].|./.q.q.3.^.`.v.~ # A j.d.f.f.! >.H.|.'.E.R.R.K.Y.U.U.U.U.H.G.I.",
"Z.H.H.H.H.G.U.Y.Y.E.R.|.E.R.'.Q.Q.Q.R.'.(.l.f.y.y.d.4.`.).^. X X]._._.j.(.#X`.l.A @ W C.y.b.v.>.h.].}.=X=X%X&X&XQ.Q.E.T.E.R.R.Y.",
"Z.Y.U.T.Y.Y.Y.E.{.{.=X=X=XW.=X-X;X&XOXT.F.d.f.y.4.2.f._.^.h.C. X X X_.`.].(.C.! @ 0  .<.d._.y.g.(.+X}.=X8X-X*X*X&X;XW.;X%X%X&X&X",
"Y.R.E.E.E.W.%X=X=X-X-X=X1X-X-X-X8X7X2XZ.7.2.5.g.g.4.g.`.v.<.W q.^.(._.j.C.C.W 0 . t +.>.l._.y.b.z.'.'.<XvX-XrXrX:X:X;X3X=X-X-X-X",
"Q.W.=X;X%X%X=X-X-X1X6X8X7X-X6X7X8X7X=Xa.Q >.v.v.b.y.`.f.j.<.Z F F L S :.,.H # # K @ 7.h.g.b.b.y.>.V.'.=XvX6XrXrXrX6X6X8X8X6XeX-X",
"W.;X;X;X*X;X1X8X7XeXeXrXeXfXfXvXjX9X|.9. .<.v.v.3.5./.:.q.q.S L Z Z Z Z 0 0 # 0 J m t S.).F.f.b.z.C.A.|.-XjXcXrXpXeX7XtXtXtXvXvX",
";X:X8X8X8X8XeXeX8XeXuXvXeXeXrXeXvXjXqX9.9.5.5.S ;.v.5.Z /.5.5.:.;.L L S t @ @ # 0 J K K h.F.l.z.f.C.S.|.wXjX-XjXtXtXtXtXaXtXvXvX",
":X6X7X6X6X6XeXuXuXeXuXuXuXvXkXcXbXjXqX7.:.L Z Z ;.3.F :. Xf.5./././.q.,.H 0 @ $ # @ J ] 7.7.k.l.d.)._.|.|.=XqXjXjXsXhXgXfXfXfXfX",
"6X6XeXpXpXtXeXuXxXuXrXuXcXcXcXcXjXjXbX9.l 0 0 L ;.S S _./.v.)._.|. X|.S.| t . . . . . # | 7.Q 2.Y ~ W K L :.4XqX9XhXgXfXcXxXjXfX",
"pXpXtXtXuXaXuXfXuXfXfXxXcXxXfXfXnXMXqXm 0 0 K L 0 K |.^.h.).H.].+XwX).] 0 o   * + 7 . @ G 7.+.7.>.o.H D ( ~ h.wXbXbXcXcXcXcXhXfX",
"uXuXuXuXfXfXfXxXuXfXxXgXfXxXcXVXiXnXMXO.& @ # 0 :.|.Z.9.H.[.wX+XwX8.v . = 5 * + 2   O r G ..7.h.W V.d.y.3.;.H h.qXbXZXcXcXcXxXVX",
"lXfXfXfXfXxXfXxXhXxXgXtXuXVXDXgXCXAX8XB.  . l =.S._ m } 8.G.&.V l , : 9 u * * u * 9   . J +.9.9.@ +.l.z.y.y.! 0.qXbXcXCXCXCXBXnX",
"fXfXuXxXxXgXxXgXgXhXfXaXDXDX7X!.n.} V 6 . B -._ , o > o 2 5 X v j , 7 6 * u u * < 4 2 - . l 9.S.& D k.f.v.g.d.7.qXbXcXcXCXCXBXnX",
"gXgXgXiXgXxXxXxXxXZXhXdXDX*.`     o 4 8 b b . > , r o % o . T.B.9 8 9 8 8 y y 8 2 7 e 5 = . r m.U & 7.d.f.v.f.2.@XqXVXcXcXCXVXnX",
"sXgXiXiXBXBXBXxXxXtXDX7XV 6 6 9 u X 2 y 9 2 % k @ % r   . C I.%.2 9 j z z c 9 z c 9 s 2 5 X 3 N 6.$ o. .;.:.v.4.).qXZXcXCXCXnXMX",
"gXgXgXgXBXxXxXxXDXfXeX` o , ; O 2 2 n c 3 7 3 % > % + 9 9 9   z c 9 z c N z u 8 6   7 b 3 O -   ' +.G W D S ~ >.V.9XDXcXCXNXnXMX",
"gXgXnXxXBXBXBXBXcXDXP.: j n 6 6 8 y n 4 O 7 e 7 > n v 9 b k 9 9 1 n j 9 6 n C P { p.V 4 9 C = X $ f ,.9.Z Z D ~ u.2XDXDXCXBXnXMX",
"BXnXxXgXBXBXxXBXlXAX} 6 6 6 , 9 j 9 4 c c 5 5 c z 4 5 2 : x V ` } 1 } %X` !.9X{ FX2X} 5 y n 5 =   X q ..7.S A W +.E.hXcXcXcXAXMX",
"xXxXnXBXxXBXxXxXZX*X: j 6 9 e O 9 c 7 7 7 e c 2 P u =.I.B.P !.FX%.b #.HX5XMX2X$.1XN.{ = n - s 4   X @ . D 9.Q  .6.<XbXDXCXCXmXMX",
"VXgXnXlXxXBXBXgXVXm.: : j 9 c 7 O 9 9 4 y m.2XG.9X#.SX%.FX%.4 2Xx * z m.B.} C 4 v !.N.O s N 3 y X   * & 0 @ H h.Z.5XDXcXZXBXnXMX",
"hXxXgXxXgXxXnXgXDX` o j j > 7 9 k 4 c 9 + %.5XM.5Xb r.I.r.x -.N.{ D.} !.;X1XP 4 m.MXHXp.  s s s * *   e @ . q 8.H.5XjXxXZXxXmXmX",
"xXVXxXxXBXnXxXAXgXx 1 1 9 7 7 4 9 7 c e * X.&.$.I D.XXr.m.Y.m.FX5XGX{ SX!.OXr.4 X.` v P + z s n O < ; k @ . & +.G.<XDXfXZXcXDXMX",
"cXVXxXlXBXiXgXAX;X8 1 1 j 9 5 % j e O 2 * 5X$XGXD.OXGXD.p.T.O.p.O.%.I v P v u u u u 4 u C y c y * ; ; , + . - | G.<XSXhXVXcXVXmX",
"xXxXgXxXBXnXnXAXP.: : 6 9 j 5 % 6 c c 9   M.$XT.&.@.s.@.[ R M f M - J d u - I P u u u ` C c u N + < , j > @ . G k.OX9XDXcXxXgXAX",
"xXBXxXiXNXnXnXAXP.: : ; 4 9 9 2 7 n 2 M h p.D.X.E E ^ X.R g U q h g p M I M u u h * ` r.4 v N 4 < + , 7 , + - J M.T.0XdXhXDXnXmX",
"cXcXxXgXBXnXnXAX!.: * * 1 8 5 > 7 7 v   &.D.J..Xt.E E ~ ^ Y G g E Y f f U h d d * X.B.X.N 8 9 V u O < , ; o r | Z.'.=X7XvXDXxXBX",
"cXcXlXxXBXnXMXAX!.1 1 1 8 4 2 O > b 5 d U s.s.J./ ^ ( E / ( / 1.o.Q  .Y f f M P r.r.!.M.' b n s 5 + 6 6 ;   r E a.'.=X8X6XhXxXBX",
"cXcXxXxXBXgXgXAX;X1 1 8 y 4 = + 6 k = 5 I r.e.^ ^ .XoXoXi.1.J.F.k.`.u.Q E U i [ 5Xr.P P v P b B e + 6 , ,   $ d R M.4X0X6XpXnXBX",
"CXBXcXxXBXgXgXmX;X1 * 1 8 = 2 O + 9 b - I J.@./ oX.XoX$Xb.i.t.2._.F.o.a f p h I [ P } y z 4 * c v O ; o + . r d . &.9XdXvX6XnXBX",
"NXBXlXBXgXnXMXsX:Xz + j = O 2   o k C - h r.x.x.c.oX@Xd.F.| Y A ( d.A D ^ p [ [ P T C u 4 b 7 N b , O O +   4 v u O %XDXhXDXgXgX",
"lXlXNXiXxXgXnXMX0Xb ; j < + O o : 6 7 = q e.e.^ t.x.( / `.K ,.L A `.Q p U G [ U P C v C b B B 4 b , O O     * n 9 O *.DXtXmXVXhX",
"NXlXlXnXnXgXhXnXsXV ; 9 * + = + + : 9 s - i.c.x.t.t.x.t.z.1.o.>.1.oX .D @.| T I M P s X n C v e b 9 + +   X - v n 2 N aXsXmXAXcX",
"iXNXnXlXxXnXnXMXnX` < 9 6 O 2 O o ; y d X @.$X$X.Xc.c.c.z.u.y.i.~ k.2.D G U U T P v I 4 c s s b b z O +   o 3 s C j 1 P.DXVXVXVX",
"nXNXiXgXgXnXgXgXAX' 1 8 6 % 2 2 o + = 5 i I $XoXw.x.w.x.c.z.1.A ! k.z.Y a f g M i - - u T s M M c n +     X 3 s n k 6 { mXVXgXVX",
"NXlXnXlXlXgXgXnXmX` : : O + . +     = - i h oX.Xx.t.w./ i.y.D ~ D q w a a a h T X.X.[ [ v J 5XO.9 b         3 9 k j x x 1XZXfXAX",
"BXlXNXiXlXnXgXgXgX` ; o O   .   o   - - * i e.e.t.w.w.x.c./ a 2.1.>. .Y g a - q O.T.5X5X'.T.HX+.8 b +   X . 3 5 k c x 6 ~.DXVXZX",
"lXxXlXiXlXnXiXgXgX` : ; 6 O > O +   = 4 u i ^ w.w.t.x.x.t.t.Q ( Y Q / Y G g p M v R r.Y.+XOXOXM.5 N O   X . 5 e k c j j #.ZXVXiX",
"lXcXcXxXlXlXcXgXrX` : o , ; . > +   . 3 5 * ^ @.E I e.^ e.w.@.@.Y Q o.R g q f d M T [ M.5X'.OXG.n b =     . > m B { =.~.;XVXVXiX",
"xXlXlXlXlXfXxXxXrX) 1 o   : . . + 8 c . q X I X.e.I E I h ^ / g a a q q q f d d d V G.U.G.J.H.p.s s 7   % 3 J =.R.jXDXDXVXBXAXZX",
"lXlXcXlXlXxXlXcX,X: o 6 + , N =.K.I.m., - - g r.I P h I P R P I q r f g E M u u C [ M.G.5XOX5XM.m c v O $.Y.}.=XW.9XbXdXtXiXiXlX",
"fXlXfXxXlXlXlXlX*Xn.#.z , *.=X0X3X2XY.k $ * * X.P C P h I I P P G d T +.V T 4XXX5Xr.d 5XGXJXOX&.4 5 v   ..4X4X}.<X9X9XsXVXAXZXCX",
"fXlXcXcXlXlXlXlXZXnXDXsX%XQ.3X<X<X{.R.O.- r . T X.I C { p.*.M Y.4X5 T.GXd N.HX5X3XXX' %.GXOXT.D.M n v 3 ] =XR.=X=X9XdXhXgXiXiXNX",
"kXkXkXlXxXzXkXlXuXuXgXsXdXQ.{.4X5X{.'.B.r $   y 5X5Xu D.FXGX8.JX4Xr p.SXO.m W.W.0XGX} v 9XOXY.N.c 3 d r J %X}.=X}.0XdXhXVXBXBXCX",
"vXlXcXlXlXzXzXlXZXiXsXaXdXQ.Y.=XOX}.}.U.f $ $ * B.HXD.MXp.E.FXFXr.O { FX} s I.I.L.r.  < M.d r.$.s 3 N n l Z.|.{.=X2X9XaXBXBXlXlX",
"fXuXlXlXlXlXzXkXuXrXAXaXjX1XE.{.+X5X}.Y.m   - * * %.GXSXv v E.E.N b B $.L.{ *.{ !.M.' %.SXm.*.2X{ 7 r s J B.R.}.{.4X9XsXVXBXNXNX",
"uXiXiXiXzXzXzXzXyXkXVXsX0X3XR.W.<X{.0XE.2 % + 4 O n $.{ $.V r.m.' SX2X8 2X' =.=.=.B.$.V 7 n 5 e s > m k m M.G.[.T.OX9X9XmXBXlXNX",
"tXuXiXiXzXzXzXzXCXyXtXtXaX0XQ.OX3X3X2XQ.V   2 9   *.dXL.DXV ~.=.6 I.r.{ n ' I.m.b 2XW.B 2 B V } C 3 3 b 5 V G.T.'.OX5XqXMXgXNXNX",
"tXuXuXiXzXzX,XkXkXyXxXhXhX0XQ.I.=X2X3X3X=.  O 7 O ) $.} B o { W.m.} 0X3XW.#.HX!.} 9X=X' 9 n 7 b b r % v e   &.U.'.[.OX9XsXxXNXNX",
"pXtXuXuXkXzXkXkXzXkXxXtXtXdX0XQ.=X4X2X4XI.7   > 7 ; c ; < 9 < dXm.b 0X8.m.n m.{ 2 z s 6 O 4 9 9 n e 7 7 m $ f M.'.T.OX9XhXBXCXNX",
"tXyXvXkXkXkXkXkXlXkXuXaXsXjX9XR.W.OX<X2X=X'   * 6   C V c 7 6 B V   n     3     O   + 2 + 7 v > k k 7 3 v e . ] H.'.}.9XdXgXAXlX",
"rXrXkXyXkXkXkXkXkXuXuXcXaXaXaX=XE.<X<X{.<X&.  . % 7 O 7 ; 2   O + o O 9 + 2 + 9   + 7 * O O 7 O n k % e r n - - M.T.'.2XdXsXCXzX",
"yXyXyXkXkXkXkXkXcXkXtXfXvXhXhXQ.Z.<XOX{.=XZ.@   .   + O O O 6 ; 2 7   2   O O     O 2 + 7 O 2 6 k 7 , j 9 c m X 6.T.T.3XdXtXxXlX",
"rXyXyXyXyXyXkXyXrXcXtXeXgXcX~.6 8.}.}.+X4XU.r     %   + ; O ; ; + + ; O + + + O   . 2 + 2 O 4 O j 7 j , n k 5 & O.U.R.OXdXsXNXlX",
",X,XyXyXkXuXtXvXrXgX:XmX!.) j o ] |.}.<X}.+X]   . .   > O   < < O + + O + + +     O O * 2 > O < 6 j 6 j j O + o r M.Y.Y.aXtXgXCX",
",X,X,X,XyXuXrX7XVX&XDX1XV o :   r U.'.'.}.4X8..   . X * * O ; + + + + + + . +     + + + + + + 2   6 : o   % 3 $ . G U.=X8XdXuXtX",
",X,X,X6XpXpX7X8X0X1X3X=.} '     & V.+X'.|.+XU.d   . .   O O o   . +     +               +     + ; :   9 ,   . $ @ # +.U.Q.1XDXtX",
">X>X>X>X7X7XjX-X2X=XR.Y.|.T.[ . . ,.#X|.'.+X+X] . . .     O o + +     + X +             .       . % +     % G G | | | B.R.Y.sX9X",
":X:X>X6X-XwX-X=XY.Z.A.Y.A.U.A.] @ W }.'.].}.}.8.@ . .     O   + X +         +             O % O $ @ & 3 ..&.S.9.S.7.h.7.H.}.E.qX",
":X>X6X0XvX=X|.Y.A.|.H.q.V.A.).]. .>.).|.'.|.U.V.d         +   o   o       +       +     O O + . . # G +.Z.h.a.,.d.7.h.7.h.V.|.4X",
":X8X:X%X|.K.K.Z.A.^.).A.^.C.j.S.C.V.C.H.).U.H.Y...$                                 + % O     = m 9.V.V.9.,.7.0.5.0.5.4.7.,.A.V.",
"*X*X!.K.K.K.A.^.A.|.^.^.^.S.(.^.h.C.h.F.).'.'.}.G.d                             +     + +   9 T S.C.u.S.2.7.2.4.5.<.0.<.j.h.7.A."
};
