/* XPM */
static char *west[] = {
/* columns rows colors chars-per-pixel */
"64 64 58 1 ",
"  c black",
". c #6F533A",
"X c #795737",
"o c #7A5737",
"O c #70533A",
"+ c #70543B",
"@ c #72543A",
"# c #795738",
"$ c #775A3F",
"% c #785A3F",
"& c #785B3F",
"* c #7F5C3D",
"= c #785B40",
"- c #7B5D41",
"; c #815F3D",
": c #825F3D",
"> c #82603E",
", c #83603E",
"< c #836647",
"1 c #9C7B61",
"2 c #9D7C60",
"3 c #9F7E62",
"4 c #A07E61",
"5 c #A07F61",
"6 c #A28166",
"7 c #A58467",
"8 c #A78567",
"9 c #AB8962",
"0 c #AD8961",
"q c #A88768",
"w c #A98868",
"e c #B18D66",
"r c #B18E66",
"t c #B39067",
"y c #B49067",
"u c #B59267",
"i c #B79564",
"p c #B69368",
"a c #B9956C",
"s c #B9966C",
"d c #BA976C",
"f c #BB976D",
"g c #BC9B6A",
"h c #BE9B6A",
"j c #BD9C6A",
"k c #BF9D6A",
"l c #BE9D6B",
"z c #BC986D",
"x c #BD9A6D",
"c c #BE9B6D",
"v c #C3A070",
"b c #C3A270",
"n c #C5A270",
"m c #C6A371",
"M c #C7A570",
"N c #C7A471",
"B c #C7A571",
"V c #C8A671",
/* pixels */
".......OXXXXOOOO....##XXXXXXO..............OXXXXXooXOOO.........",
".......OXXXXOO......##X#XXoXOO.............OXXXXoooXOOO.........",
"......OOXXXXO...O.++####oXoXOOOO........OO++XXXXoXoXOOO+........",
"...+$===::::======--**:*::::--%-$%==$$$$%-%%::::::::%-%%====....",
"...$9tttyyyyytttpty94224rryyyyyytty93313rryyrprpryyyyyprtyy9=...",
"...=tzzzzzzzzzzzzzff8848ffzzzzzzzzzd6666fzzzzzzzzzzzzzzzzzzr=...",
"...=tzzzzzzzzzzzzzdd8468dfzzzzzzzzzdq666fzzzzzzzzzzzzzzzzzzp=...",
"...=tzzzzcczzzzzfddz888wffzzzczczzzzq6w8zczczczfcczczzzczzzr=OO.",
"...$tzzzVVBBmBmVVNmmddzzBBBBBVVVBVBBjzddBBmBVVNmVmmVVmmmzzzy,ooo",
"...-tdccVVVVVVVVVVVVffzfBVVBBVVVBVBmzzdzBBVVVVVVVVVVVVVmzzzy>ooo",
"...&tzzcBVVVBBVVVVVVffffmBBBVVVVVVBBczzcBVVVVVVVVVVVVVVVzzzy>ooo",
"...&tzczBBVVjhhhkkkhrppijhjhhhjjjjjzyyyyhkjjkkkkhhhhVVVmzzzu>ooo",
"...&tzzzVVVj<---:,,,::>>----%-&&----%>>>:,,,,,:,---<kVVVzfht>XXX",
"...-yzzzmVVj-+..XXXoXXXX....O+++....ooooXXooooXXOOO-hmVVcfdr>oXX",
"...$yzzzVVVj-O..XXXXXXXX....++++....ooooXooooooX...-hVVmzcdr>ooo",
"...=yzzzmVVj-+++::::>>>>-$----%-----,>>,,,,,::::O..-hVmmdzdr;XXX",
"...=tzzzVVVk:Xo:rrpphhkkjjjjjjjjjjjjkkkkkjjhyyy9:XX:rfzzw8q3=..+",
"...$tzzzmVVk:Xo:rfzzVVVVVVVVVVVVVVVVVVVVVVBBczzy:#X:pzzf8661...+",
"...-pzzzmVVk:oo:rzzcVVVVVVVVVVVVVVVVVVVVVVVBcczy:XX:rfzd8663=...",
"...=tzzzVVVk:Xo:pczcNVVVVVVVVVVVVVVVVVVVVVVVczzy:XX:pzzd8865=...",
"XXX:tzzzmVVk,oX,hVNVVVVVVVVVVVVVVVVVVVVVVVVVVVVj-O.-hBBmdddr-...",
"XXX:yzzcmVVk,oX,hVVVVVVVVVVVVVVVVVVVVVVVVVVVVVVj-..=jBVBfddt$...",
"XXX:tzzzmVVk,oX,hVVVVVVVVVVVVVVVVVVVVVVVVVVVVVVj-..-jBBBzzzy=...",
"XXX>rddcNVVh,oX,kVVVVVVVkjjjkkkkkkkkjjjkVVVVVVVj-..-jBVBzzfr=...",
"XXX:568wfzzp:XX>kVVVVVVj<---,>,,,,>>-&-<jVVVVVVj-.O-hVVmzzzy>ooo",
"XXX:3666fffy:XX>kVVVVVVj-+OOooXooooo+++-jVVVVVVj%..-jVVmzzzr>ooo",
"XXX:556qzzfy:X#>kVVVVVVj%OOOXooXooooO++&jVVVVVVj-.O-jVVmzzzd>ooo",
"XXX:568wzlz >## k     Vj   +,     ,>+++-jVVVVVVj-.O-jVVVzzzp>ooo",
"..O=rafzNmV -+. h VVVVV >Xo ijk kkki:XX>vMMVVVBj%..-hVVmzzdt*XXo",
"OO.=rdzzmVV -O. h VVVVV ,oo,kVV VVVk,XX,jVVVVVVj-..-jVVVczzt>ooo",
"...%rfffVVV -.. h VVVVV >Xo,kVV VVVk,XX,jVVVVVBj&..-hBMBzzzt>ooo",
"...%pfffmVV - . j    VVk   ,kVV VVMh,XX,jVVVBBBj-..-hmBBzzd0>XXX",
"...=dzzzBVV - O j VVVVVk:oo kVV fzhr:oo,kVVVffcp:oo:pzzzw884=...",
"...=rzzlBVV - . j VVVVVk,oo kVV zzkr:oo,kVVNcffy:oo:yzzzw453=+..",
"..O-rzzzBVV - O j VVVVV ,oX kVV czzr,oo,kVVVccfr:oo:yzfp8444=...",
"...-yzzzBVBd . -j     Vj   :ikk yyyr:oo,hVVNfffp:oo:pfca8884=...",
"#XX>pzzzBBBj-OO%jVVVVVVj-OO+,,,,::>>@OO:hVVVzczy:oo:hVNVadae=...",
"#XX:yzzzBBVj-OO=jVVVVVVh-OO+XoXXX###OOO=hVVVcfcy:oo:hVVVffde=...",
"XXX:pzzzBBVj-OO-jVVVVVVj-OOO#Xo#XX##OOO-hVNNcfcr:oo:kVVNffap=...",
"XXX:9zpdBBBj-OO:jVVVVVVj<---,,,,,>>:-=-<hNNNczfy:oo<kVVVzfae=...",
"XXX:368qffhp:oo:kVVVVVVNckkhkkkkkkkkhhhjVVVVccfy:oo:kVVNzzfp:###",
"oXX:3358fffr:oo:kVVVVVVVVVVVVVVVVVVVVVVVVVVBfccr:oo:kVVNczft:###",
"ooo:5656fffp:oo:kVVVVVVVVVVVVVVVVVVVVVVVVVVmcffr:oo:kVVNczzp:o#X",
"ooo:568wfzfr<oo:jVVVVVVVVVVVVVVVVVVVVVVVVmVmccfp:oX:kVVNzzzf:XXX",
"oo#:rdddmmVh:oX:pczcVVVVVVVVVVVVVVVVVVVmdflzzzcr:oo,kVVNzffp:ooo",
"ooo:pfffNVVk:oX:rzzcmVVVVVVVVVVVVVVVVVVVzzzzzzfr:oo,kVVNczfr:ooo",
"oo#:pfffVVVk,oX:pfffmVVVVVVVVVVVVVVVVVVVzzzzzzzr:oo,kVVmfzfr:ooo",
"###:pfffVVVk,oX:rrrphkkkkkkkkkkkkkkkkkkhprprprpe:oo:hmmNzzdr:XXX",
"OOO=yfzzVVVj-+++>>>>>>,,,,,,,,,,,,,,,,,,::::>>>>@OO-rccfqqq4=+..",
"OOO=yfzzVVVj-+O+oooooooooooooooooooooooooooXXoooOOO=pfcfq553=+..",
"OOO=pfzzVVVj%+OOoo#oooooXXooooX#ooooooXXooXXXoooOOO=rfdd5653=...",
"OOO=pzzcVBVz<--%,,,,>>>>::>>,:::,,,,,,::::;>>>,>---<pffdqq65=...",
"O..=rdzcmVVVjjjjzjkkzfmfyyiphkkkkkkkkkkhyryizjjkhhhhmmVmffdw=...",
"...=pfzzmVVVVVVVVVVVVBmmfhzzVVVVVVVVVVVmhfzzBVVVVVVVBVVmfffp=...",
"...=rffzmVVVVVVVBBBBVVmmzzzzVVVVVVVVVVVVfzzcBBVVVVVVVBVBfzfy=...",
"...=pdzzmVVmVVVVBBBVBVmmzzzkmmVmmNVVVmmnzffzBBVBVNVmVBBmzzf8=...",
"...=yzzzdfzzlzczcjzzww88zzzzzzzzfzzcczcz868wzzzzcczzzzzzzzzy-OO.",
"...=yzzzzzzzzlzzzzzzq358dzzzzzzzzzzzzzzf8666dzzzzzzzzzzzzzzy%+..",
"...$tzdfzfzfffzzfzzp8556ddzzzzzzzzzzzzzf6666dzzzzzzzzzdfzzzy-...",
"...-9tprprprrprpttp055339ryyytpryyyyrprr33339yyyyyyyypprpyyw$...",
"....$=======,,::>:::$-%$-%%-%-%%::::::::$$+%&%%%>>>>=======%X#XX",
"........OOOOooXXXXXX....++O+OO..XooooooX..++++++ooooO.O.OOOOX#XX",
".......OOOOOXoXoXXoo........OOOOXXoooooX....+..+XXooO...OOOOXXXX",
".......OOOOOXoooXXX.........OOOOXooooooX........XXXoO.....OOXXXX"
};
