/* XPM */
static char *_d2679218b43469d8fd293124a97c381M73PpGPmSoEBgpZZ[] = {
/* columns rows colors chars-per-pixel */
"64 64 256 2 ",
"   c #1B1616",
".  c #351518",
"X  c #181A22",
"o  c #2C1928",
"O  c #282828",
"+  c #393738",
"@  c #342F30",
"#  c #212327",
"$  c #4C161A",
"%  c #5B2519",
"&  c #672819",
"*  c #69331A",
"=  c #702F17",
"-  c #4F1B27",
";  c #5B2826",
":  c #592A32",
">  c #57363B",
",  c #4D3331",
"<  c #642D23",
"1  c #652A27",
"2  c #742C24",
"3  c #683529",
"4  c #773728",
"5  c #622C34",
"6  c #6B3A35",
"7  c #763A38",
"8  c #631E16",
"9  c #4C433B",
"0  c #6C4436",
"q  c #764739",
"w  c #754A30",
"e  c #383A4F",
"r  c #1B3373",
"t  c #24316B",
"y  c #263578",
"u  c #2A3372",
"i  c #1F285F",
"p  c #463D43",
"a  c #563949",
"s  c #6A3B4B",
"d  c #3A4952",
"f  c #384B70",
"g  c #3E617F",
"h  c #484648",
"j  c #574949",
"k  c #474956",
"l  c #574E54",
"z  c #49525C",
"x  c #575759",
"c  c #58524A",
"v  c #684847",
"b  c #784947",
"n  c #655248",
"m  c #7C5747",
"M  c #774855",
"N  c #665958",
"B  c #775959",
"V  c #684953",
"C  c #67625B",
"Z  c #756757",
"A  c #4A5768",
"S  c #565C66",
"D  c #495A7A",
"F  c #505074",
"G  c #655B66",
"H  c #785765",
"J  c #6F587C",
"K  c #58636A",
"L  c #586777",
"P  c #4F6672",
"I  c #676769",
"U  c #756968",
"Y  c #656976",
"T  c #787679",
"R  c #717075",
"E  c #55645F",
"W  c #3F403B",
"Q  c #863B2B",
"!  c #863C33",
"~  c #81351B",
"^  c #87472B",
"/  c #8A4837",
"(  c #934C3A",
")  c #945538",
"_  c #8B5739",
"`  c #9C6A3C",
"'  c #854C47",
"]  c #8A5647",
"[  c #975A48",
"{  c #864B57",
"}  c #885956",
"|  c #965A59",
" . c #934D53",
".. c #88664A",
"X. c #996449",
"o. c #8B6755",
"O. c #976656",
"+. c #99735B",
"@. c #97734D",
"#. c #A6694A",
"$. c #AB734C",
"%. c #A56958",
"&. c #A87457",
"*. c #B67750",
"=. c #875A64",
"-. c #975B65",
";. c #8C576F",
":. c #886666",
">. c #976967",
",. c #9B7468",
"<. c #876978",
"1. c #986A75",
"2. c #8D7572",
"3. c #A56C66",
"4. c #A87666",
"5. c #B67C6A",
"6. c #A67474",
"7. c #A15C5C",
"8. c #7B817A",
"9. c #AB8758",
"0. c #968474",
"q. c #B58A70",
"w. c #C4957A",
"e. c #DDB574",
"r. c #1E3C85",
"t. c #293985",
"y. c #343C88",
"u. c #145198",
"i. c #2B4489",
"p. c #37458A",
"a. c #2C4A93",
"s. c #395698",
"d. c #365091",
"f. c #39679E",
"g. c #326794",
"h. c #1B5AA5",
"j. c #1B4EA1",
"k. c #3A5CA4",
"l. c #2756A4",
"z. c #3867A9",
"x. c #306DAF",
"c. c #1A64A2",
"v. c #485A89",
"b. c #585A89",
"n. c #455A96",
"m. c #4E5892",
"M. c #586A87",
"N. c #496599",
"B. c #586796",
"V. c #546E8C",
"C. c #697587",
"Z. c #787B88",
"A. c #697899",
"S. c #717191",
"D. c #455AA5",
"F. c #4769A9",
"G. c #576BA5",
"H. c #5774AA",
"J. c #476CB3",
"K. c #4776B5",
"L. c #587AB5",
"P. c #4974AA",
"I. c #697AA8",
"U. c #767CA6",
"Y. c #677DB4",
"T. c #6D77B0",
"R. c #665E97",
"E. c #5679C3",
"W. c #8C788C",
"Q. c #A57D87",
"!. c #857EA7",
"~. c #3A81BE",
"^. c #798698",
"/. c #708792",
"(. c #5483B6",
"). c #6A84AA",
"_. c #7984A9",
"`. c #6985B6",
"'. c #7484B3",
"]. c #7988B6",
"[. c #7D91B8",
"{. c #7492A8",
"}. c #57809E",
"|. c #548AC7",
" X c #728FC6",
".X c #888899",
"XX c #968B9C",
"oX c #8C888C",
"OX c #AB8589",
"+X c #B38A95",
"@X c #A5959A",
"#X c #B79899",
"$X c #AD8C90",
"%X c #8C8BAB",
"&X c #8786A8",
"*X c #938DA5",
"=X c #938CAC",
"-X c #9A8BA9",
";X c #8891A9",
":X c #9492AC",
">X c #9C93AC",
",X c #9A94A7",
"<X c #848CB4",
"1X c #8C8CB3",
"2X c #838DBB",
"3X c #8786B7",
"4X c #948DB2",
"5X c #988CB4",
"6X c #8C91B4",
"7X c #8892B9",
"8X c #9493B4",
"9X c #9B93B3",
"0X c #9998B9",
"qX c #A48CA7",
"wX c #A394AC",
"eX c #AB94AB",
"rX c #A49AAC",
"tX c #AB9AAC",
"yX c #A695A5",
"uX c #B39CAB",
"iX c #B89BA6",
"pX c #A39AB4",
"aX c #AC9CB4",
"sX c #A697B6",
"dX c #B59CB5",
"fX c #A48BAF",
"gX c #B7A3AA",
"hX c #AAA2B7",
"jX c #B7A5B6",
"kX c #ADA6AE",
"lX c #ABA5A9",
"zX c #C59893",
"xX c #CAA99B",
"cX c #D3AA94",
"vX c #C39BA6",
"bX c #C19BB0",
"nX c #C6A7A8",
"mX c #D6AAA9",
"MX c #D8B5A9",
"NX c #C7AAB6",
"BX c #D7AAB4",
"VX c #D7B7B6",
"CX c #CAB4B3",
"ZX c #E5BAAC",
"AX c #D9C4B7",
"SX c #EAC7B5",
"DX c #E2C49E",
"FX c #8995C4",
"GX c #9192C4",
"HX c #A49EC3",
"JX c #8EA8CD",
"KX c #ACADCB",
"LX c #CEB5C3",
"PX c #D7C8C8",
"IX c #EDD5CC",
"UX c #EFDEE1",
/* pixels */
"H.B.V.C.C.A.A.u.c./././.^.{./.^.K /././.C.A.C.A./.L U.^.^.K.g.Y {.)./.U C @XL }./.C.Y {.K L x.}./.)./.{.^.Y ).x.x./.A.A.C.B.H.(.",
"I.I.A.).A.I.).c.c.A z z K A P z # Y @ G D f x S 9 O S Y S (.d O Y z K 9 X 2.O h S + O /.# P ~.f O V.@ I h   L x.z.).{.).A.I.Y.`.",
"_.].).'.I.).I.c.c.A k k K S P k V.g.X Z V.D x G z K j L P F.z P x I I Z C C @XR x I Y N L (.(.A + C.O R l Y S (.z.I.'.'.].`.'.`.",
"=X_.U.).I.I.).c.c.A j h I x K h P }.+ 9 D g.+ S A A z K A K.d P N I G @ Z 0 8.JXd K P K z (.(.A h C.O S z Z.A |.P.A.'.'.].].<X'.",
"wX%X_.).U.I.I.l.c.A @ d R # X z   T z , L x.O z z L k P S `.d L E E K 9 c ..@ ^.z S K I   L |.S x Y h p S ^.A `.H.R._.2X7X7X8X8X",
"eX%X_.'.U._.^.s.c.f + + K z P h L V.A O v.z.d P d E c P K FXd P x I C n , 2.T h x S D C S (.H.G S I x @ x Z.S L.K.S._.7X7X0XpX>X",
"eX*XU.U._.&X*Xz.x.d @ + L K Y h A.P.I @ V.J.z g.A Y h Y K KXA Y C l c Z c 0.C.d l K L N L |.(.@ X G I p x R A |.J.U._.6X8X9XpXrX",
"eX-X&XU.&X=X-XP.K.f @ @ Y S K h O U K d M.L.h M.h O Y O x  Xe @ U @ 9 Z n :.  k x e O /.O L (.x R d Y k k X L (.x.U.'.<X>X9XrX0X",
"iX,X=X%X&X-XwXI.H.V./.C..X.X^..Xl Z.{.Z.&XI.!.).M.I ].A A.K.M.N o.N :.@.0.@.K A.^.L Y KXE L `.^.{.W..X_./.K ].x.z.'._.[.7X6X9X9X",
"uXyX-X=X%X-X>XU.Y.(.L.L.`.).`.).GX=X3X].I.I.].I.Y.].K.'.P.x.!.o.3 9.9.9.e...(.z.P.(.K.|. X X(.`. XL I.JX`. XL.E.K.`.].].[.6X8X8X",
"iXeXwX,X*X*X,X5X*X&X'.T.A.).).<X@XNXiX'.T.=X_.-X4X=X_.).L.U.;.s n 0 q.9.e.0 V.x.f.J.x.K.L.T.'.Y. XF S.I.`.`.'.Y.K.'.].].[.<X6X8X",
"uXyXyXyX*X&X*XdXwX*X[.U.A.].5X-XiXvXvX-X=XnXiXNX9XXX.X!.&XJ - - V h e.9.9.q oXP.JX0XP.).Y.'.'. XR.k b.].].2X5X%XY.].<X2X[.<X6X6X",
"yX,X,XyX,X6X*XiXiX&XH.I.U.U.&X!.!.&XqXuXnXSXMX@XeX!.pXjXH a : $ . s 3.;.>.1.xXjXVXCXI.I. X].2X XT.R.m.2X7XHXkXhX].<X<X2X7X;X8X0X",
";X*X,X>X,X>X>X#XmXXX).U.*XqXLX@X-XuX&X,XnX#X@XiXnXqX:.#XH ; 5 - . s Q.W.xX$Xw.BX+XBXKX`. X].FXY. XFXS.U.0X:XkX>X6X6X<X2X7X8XhXhX",
";X=X*X:XqXyXyXnXqX5X!.&XsXnXSXMXMXSXNXeXqX!.iXnXwXQ.v <.> : - - $ - W.BXH yX$XjXNXnXjX|.L.Y.Y. X X XFXA.FX2X-XsX6X6X7X2X;X0XhXjX",
"{.&X*X=XwXyXuXVX@XeXiX-X&XiXiXiXmXMXZXmXvXmXZXMXXXo.V v : : % . . . M BX#Xs q.PXSXmXCX`.Y.'. XY.].`.].'.[.7X:X6X6X6X7X7X8X0XhXjX",
"&X_.%X*XwXeXeXgXMXiXeX*X&X*X-XeXMXZXmXZXBXBXnXvX6.-.<.v 5 ; $ $ $ $ s #XiX$Xs VXVX3.NX2X[.2X2X%X6X<X[.].[.<X6X6X7X8X6X6X7X7X0XhX",
";X%X&X;XrXsXwXyXaX,X,X-X=X%X&X&XwXdXiXbXvXgXNX1.-.| -.=.: - . 9 - 5 s 1.OXOXQ.qXUXB G GX5X5X4X1X%X6X7X[.2X[.[.[.8X1X7X7X7X0X0X0X",
";X%X%X*XwXsXwX&X&X;X>XyXyXyX>X1X&X5X5X!.&X0X-X;.;.o.:.M b 3 w ` 1 5 M M OX+X+X<.UXIX#X5XeXjXwXwXyX>X=X<X7X:XtXjXjX:X7X7X7X0X0X0X",
"%X4X=X,XyXaXsX&X_.%X*XyXuX#XuXtXdXbXdXfX5X6XW.;.1.>.B H =.1 w * 8 s { M =.+XNX#XCXUXCXU.hXBXNXNXkXpX8X2X7XpXNXIXNX0X0X7X7X0XpXtX",
">XwX=X,XrXtXhX2X{._.&X:XpXwXwXfX5XsXdXNXNXLXW.;.>.-.} :.| 7 5 5 7 ' ' { s Q.bXiXNXPXPXHXGXsXaXfXjXpX;X[.[.7X:XrXhXtXpX0X0XsXhXhX",
"eXqX,XrXtXuXsX&X;X<X!.XXwX5X5X1X].T.5XsXjXbX{ -.>.,.6.:.>.[ } | | s | { a H +X+XvXPXPXLXT.GXFXFXGX0XhX0X7X<X6X8X:XhXuXjXhXjXjXjX",
"gXiXqXrXiXiXeX&X:X:X-XeXtXwXfXsX5X3X3XT.HX;. .-.1.3.1.:.1.} =.-.'  . .{ s s +XOX$XnXCXAX!.FXFX]. X2X<X<X7XGXHX0XpXaXhXaXaXjXdXKX",
"nXgXeXwXuXiXuX9X&X=X>XeXdXjXdXdXbXiXfX5XW.;.-.1.,.,.>.U :.} } ' } ]  .} s o W.1.OX+XnXVXGX].3X].5XsXrX0X6X0XaXgXjXrXsXpXaXaXdXdX",
"NXiXeXtXiX#XgXVXgX9X-XeXuXeXdXLXLXBXBXdXJ { 7.>.,.+.:.H H o.m  .O.3.7.| } . H Q.<.iXmX#XfX3X3X3X7XaXBXZXnXdXNXnXgX=X0X>X0XHXpXpX",
"uXtXrXtXgXiXnXSXMXnXeXtXiXyXaXsXBXBXBXbX;. .-.:.,.,.o.:.B m q ' 4.5.4.-.-.- M Q.1.Q.vXxXqXpX1X4X<X'.6X0XjXLXKXjXjX9X:X:X9X0X0XhX",
"fXpX>XwXuXxXnXCXmXNXyXrXvXmXzXvXvXmXBXQ.s  .:.1.,.,.o.=.{ q q ] 3.w.3.7.-.M H Q.6.OX+XxXiXjX-XfX4X6X6X&X3X3X6XhXkX0X9X8X0X>XrXhX",
"9X>X>XyXiXxXnXfX9X>XyXeX#X#XmXZXZXBXBX1.{  .>.2.4.+.O.} m / ' [ 5.q.3.| 7. .Q.W.6.Q.#XmXgX*X5XfXeXtX>X9X0X8X0X0X,X9X9X9X9X>XlXhX",
"tXpXwXwXwXiXgXfX1X%XfXCXnXMXMXMXBXBX+XM {  .>.,.,.+.} O.' ] ] O.5.5.5.7.7. .Q.;.Q.OXxXMXCX!.%XqXqXwXsXsX9XwXlXlX9X5X8X8X0XuXgXkX",
"dXaX5X4X:X,XgXdXiXsX=XXXCXZXZXVXBXBX1.s { } ,.>.,.,...>.] ] O.4.5.5.6.3.7.-.-.1.Q.zXxXmXIXpX*X@X-X-X4X6X4XeXnXnXtX0X0X0X0XtXgXgX",
"fXsX5X%X&X=XwXdXLXLX5XU.1X%X%XhXbXvXs { -.| ,.>.4.+.o.} X.] 3.4.q.5.3.|  .7. .1.6.OXq.SXIXlX*X,X>X:X1X8X0XwXgXgXgX:X8X5X9XtXuXNX",
"8X0X5X=XXX8X3X3X!.1X%X!.3X%X&X'.0XXX7  .>.3.1.:.4...O.] ] [ %.%.5.4.%. .7.-.7.6.6.q.w.ZXIXKX&X5X2X%XjXdX0X0XrXLXMXsX0X4X9XpXhXjX",
"3X4X%X3X=XfXfX!.<X3X=X-XqXfXwXsXnX=.7 ' :.,.1.3.&.O.o.[ ( [ #.7.%.[ #. . .| 7.%.*.&.zXMXSXPXdXfX-XqXeX&XT.aXdXVXBXuXsX5X5XsXdXnX",
"5X4X%X1X5XsXeXdX5X4X3XHXdXvXiXnX$X; 7 { =.1.6.3.%.X.} ' ( ( [ *.#.) (  .7.7.%.%.) q.w.cXSXCXqXeXbXMXxXBXeXqXjXiX@XuXdX9XsXsXdXNX",
"sX4X2X3X4XwXiXBXNX9XY.].aXNXbXxXQ.$ m } 3.,.3.3.%.X. .[ _ / ) ) ( ! Q ! [ ! ' %.5.q.zXcXSXCX@X@X5X;XbXdXqX9XNXmXnXuXeXqX-XsXuXnX",
"dX6X<X'.&X9XeXNXnX9XY.H.I.3X-XnX3.% ' O.6.>.5.3.O.] ] %.( / ^ [ ! Q ! ! 7.7.7.%.*.w.cXZXIXAX@XyX&X&X&X&X'.'.*XgXgXyXtXpX=X-XuXiX",
"uX4X<X'.].1X4XeXwX-X=X9X3X5X<.! 5 1 | O.4.o.4.4.%.]  .X.[ Q ^ ) ( 2 8 $ 8 ! ! ( ( [ w.w.SXVXnXbXiXyX%X,XuXI.:XiXgX>XwX-X4X1XrXvX",
"eX9X1X1X1X7X1X&X&X0XLXVXbXNXOX= - 2 O.4.4.+.4.4.*._ [ [ #.( ^ ^ ^ 2 1 6 $ 5 ' | 3.%.5.zXq.iXiXgXgXsX8XuXBXA.2XtXtX*X:X,X%X'.:XiX",
">X9X9XsXsXsX5XU.T.!.HXdXNXnX+X1 ; 2 X.&.5.&.&.%.#.^ ' %.( ( ^ / Q 4 4 2 ] 6 7  .3.3.zXCXAXCXNXnXnXjX>X,XtX.Xt.I.HX8X*XyX*X'.&XwX",
"4X-XsXjXdXdXdX&X2X_.T.GXW...' 1 % q &.#.&.$.&.%.#.^ ] [ ! ( ( / ^ 4 * 2 2 ( ' %.%.zXDXDXMXnXxX$XxXDXnXyX@XxXv.r B.>XyXuX*X^.U.&X",
"<X%XHXdXaXdX+X'.'.`.`.I.J w % < % q @.%.&.#.&.*.#.^ /  ./ / ' ( / Q 4 Q % ; Q ^ s ] %.) $XNXMXlX@XxXMXgXqXnXC.r f ,XeXgX@XU.G.S.",
"_.<X6X5X5XqXQ.&X3XU.T.W.:.= & * & w @.$.&.$.$.*.$._ 4 _ ^ Q ^ ( Q Q 2 < * % & 2 = ~ Q ) xXdXCXpXgXmXMXnX:XG.J.y y yXtXlXyX.XB.m.",
"'._.3X&X&XW.:.*X:X<XA.b 0 = = * ; q @.$.X.%.O.X.$.` 2 4 ! / 7 Q 4 2 2 4 3 * 2 4 = 4 / *.AXNXSXgXcXxXcXXXH.a.d.S.B.iXgXyX#XXXR.f ",
"'.'.T.U.U.<.B &X9X=X).q = 4 ^ 3 ; q X.$.$.[ %.$.$.@.4 & 4 ! / 2 4 2 & 2 2 4 4 * Q ^ ^ $.CXKXNXjXiXyXMX*Xa.H.H.H.I.gXiX,XwX.XB.i.",
"3X].T.S.T B b '.!.2.Z.3 & Q 6 3 % w _ ..[ ` #.` $.$./ 8 2 = 8 = = = 8 = & & & = = = ~ 9.VXjXrX1X,XnXMX4Xz.k.a.i.d.nXvX.X&XU.v.p.",
"&X2XT.S.H ' v Y.R q 6 * & 3 w 3 3 o.o.q.q.0.0.5.$.q.q.} q b } o.O.| b } Q 4 m } ] ] #.cXLXAXAXCXnXiX&XD.l.t.t.t.u #XuXU.I.G.N.v.",
"%X_._.R M w 6 B.N 3 3 8 * 0 q < n Z U 0.@ T :.Z ,.9 j U N x N @ I U j n 6 V @ k 2.N 0.c oXe @ VXmXnX'.k.a.u u i.f #XwXI.F.n.F.N.",
"&X.XS.U b 3 4 L 0 < 1 = % w w 0 q , C l c c I N ] > E k h , + h l p , p G Q.l j c j 0.@ 2.T U DXcXmXFXy.y y u v.t #X%XG.n.n.n.B.",
"oXW.R H 3 = w V , % % 3 1 w w 6 m h x E Z l U n @.9 OX9 h W 9 U > h + h T.E.L T G 8.2.h Z.oX0.PXCXAX>Xs.u u u t.u qXU.D.D.n.n.k.",
"<.U H v 3 * 4 v : * % < < 4 w 6 [ , 9 C B x Z C %.> Z j , d d @ Z h n k D.J.k A.h # Z.l Z.Z.oXLXjXPXHXy.t.y i u u !.T.k.d.a.p.a.",
"B b v 6 & < 6 j ; < ; < 0 0 ] q ) n c C Z l Z x ..B , R h h h h U j Y k s.j.f L e d Y U <.Z.0.UXPXPXGXy.y t i t f !.G.k.a.i.t.i.",
"B 0 6 * & < 4 6 % < ; < w 0 ] q _ Z Z c U l U x ] 2.x I + h h U 5 x V.k f.a.d P A K S X l oXoXIXIXKXD.d.i i t.r.y.T.n.y.t.t.t.y ",
"0 3 < & * < 6 > ; 3 6 1 0 q m m ..n C n + C p h ' + h I d h h 9 U @ Z.9 M.k.d d.d A h z S R oXUXIXKXD.n.r t y r.y.G.s.y.y y y p.",
"> < % & < < 6 5 ; 1 6 3 w q q m ..:.:...h q.n Z 0 , N 2.R U U , T k K K z g.g N.B.C.C._.B./.{.JXJX).D.y.y y r r y.T.D.t.u y u y ",
"> < ; ; 3 3 4 6 ; < 0 6 w m w m @.&.&.) q.*.5.( 1 , M 6 , > M } H (.l.f.l.h.k.x.z.K.(.x.E.|.K.~.|.z.n.t.t.t.y r.a.T.p.y.u y u y.",
"< & % ; 3 < 3 6 6 3 3 6 0 w m m @.+.] ` ` $.#.! : - : B c B T o.I P P.C.h.u.u.u.u.j.u.h.h.h.c.x.~.z.a.t.y t.r r.a.T.n.t.u t t y ",
"; < % ; 3 3 3 3 0 3 6 6 b m ....+.&..._ #.$.#.' ; - 5 N X Z o L S   M.  V.u.u.j.l.h.h.l.x.l.x.x.K.J.i.i.i.d.a.a.i.T.m.t.u i u r ",
"; < < : 3 6 0 3 6 q 6 q q ....@.O.4...[ $.*.[ / , . ; a c B @ A (.S v.O P.l.l.z.z.z.k.z.K.J.J.K. XFXH.L.B.G.`.m.D.G.y.t.t i t y ",
"% 3 1 1 > w q 3 6 7 q q w Z m o.,.9...[ [ *.[ s : . : > h V e P N.d V.h m.J.F.z.F.J.K.J.F.J.J.k.z.E. XJX X X X`.E.G.y.u t r t t.",
"; 3 3 ; 3 0 q q 6 b 0 q ..m o.o.4.9.$.X.#.[ ' 2 > $ : a n v l P M.f V.x M.L.L.J.J.k.k.F.z.D.J.J.z.x.x.(.|.x.x.x.J.F.v.t.r i u r ",
"; 3 3 6 3 6 w 6 0 w 0 0 m m o...,.q.$.[ #.[ ' 7 - . > j j n l S L v.D j b.Y.G.F.J.J.F.F.z.s.s.F.f.s.d.g.J.z.g.k.s.s.p.t.u r u t.",
"; 3 5 6 6 0 _ b 6 0 0 0 0 m o.@.o.&.X.$.%.| ' s - , > l U U   d x <Xz   F G.s.n.d.D.m.d.p.d.v.G.F.F.L.F.P.N.n.N.N.D.t.y t.r t.r ",
"< 3 6 6 6 0 q 6 6 0 w b v m +.@.] &.#.*.X.| b 5 o , V a O S C.S @ e N T F N.p.m.v.F D D f f F F v.n.N.H.L.G.B.B.N.n.t.t.t.t.r r.",
"3 3 6 7 0 0 q 0 b 0 w m m ....@.| &.$.#.#.' 7 : , v G <.T XX^.*XoXY .XU.^.M.b.R.R.b.b.b.b.b.b.F F v.v.m.m.m.B.R.B.y.t.y t.t.y r."
};
