/* XPM */
static char *ac6a33d7f3c64739cf2598dd8fb073baVSSZpe48cPy4UFtq[] = {
/* columns rows colors chars-per-pixel */
"64 64 256 2 ",
"   c #1A1508",
".  c #191717",
"X  c #170A06",
"o  c #281809",
"O  c #351A07",
"+  c #241C13",
"@  c #281B15",
"#  c #250A02",
"$  c #192519",
"%  c #112C06",
"&  c #37230B",
"*  c #2C251B",
"=  c #282619",
"-  c #362719",
";  c #35351C",
":  c #2D321E",
">  c #2A2723",
",  c #362C24",
"<  c #383627",
"1  c #33352F",
"2  c #241921",
"3  c #442A19",
"4  c #49321A",
"5  c #493315",
"6  c #463727",
"7  c #443C34",
"8  c #53382A",
"9  c #305210",
"0  c #3A452A",
"q  c #3B4538",
"w  c #3A4E2B",
"e  c #2E5C12",
"r  c #49531A",
"t  c #556818",
"y  c #6A7118",
"u  c #46482B",
"i  c #58432B",
"p  c #484738",
"a  c #574836",
"s  c #4B5739",
"d  c #575838",
"f  c #4F5529",
"g  c #634A38",
"h  c #655639",
"j  c #58683A",
"k  c #516B2F",
"l  c #767929",
"z  c #697738",
"x  c #6B7032",
"c  c #4D3844",
"v  c #544B44",
"b  c #4C5446",
"n  c #575848",
"m  c #53524A",
"M  c #6A5947",
"N  c #755846",
"B  c #65584F",
"V  c #586945",
"C  c #577347",
"Z  c #566B4E",
"A  c #666747",
"S  c #776747",
"D  c #777849",
"F  c #666856",
"G  c #776956",
"H  c #677757",
"J  c #787756",
"K  c #687647",
"L  c #767965",
"P  c #707463",
"I  c #857C2F",
"U  c #856A57",
"Y  c #877657",
"T  c #8A714F",
"R  c #8B7966",
"E  c #957B64",
"W  c #8D776B",
"Q  c #A37963",
"!  c #79862C",
"~  c #718536",
"^  c #5E833E",
"/  c #5B874E",
"(  c #678849",
")  c #798647",
"_  c #6A934A",
"`  c #6B8856",
"'  c #788859",
"]  c #769758",
"[  c #76964B",
"{  c #71A25C",
"}  c #768667",
"|  c #7A9868",
" . c #7C8971",
".. c #699364",
"X. c #7BA665",
"o. c #79A371",
"O. c #878838",
"+. c #898D35",
"@. c #89954A",
"#. c #989748",
"$. c #87885B",
"%. c #899558",
"&. c #989858",
"*. c #91884C",
"=. c #99A65A",
"-. c #8FA452",
";. c #A7A958",
":. c #B5B254",
">. c #878868",
",. c #958766",
"<. c #88976A",
"1. c #96976A",
"2. c #868B78",
"3. c #8A9778",
"4. c #979B79",
"5. c #9A8975",
"6. c #A99071",
"7. c #85A667",
"8. c #98A867",
"9. c #9AB469",
"0. c #89A778",
"q. c #97A577",
"w. c #8AB77A",
"e. c #97B578",
"r. c #8AB569",
"t. c #A5A969",
"y. c #B9B569",
"u. c #A9A677",
"i. c #B6A977",
"p. c #A8B777",
"a. c #B2B372",
"s. c #A59857",
"d. c #C3B75D",
"f. c #C7BB67",
"g. c #CDBC76",
"h. c #AFC37B",
"j. c #A4C26B",
"k. c #E6CC5C",
"l. c #EDD25B",
"z. c #D8C86A",
"x. c #DCCA74",
"c. c #DDD47A",
"v. c #D2CC6C",
"b. c #E9CA68",
"n. c #F5CD68",
"m. c #E9D46A",
"M. c #F4D66A",
"N. c #E6CD76",
"B. c #EBD47B",
"V. c #E8D776",
"C. c #F5D977",
"Z. c #F2CD77",
"A. c #F9E377",
"S. c #EEE46D",
"D. c #DBD75E",
"F. c #8C9483",
"G. c #989887",
"H. c #888D86",
"J. c #AB9A8A",
"K. c #99A786",
"L. c #98B887",
"P. c #9CA893",
"I. c #9DBA93",
"U. c #8DB282",
"Y. c #A4A889",
"T. c #A6B789",
"R. c #B7B988",
"E. c #A6A796",
"W. c #A7B996",
"Q. c #B6B092",
"!. c #B8B8A8",
"~. c #B0B0A5",
"^. c #C5BA88",
"/. c #C6B999",
"(. c #C9AD90",
"). c #CBBAB0",
"_. c #C49B87",
"`. c #9BC38A",
"'. c #9DC690",
"]. c #A6C288",
"[. c #B8C38A",
"{. c #A4C393",
"}. c #ABC495",
"|. c #ABC59C",
" X c #ACCA9A",
".X c #A7C797",
"XX c #B2CB9D",
"oX c #B6C799",
"OX c #B7D29B",
"+X c #ACD59D",
"@X c #ADC8A2",
"#X c #B3C5A4",
"$X c #B3CBA4",
"%X c #BCCCA5",
"&X c #B5CBAA",
"*X c #BBCDAB",
"=X c #BBC3AA",
"-X c #BBD4A4",
";X c #BBD3AB",
":X c #B7D4A6",
">X c #BDC9B5",
",X c #BDD3B2",
"<X c #B7DCB2",
"1X c #ACD7A6",
"2X c #BCE2B6",
"3X c #C8C789",
"4X c #D8C886",
"5X c #DDD988",
"6X c #CAC896",
"7X c #C7D599",
"8X c #D5D298",
"9X c #EAD986",
"0X c #F5D986",
"qX c #E7D793",
"wX c #F3DB99",
"eX c #E2CF82",
"rX c #FBE587",
"tX c #EDE592",
"yX c #C6CAA9",
"uX c #C3D3AD",
"iX c #C7D9A9",
"pX c #D6D5AA",
"aX c #C5C9B6",
"sX c #C3D5B3",
"dX c #C5DAB3",
"fX c #CADBB4",
"gX c #CCD4BB",
"hX c #CCDCBA",
"jX c #C8D5B7",
"kX c #D2DBBB",
"lX c #D6D8B8",
"zX c #D5CAAE",
"xX c #EADBA8",
"cX c #E9D4B3",
"vX c #CAE3B9",
"bX c #D3E2BC",
"nX c #D9E4B9",
"mX c #CBE0AC",
"MX c #EDE6A3",
"NX c #F5E5A4",
"BX c #F1EDB2",
"VX c #CCD8C1",
"CX c #D3DCC4",
"ZX c #D7DAC8",
"AX c #D6CCCA",
"SX c #E4D9C9",
"DX c #CBE6C3",
"FX c #D4E4C2",
"GX c #DAE6C8",
"HX c #DBE6D6",
"JX c #E4E7C8",
"KX c #E6E9D5",
"LX c #EEF1D7",
"PX c #F6F8E5",
"IX c #EAF1E2",
"UX c #D5BFC2",
/* pixels */
"rXC.rXC.0X0XqX0X0X0XA.C.C.C.rXC.C.C.C.A.C.A.b.A.A.M.A.S.S.b.A.A.A.M.C.M.M.A.M.A.M.M.A.S.l.S.S.S.M.tXrXA.A.rXV.rXtXrX9XrXrXC.rXrX",
"rXM.B.z.N.eXeXeXx.N.N.Z.C.N.x.N.N.0Xb.N.B.B.B.B.9Xc.V.c.9X9XB.v.B.N.0X9XB.0XN.B.V.x.m.S.S.S.M.z.S.v.v.c.v.D.c.c.v.5Xc.c.z.b.C.M.",
"0XZ.g.#.#.s.1.&.i.6.s.t.6.f.i.^.^.^.i.^.8X/.6X6X6X3X6X8X6X6X6X6XyX6XcXpXzXcXpXpXpX6X6X6Xa.&.@.~ ~ l +.-.! ! l ! =.@.~ +.+.:.B.m.",
"0X0Xg.x i r f h S T 6.6.h d G u.3.2.R 4.Y.P.5.>.=X2.F K.Y.Y.G.Q.GXZXZXZXGXHXZXGXHXVXgX#X>.s w w 9 z ~ t t r r %.r.t 9 x ! ;.tXtX",
"qXxX3Xx f u s M m a U G.v v B F P F Z P P 2.n n aXE.F.G.H b F K.nXGXbXFXFXFXDXDXsX#X|.L...s s k w ( ' 9 k r k ] k % % k ~ =.5Xc.",
"qXMX8XD $.<.>.2.K.5.G.!.~.!.~.H.VXaXaXgXCXKXgXZXLXZXCXGXZXJXKXKXbXGXnXJXGXFXGXhX*XW.W.I.U.U.w.q.0.0.W.| 0.<.<.} C k z ` ) p.BX5X",
"5XMX7X@.1.T.K.T.Y.yXyX!.AX~.~.UXQ.jXyXzXlXQ.zXyX/.zXcXcXcXcXSXzXpXnX6XzX6XQ.Q.Q.Q.K.Y.K.4.3.q.3.!.W.!.Y.4.K.q.W.W.K.4.>.D t.MX5X",
"qXMXh.~ ' q.q.T.<.Q.4.G.IXIX>XHXQ.lXzX/.zXS (.5.E G E 5././.cX).Q.R.E J M u u 6 ; 6 u ;         E.HXZXgXE.R p G.=XK.>.$.$.i.MXqX",
"MXBXa.j <.<.K ' >.>.J LXnXY.gXPXzXG G zX(.M U 8 3 8 3 8 U N AX(.(._.U U g 3 3 @ O 3 7 2 8 c @ > G.AXHX~.F < p 1 : , a >.D i.wXqX",
"qXBX^.D q.>.j A ' Y R./.pXh J J G >.J.gXJ.8 8 M 8 O 8 # # 8 U (.6.J.U 8 # # @ - # 2 , 3 7 7 + X m B F F a p n q p q Z u.S a.wX9X",
"cXBX^.J 1.>.J J h h d T A >.p u p J AXPXG.- 3 g Q U J.8 O # 6 Q.6.E O # 3 g U W - o # X * 6 < q 1 1 q b p b q b $ $ s K.j t.NXqX",
"cXcX/.Y 4.!.lXnX6X1.1.Y.,.S ; p 6 } lXu.8 a G 8 U N g 3 8 O i 5./.U # # 4 B G N , - < c m n F P b q b b b b q 0 $ % q L.j t.BXqX",
"xXBX/.S $.R.pXyXu.i.R.5.pXcXZX4.; 1.pXh N N T T 8 5 O & 5 5 T cXcX,.4 8 O & @ @ , , v P F m b n Z q q q 1 b 1 $ $ % s K.d t.MXqX",
"qXMX4Xz &.nXLXBXpXpXi.8Xu.>.Q.lXY t.6X,.Q I T Q T U I T ,.,.i.pXSXE i g & , B B v v 7 v v 1 1 q 1 1 b q q q 1 $ $ $ p K.d y.MXqX",
"9XtXf.y %.7X7X3Xa.a.s.u.t.,.Y.Q.(./.(.T h Q Q U U Q _._.Q T 6.).).Q 8 8 - g W W B G c v v , = , 1 q b Z 1 > > . q b F Q.h i.qX8X",
"V.9Xf.x =.v.j.8.;.t.&.&.&.%.4.1.(.zX6.Q _.cX6.Q 6._.6.U 4 4 Q 6.6.Q i 4 & 8 M B U P 6 < 1 , , u m c > 1 $ . 2 2 2 b F Y.f 6.qXwX",
"V.rXf.l t.6X7X[.z @.=.1.&.$.1.4.i.(.s.T 6._.J.Q U g # 8 E N ,.Q.E S a 4 8 7 6 a v v p p a m n p 1 1 1 7 1 . . . . . b P.s &.9X0X",
"V.rXg.I t.^.R.q.p.[.&.z D z j R s.^.6.6.6.6.U g O # O U (.R Q.BXJ ,.G d a a - X a < 7 p < * 7 p v > > m F q 2 . . . m P.k -.V.n.",
"V.C.f.O.a.R.p.p.T.a.u.&.z j A x T ^.6.g.Q T 4 3 O g g i h N J./.J.,.M h a ; @ , o , a 7 < p p = 1 = > v b > . 2 2 2 B P.t =.N.b.",
"Z.C.f.&.3XT.1.1.%.z ) %.D $.<.j Y i.i.6.T 8 O 3 g M 8 O o # ; i i a 6 o o o + @ @ , v p , , 7 < > > 7 p 1 $ 2 1 c 2 F P.r -.V.Z.",
"n.C.g.s.3X1.A z D %.%.D $.q.T.Q.*.6.^.Y 5 3 O g U W U v 4 O O o X & & o O - , 6 > - , 7 7 p +   + + + > $ . . 2 c 7 F K.k =.V.n.",
"M.0Xf.s.[.1.K J $.1.p.u.8.K.Q.Q.$.i.^.T 5 O 3 h U 6.Q U g h g 4 3 & & - 3 @ - p , , > + 7 n < , > X X X   . 2 1 c 1 B T.k ;.V.n.",
"C.rXf.#.R.<.H <.>.j K u.Y.u.<.A $.6.$.Y g 5 5 g N N U J.6.6.E 6.M R A 8 8 7 6 @ , * - + * o , ).aX~.F.L Z q 1 1 c , n W.z t.V.n.",
"b.rXf.s.^.$.s j j d f K <.A n 3.D Y r ,.T g g 5 O 3 4 g 8 U R E R G a 7 6 ,   o X + @ X < < : E.AXKXIXIXIXIXAXG.c , n W.~ :.V.n.",
"b.C.v.&.i.J w d u u A J j F J K K A S J G S M M 6 g 8 3 3 O O 3 o & * @ - - @ * + > +   * < 7 n H.P E.ZXVXVXAXAXUX~.G.4.%.;.C.n.",
"M.m.f.I u.$.n } V s d A d u u < F D J A h G Y B h N M G 5.5.5.J.J.G.W G B p , , , 7 , , , : : q < < B !.VXAXHX>XSXAX!.K.[ ;.C.n.",
"M.C.d.T q.>.F 2.F s u f u 0 < 0 d A G A d F M 6 6 4 3 8 M M B G a a 7 , , * @ + > 1 < < < : = < < p H.E.~.>XAXAXUXUX).4.) :.C.n.",
"M.C.f.+.u.J q b < < ; < u 0 < 0 , p V n a u < & o @ @ + o X X o X o o   @ * * > + = = > : : , < p s , p Z H.AX!.UXUX).5.) :.C.n.",
"l.A.f.I 1.A . 1 s b u , : , < p < w n s < , 6 < + * = o * * * @ o * + + * = . + > $ = $ = $ : 1 1 p F V P !.>XUXUX).Q.q.%.:.C.n.",
"M.M.d.O.u.R m Z 1 p 0 - = : q p 1 b b 1 $ = < ,   o   X = < > X   * * > > , = : > 2 = : = $ : = < F./.gX*X~.VX~.).).E.q.t.y.C.M.",
"M.M.d.*.Q.Y.L H.H.2.E.aXjXaX~.G.!.>X>X!.E.~.!.E.!.!.~.~.~.!.!.P.~.!.~.~.!.~.~.~. .L  .2.} } L L 2.E.aX).sXCXUXAXUXAXaX6Xp.f.M.n.",
"m.M.f.#.[.T.}  .F.} F.=XuXaX=XP.#XP.E.!.!.!.!.aX!.!.aXAX).=XVXAXaXgX>X!.AXVX!.>XE.P.P.I.F.3.U.3.} 3.K.P.P.P.~.~.).UXyX3Xh.f.n.M.",
"M.V.d.! _ _ { / ` H | q.q.e.U.L.W.0.K.XXK.T.fX!.#XkXhXkXCXgXkXkXkXFXFXbXhXdX,X*X;X@X{.I.L.L.L.w.U.w.w.w.U.U.I.2X>XVXlX[.;.d.V.n.",
"b.S.D.! [ { _ ^ ^ _ 9.e.L.T.0.L.L..XT.T.-X}.XXoXuX%XyXyXyXkXnXlXnXbXvXmXfXdX,X:X$X@X{.L.L.L.U.w.o.w.`.w.`.'.I.I.@X&XiX[.;.d.M.m.",
"m.C.D.! r.r.{ { { w.e.e.+X].7. X-Xe.{.}.uX{.oX%XbX%XnXkXfXlXuXfXiXiX;X;X;X:X$X$X.X{.`.L.L.U.`.w.w.w.w.w.`.U.I..X1X.X$Xp.O.:.A.M.",
"A.M.:.! ! ^ e { X.e ( ].e.e.{.L.W.I.XXC j } | s } ' %XjX%XuXyXfXuX-X-X$X:X$X$X.X|.{.'.I.`.L.`.`.w.w.w.'.U...Z C Z Z q.9.O.:.C.D.",
"M.C.v.! ! % e { e 9 k e.OXoXe.{.1X{.U.j ..C s C K H |.uX#XjX*XsX-XXXXX|. X|.}..X.X{.{.'.'.`.`.`.+X`.`..X`.` V Z V K r.t.O.:.M.k.",
"k.C.d.! [ _ _ r./ ] e.L.}. XI.$XXXXX-XU.W..X%X X#XW.uXuX$XhX%X%XXXXX}.|.{.{.W..X{.I.{..X{.`.`.].w.'.{.w.I.'..X@X1X}.oXt.I :.A.M.",
"M.S.d.! -.e.w._ _ {.7.j } ' C U.L.H | W.U.} L.L.<.3.| }  .q.3. .<.<.<.| | | o.3.| | | 7.o.] ] ..r.`.+X'..X$X X|.#XXX7Xp.+.:.V.m.",
"M.m.d.+.-.9.e.{ 0.e.}.T.oX|.I.@X{.}.I.@XW.L.#X@XI.&X@XW.W.#X1XW..X X|.|.W..X@X:X@X{..XXX XL.`.{.`.+X+X+XXX X@X;X;X;XOXt.#.:.m.m.",
"V.C.d.! -.7.X.] ] L.oXR.XX#X|.W.$X.X|.&X,X1X&X;X&X;X,X,X,X&X>X<X,X$X;X%X;XdXdX<XsX;X$X:X:X+X X X-X<X$X}.$X:X<XdX:X:XiXa.-.:.V.M.",
"N.B.f.@.9.e.w.o.0.W.yXoX%X%X&X&X$X&X&X@X|.$X&X&X&X@X#X@X&X&X&X&X$X;X$XhX;X,XDX,X;XsXdXdXiX-X-XiX:X-XOX-XuX;X&X,XFXvXfXa.#.:.x.b.",
"N.9Xf.@.p.e.0.0.0.oXuXyXyX*X&X&X,X;X;X;X&X&X#X@X>X&X&X>X>XjXVX<XsXsXfXhXVXVXhXhXGXFXdX<XuX;X%XXXOX;X%X-XuXuX;X,XdX;X%XR.t.f.tXV.",
"0X0Xg.%.p.U.w.q.q.W.uXyXyX*X&X#X&XW.W.;XsX;X#X&X@X#X&X&X@X&X,X>XFX,XGXsXDXGXjXCXFXCXFXkXhXhXfXsX$XdXuX$XuXhXhXVXGXhXvXoX1.y.9XB.",
"0XqXg.1.R.|.|.@XK.#XkXlXhXfX,X&XjXjX;X#X#X,XgXsX>XVXDXDX2XVXVXVXVXKXGXGXFXZXGXIXGXIXPXKXDXjXgXhXdXfXfXfXfX*X!.@X,X#XjX6X;.y.0X9X",
"wXwX4XR.fX<X;X,X#XkXJXGXJXHXFXVX*XhX#XH b `  .} H .. .} P Z H P } VX .=X .P F.G. .} } 2.K.yXGXGXGXiXfXGXkX3.H } Z P W.%Xu.^.NXwX",
"wXwX8XR.vXvX<XhXsXGXJXZXKXJXGXDXjXGX*X .F }  .} P  .H. .} P } } 2.VX2.~. .L H.P.~.P.H.2.~.GXLXJXJXbXfXnXhXK.} o. . .oXpXa.^.NX9X",
"NXxX6XR.bXvXVXGXgXJXGXlXGXGXCXVXCXCXgXgXVXCXVXjX>XVXVXVX2XVXFXCXGXHXKXCXIXIXHXIXHXPXPXPXLXLXKXJXGXGXFXbXFXGXCXHXIXDXGXlXu.^.BXwX",
"xXcX8XQ.nXvXbXGXfXJX/.J.E.E.P.!.~.P.F.G.P.E.E.E.3.3.F.F.F.3.F.F.).Y.!.=XG.P.!.P.E.~.gXKXLXLXKXJXGXHXGXDXFXFXDXFXDXvXnXiXR.8XMXwX",
"wXxX6XT.fXmXfXFXzXJXLXKXLXLXHXIXKXCXAXgXAXVXjXsX=XaX*XaX>XsX>XaXFXpXnXGXaXCXHXDXVXZXKXKXKXJXSXGXGXDXFXFXkXFXbXFXDXbXnX7Xa.3XNXwX",
"wXMX4Xp.iXiXvXbXuXJXJXLXLXKXHXHXGXGXnXnXmXiXiXiX-X-XiX-X-X-X;X-X<X-XvXvX,X2XDXDXDXDXDXDXhXvXvXbXbXbXhXkXnXnXbXFXGXFXnXpX^.^.wXwX",
"0XwXx.t.OXOXOX;XyXfXnXcXaXVXVX>XvXmXvXvXmXiXOXOXXXOXOXOXXX+XXX+X+X+X1X1X1X1X1X1X<X<X2X2X2XvXvXvXdXpXfXnXnXnXnXnXGXJXLXpX^.4XwX0X",
"B.9Xv.@.p.].'.I.T.%XfXlXzXgXgXsXhXdXdXfXmXvXiXdX-XmXiX;X;X1X&X$X X-X&X$X;X1X@X;X&X<X<XVXhXdXdXuXiX7XpXmXpXnXnXJXJXJXJXpXg.^.0X0X",
"M.C.y.+.8.w.U.w.0.|.yX=XyXjXuXjXgXjXuXsXdXfXdXdXiX<XdXsX;X&X&X=X XXXXX|.$X X@X#X&X&X&X,XsXjXsXuXOX7X7XiXmXnXnXbXGXJXBX8Xg.g.0X0X",
"M.A.:.~ ] r.o.o.0.@X%XoXuXuXyXhXgXgXaXjXkXkXlXfXkXkXkXkXjXaXaXuXXXOX X}..X.X.X X|. X@X@X%X:X*X-XXXOXOXiXmXnXbXbXbXbXnX6Xy.f.Z.Z.",
"m.C.:.! [ X.o......X%XXXfXfXXXiXpXjXyXpXjXpXfXpXlXnXCXlXlXlXgXfXOX XOX X.X.X X{.{..X X X%XOXXX|.XXOX-XiXiXbXvXhXhXvXmX3Xt.f.N.m.",
"S.V.:.! _ { { / ..o.3.0..XT.e.L.[.T.p.[.6XR.R.[.[.[.iX[.oXR.R.[.e.e.r.r.7.7.X.X.7.X.7.w.7.e.e.7.U.o.I.U.P.L.I.I.{.I.h.j.-.d.S.S.",
"m.S.:.y / { ../ o.o.( C K ` ( <.p.9.p.p.h.p.p.9.[.8.&.%.%.$.' ) 7.r.X.[ ^ ^ ^ ( / _ ( z ( k k j C C Z V ..o.....o.X.r.-.! :.D.D.",
"V.rXj.y ^ _ / / o.L.p.p.[.p.q.q.j.e.p.j.p.9.9.9.7.-.9.h.e.e.e.oX7X-X-X-X-X{.7.( ` e.{.7.} K.W.0./ U.I.U.` 0.U.`.] _ [ -.! j.S.S.",
"z.rXd.y ~ r.e.`.:XiX7X7X7X[.p.h.].h.h.h.9.9.9.9.9.h.[.].) ) K 8.bXbXvX;X-X.X<.` | T.w 3.' sXj } ..|.k ' ( OXz _ ] _ [ @.! j.D.D.",
"C.rXf.y l [ -.p.[.v.g.y.a.y.a.h.h.a.j.9.9.=.=.=.8.;.&.) d z *.1.L. X-X+Xe.X...` C ` o.j j A ` j A j ) k ) l [ y ~ ~ ~ ! ! :.D.D.",
"m.B.d.I ! x ~ l l I I +.+.#.#.#.#.-.;.;.;.#.#.#.#.#.O.l y *.I z x @.8.=.%.~ ~ ~ ~ z t x %.z j $.x *.y I ! +.y +.! ! +.+.! :.S.l.",
"Z.Z.B.N.5X5X5X5X9XB.N.N.x.c.5X9Xx.m.m.m.m.m.m.m.b.N.0XN.Z.0X0XZ.V.V.z.z.v.D.V.V.D.m.A.C.z.N.0XN.eX5XN.0Xv.S.c.c.S.5Xc.5Xz.Z.M.C.",
"rXZ.N.x.c.c.9Xx.N.z.Z.B.N.V.c.v.D.m.k.k.l.m.m.b.M.k.n.k.Z.b.b.b.b.l.m.l.l.l.l.l.l.M.k.M.l.C.n.M.N.B.N.V.v.S.S.S.D.5XV.9X9XC.Z.0X"
};
